SplineFontDB: 3.2
FontName: Zoikabold
FullName: Zoika bold
FamilyName: Zoika font
Weight: Bold
Copyright: Fonte por Victor Zanin dos Santos de Oliveira behance.net/vzolive . Livre para uso pessoal e comercial com citaA'o do autor.
Version: 1.000
ItalicAngle: 0
UnderlinePosition: -100
UnderlineWidth: 50
Ascent: 750
Descent: 250
InvalidEm: 0
sfntRevision: 0x00010000
LayerCount: 2
Layer: 0 0 "Back" 1
Layer: 1 0 "Fore" 0
XUID: [1021 730 1429178544 13741]
StyleMap: 0x0020
FSType: 4
OS2Version: 3
OS2_WeightWidthSlopeOnly: 0
OS2_UseTypoMetrics: 0
CreationTime: 1560496849
ModificationTime: 1590456125
PfmFamily: 81
TTFWeight: 700
TTFWidth: 5
LineGap: 0
VLineGap: 0
Panose: 0 0 0 0 0 0 0 0 0 0
OS2TypoAscent: 750
OS2TypoAOffset: 0
OS2TypoDescent: -250
OS2TypoDOffset: 0
OS2TypoLinegap: 0
OS2WinAscent: 885
OS2WinAOffset: 0
OS2WinDescent: 248
OS2WinDOffset: 0
HheadAscent: 750
HheadAOffset: 0
HheadDescent: -250
HheadDOffset: 0
OS2SubXSize: 700
OS2SubYSize: 650
OS2SubXOff: 0
OS2SubYOff: 140
OS2SupXSize: 700
OS2SupYSize: 650
OS2SupXOff: 0
OS2SupYOff: 477
OS2StrikeYSize: 50
OS2StrikeYPos: 250
OS2CapHeight: 700
OS2XHeight: 500
OS2Vendor: 'PYRS'
OS2CodePages: 00000001.00000000
OS2UnicodeRanges: a00002af.00000000.00000000.00000000
Lookup: 258 0 0 "'kern' Kerning Horizontal lookup 0" { "'kern' Kerning Horizontal lookup 0 subtable"  } ['kern' ('DFLT' <'dflt' > ) ]
DEI: 91125
LangName: 1033 "Fonte por Victor Zanin dos Santos de Oliveira behance.net/vzolive . Livre para uso pessoal e comercial com cita+AMEgHgAA-o do autor." "" "" "VictorZanindosSantosdeOliveira: Zoika bold: 2019" "" "Version 1.000" "" "" "Victor Zanin dos Santos de Oliveira" "Victor Zanin dos Santos de Oliveira" "" "" "https://behance.net/vzolive"
Encoding: UnicodeBmp
UnicodeInterp: none
NameList: AGL For New Fonts
DisplaySize: -48
AntiAlias: 1
FitToEm: 0
WinInfo: 48 24 7
BeginPrivate: 5
BlueValues 22 [-5 1 492 524 580 658]
OtherBlues 11 [-248 -241]
BlueScale 6 0.0125
BlueShift 1 2
ForceBold 4 true
EndPrivate

StartChar: exclam
Encoding: 33 33 4
GlifName: exclam
Width: 250
GlyphClass: 1
Flags: W
LayerCount: 2
Fore
SplineSet
125 182 m 0
 137 182 148.333007812 179.666992188 159 175 c 0
 169.666992188 170.333007812 179 164 187 156 c 0
 195 148 201.333007812 138.5 206 127.5 c 0
 210.666992188 116.5 213 105 213 93 c 0
 213 68.3330078125 204.333007812 47.5 187 30.5 c 0
 169.666992188 13.5 149 5 125 5 c 0
 100.333007812 5 79.3330078125 13.5 62 30.5 c 0
 44.6669921875 47.5 36 68.3330078125 36 93 c 0
 36 117.666992188 44.6669921875 138.666992188 62 156 c 0
 79.3330078125 173.333007812 100.333007812 182 125 182 c 0
37 780 m 1
 44 780.000976562 l 1
 214 780.000976562 l 1
 214 242.000976562 l 2
 214 234.000976562 216 228.16796875 220 224.500976562 c 0
 224 220.833984375 226.666992188 218.666992188 228 218 c 0
 231.333007812 216 233 213.333007812 233 210 c 0
 233 203.333007812 230 200 224 200 c 2
 223 200 l 1
 126 200 l 2
 114 200 102.5 202.333007812 91.5 207 c 0
 80.5 211.666992188 71 218 63 226 c 0
 55 234 48.6669921875 243.333007812 44 254 c 0
 39.3330078125 264.666992188 37 276 37 288 c 2
 37 780 l 1
EndSplineSet
Validated: 524289
EndChar

StartChar: quotedbl
Encoding: 34 34 5
GlifName: quotedbl
Width: 400
GlyphClass: 1
Flags: W
LayerCount: 2
Fore
SplineSet
163 464 m 0
 154.333007812 464 147.166015625 466.833007812 141.499023438 472.5 c 0
 135.83203125 478.166992188 132.999023438 485.333984375 132.999023438 494.000976562 c 2
 132.999023438 609.000976562 l 2
 132.999023438 617.66796875 135.83203125 624.834960938 141.499023438 630.501953125 c 0
 147.166015625 636.168945312 154.333007812 639.001953125 163 639.001953125 c 0
 171 639.001953125 178 636.168945312 184 630.501953125 c 0
 190 624.834960938 193 617.66796875 193 609.000976562 c 2
 193 494.000976562 l 2
 193 485.333984375 190 478.166992188 184 472.5 c 0
 178 466.833007812 171 464 163 464 c 0
236 464 m 0
 228 464 221 466.833007812 215 472.5 c 0
 209 478.166992188 206 485.333984375 206 494.000976562 c 2
 206 609.000976562 l 2
 206 617.66796875 209 624.834960938 215 630.501953125 c 0
 221 636.168945312 228 639.001953125 236 639.001953125 c 0
 244.666992188 639.001953125 251.833984375 636.168945312 257.500976562 630.501953125 c 0
 263.16796875 624.834960938 266.000976562 617.66796875 266.000976562 609.000976562 c 2
 266.000976562 494.000976562 l 2
 266.000976562 485.333984375 263.16796875 478.166992188 257.500976562 472.5 c 0
 251.833984375 466.833007812 244.666992188 464 236 464 c 0
EndSplineSet
Validated: 524289
EndChar

StartChar: numbersign
Encoding: 35 35 6
GlifName: numbersign
Width: 833
GlyphClass: 1
Flags: W
LayerCount: 2
Fore
SplineSet
711 294 m 2
 732.333007812 292 749.827148438 282.495117188 763.494140625 265.495117188 c 0
 777.161132812 248.495117188 782.994140625 229.328125 780.994140625 207.995117188 c 0
 779.661132812 197.328125 776.494140625 187.661132812 771.494140625 178.994140625 c 0
 766.494140625 170.327148438 760.161132812 162.827148438 752.494140625 156.494140625 c 0
 744.827148438 150.161132812 735.994140625 145.328125 725.994140625 141.995117188 c 0
 715.994140625 138.662109375 705.661132812 137.662109375 694.994140625 138.995117188 c 2
 617.994140625 146.995117188 l 1
 614.661132812 125.662109375 604.828125 108.495117188 588.495117188 95.4951171875 c 0
 572.162109375 82.4951171875 553.329101562 77.328125 531.99609375 79.9951171875 c 0
 511.329101562 81.9951171875 494.329101562 90.9951171875 480.99609375 106.995117188 c 0
 467.663085938 122.995117188 461.663085938 141.328125 462.99609375 161.995117188 c 1
 329.99609375 175.995117188 l 1
 321.99609375 97.9951171875 l 2
 319.99609375 76.662109375 310.663085938 59.162109375 293.99609375 45.4951171875 c 0
 277.329101562 31.828125 258.329101562 26.328125 236.99609375 28.9951171875 c 0
 226.329101562 29.662109375 216.49609375 32.662109375 207.49609375 37.9951171875 c 0
 198.49609375 43.328125 190.829101562 49.828125 184.49609375 57.4951171875 c 0
 178.163085938 65.162109375 173.330078125 73.8291015625 169.997070312 83.49609375 c 0
 166.6640625 93.1630859375 165.6640625 103.330078125 166.997070312 113.997070312 c 2
 174.997070312 191.997070312 l 1
 154.330078125 194.6640625 137.497070312 204.1640625 124.497070312 220.497070312 c 0
 111.497070312 236.830078125 105.997070312 255.663085938 107.997070312 276.99609375 c 0
 109.997070312 298.329101562 118.997070312 315.662109375 134.997070312 328.995117188 c 0
 150.997070312 342.328125 169.6640625 348.328125 190.997070312 346.995117188 c 1
 203.997070312 478.995117188 l 1
 126.997070312 486.995117188 l 2
 116.330078125 487.662109375 106.497070312 490.662109375 97.4970703125 495.995117188 c 0
 88.4970703125 501.328125 80.830078125 507.828125 74.4970703125 515.495117188 c 0
 68.1640625 523.162109375 63.3310546875 531.829101562 59.998046875 541.49609375 c 0
 56.6650390625 551.163085938 55.6650390625 561.330078125 56.998046875 571.997070312 c 0
 57.6650390625 582.6640625 60.6650390625 592.497070312 65.998046875 601.497070312 c 0
 71.3310546875 610.497070312 77.8310546875 618.1640625 85.498046875 624.497070312 c 0
 93.1650390625 630.830078125 101.83203125 635.497070312 111.499023438 638.497070312 c 0
 121.166015625 641.497070312 131.333007812 642.6640625 142 641.997070312 c 2
 220 633.997070312 l 1
 223.333007812 654.6640625 233 671.497070312 249 684.497070312 c 0
 265 697.497070312 283.666992188 702.997070312 305 700.997070312 c 0
 326.333007812 698.997070312 343.666015625 689.997070312 356.999023438 673.997070312 c 0
 370.33203125 657.997070312 376.33203125 639.330078125 374.999023438 617.997070312 c 1
 507.999023438 604.997070312 l 1
 514.999023438 682.997070312 l 2
 517.666015625 703.6640625 527.333007812 720.831054688 544 734.498046875 c 0
 560.666992188 748.165039062 579.666992188 753.998046875 601 751.998046875 c 0
 622.333007812 749.998046875 639.833007812 740.665039062 653.5 723.998046875 c 0
 667.166992188 707.331054688 672.666992188 688.331054688 670 666.998046875 c 2
 663 588.998046875 l 1
 683.666992188 586.331054688 700.5 576.831054688 713.5 560.498046875 c 0
 726.5 544.165039062 732 525.33203125 730 503.999023438 c 0
 727.333007812 482.666015625 718 465.333007812 702 452 c 0
 686 438.666992188 667.666992188 432.666992188 647 434 c 1
 633 302 l 1
 711 294 l 2
345.994140625 330.995117188 m 1
 477.994140625 316.995117188 l 1
 491.994140625 449.995117188 l 1
 358.994140625 462.995117188 l 1
 345.994140625 330.995117188 l 1
EndSplineSet
Validated: 524321
EndChar

StartChar: dollar
Encoding: 36 36 7
GlifName: dollar
Width: 550
GlyphClass: 1
Flags: W
LayerCount: 2
Fore
SplineSet
517 148 m 2
 515.666992188 125.333007812 508.33984375 104.666015625 495.006835938 85.9990234375 c 0
 483.673828125 69.9990234375 465.006835938 54.4990234375 439.006835938 39.4990234375 c 0
 413.006835938 24.4990234375 375.673828125 14.9990234375 327.006835938 10.9990234375 c 1
 327.006835938 8.9990234375 l 1
 327.006835938 -21.0009765625 l 2
 327.006835938 -31.66796875 323.33984375 -40.66796875 316.006835938 -48.0009765625 c 0
 308.673828125 -55.333984375 299.673828125 -59.0009765625 289.006835938 -59.0009765625 c 2
 271.006835938 -59.0009765625 l 2
 260.33984375 -59.0009765625 251.33984375 -55.333984375 244.006835938 -48.0009765625 c 0
 236.673828125 -40.66796875 233.006835938 -31.66796875 233.006835938 -21.0009765625 c 2
 233.006835938 8.9990234375 l 1
 233.006835938 10.9990234375 l 1
 189.673828125 14.9990234375 155.673828125 23.166015625 131.006835938 35.4990234375 c 0
 106.33984375 47.83203125 87.6728515625 61.33203125 75.005859375 75.9990234375 c 0
 62.3388671875 90.666015625 54.171875 104.499023438 50.5048828125 117.499023438 c 0
 46.837890625 130.499023438 45.0048828125 139.666015625 45.0048828125 144.999023438 c 0
 44.337890625 147.666015625 44.0048828125 151.999023438 44.0048828125 157.999023438 c 0
 44.0048828125 182.666015625 52.5048828125 203.666015625 69.5048828125 220.999023438 c 0
 86.5048828125 238.33203125 107.337890625 246.999023438 132.004882812 246.999023438 c 0
 156.671875 246.999023438 177.671875 238.33203125 195.004882812 220.999023438 c 0
 212.337890625 203.666015625 221.004882812 182.666015625 221.004882812 157.999023438 c 2
 222.004882812 104.999023438 l 2
 222.671875 97.666015625 225.004882812 90.9990234375 229.004882812 84.9990234375 c 0
 232.337890625 79.666015625 238.004882812 74.9990234375 246.004882812 70.9990234375 c 0
 254.004882812 66.9990234375 265.337890625 64.9990234375 280.004882812 64.9990234375 c 0
 294.671875 64.9990234375 306.171875 66.9990234375 314.504882812 70.9990234375 c 0
 322.837890625 74.9990234375 328.670898438 79.666015625 332.00390625 84.9990234375 c 0
 336.00390625 90.9990234375 338.336914062 97.9990234375 339.00390625 105.999023438 c 2
 340.00390625 149.999023438 l 2
 340.00390625 155.33203125 339.336914062 161.999023438 338.00390625 169.999023438 c 0
 336.670898438 177.999023438 334.50390625 185.999023438 331.50390625 193.999023438 c 0
 328.50390625 201.999023438 324.170898438 209.33203125 318.50390625 215.999023438 c 0
 312.836914062 222.666015625 305.669921875 227.333007812 297.002929688 230 c 0
 295.002929688 230 292.669921875 230.666992188 290.002929688 232 c 0
 277.3359375 236 262.168945312 240.833007812 244.501953125 246.5 c 0
 226.834960938 252.166992188 208.501953125 258.166992188 189.501953125 264.5 c 0
 170.501953125 270.833007812 152.001953125 277.666015625 134.001953125 284.999023438 c 0
 116.001953125 292.33203125 101.001953125 299.665039062 89.001953125 306.998046875 c 2
 85.001953125 308.998046875 l 2
 83.6689453125 309.665039062 82.3359375 310.665039062 81.0029296875 311.998046875 c 0
 74.3359375 316.665039062 69.6689453125 320.665039062 67.001953125 323.998046875 c 0
 65.6689453125 325.331054688 64.6689453125 326.6640625 64.001953125 327.997070312 c 0
 50.6689453125 343.330078125 44.001953125 361.997070312 44.001953125 383.997070312 c 2
 44.001953125 393.997070312 l 2
 45.3349609375 416.6640625 52.66796875 437.331054688 66.0009765625 455.998046875 c 0
 77.333984375 471.998046875 95.833984375 487.331054688 121.500976562 501.998046875 c 0
 147.16796875 516.665039062 184.334960938 526.33203125 233.001953125 530.999023438 c 1
 233.001953125 555.999023438 l 2
 233.001953125 566.666015625 236.668945312 575.666015625 244.001953125 582.999023438 c 0
 251.334960938 590.33203125 260.334960938 593.999023438 271.001953125 593.999023438 c 2
 289.001953125 593.999023438 l 2
 299.668945312 593.999023438 308.668945312 590.33203125 316.001953125 582.999023438 c 0
 323.334960938 575.666015625 327.001953125 566.666015625 327.001953125 555.999023438 c 2
 327.001953125 530.999023438 l 1
 370.334960938 526.999023438 404.501953125 518.83203125 429.501953125 506.499023438 c 0
 454.501953125 494.166015625 473.334960938 480.833007812 486.001953125 466.5 c 0
 498.668945312 452.166992188 506.668945312 438.333984375 510.001953125 425.000976562 c 0
 513.334960938 411.66796875 515.334960938 402.66796875 516.001953125 398.000976562 c 0
 516.001953125 395.333984375 516.168945312 393.000976562 516.501953125 391.000976562 c 0
 516.834960938 389.000976562 517.001953125 386.66796875 517.001953125 384.000976562 c 0
 517.001953125 359.333984375 508.334960938 338.500976562 491.001953125 321.500976562 c 0
 473.668945312 304.500976562 452.668945312 296.000976562 428.001953125 296.000976562 c 0
 403.334960938 296.000976562 382.501953125 304.500976562 365.501953125 321.500976562 c 0
 348.501953125 338.500976562 340.001953125 359.333984375 340.001953125 384.000976562 c 2
 339.001953125 437.000976562 l 2
 338.334960938 444.333984375 336.001953125 451.000976562 332.001953125 457.000976562 c 0
 328.668945312 462.333984375 322.8359375 467.000976562 314.502929688 471.000976562 c 0
 306.169921875 475.000976562 294.669921875 477.000976562 280.002929688 477.000976562 c 0
 264.669921875 477.000976562 253.002929688 475.000976562 245.002929688 471.000976562 c 0
 237.002929688 467.000976562 231.3359375 462.333984375 228.002929688 457.000976562 c 0
 224.002929688 451.000976562 221.669921875 444.333984375 221.002929688 437.000976562 c 2
 221.002929688 392.000976562 l 2
 221.002929688 386.66796875 221.502929688 380.000976562 222.502929688 372.000976562 c 0
 223.502929688 364.000976562 225.502929688 355.833984375 228.502929688 347.500976562 c 0
 231.502929688 339.16796875 235.8359375 331.66796875 241.502929688 325.000976562 c 0
 247.169921875 318.333984375 254.669921875 314.000976562 264.002929688 312.000976562 c 0
 275.3359375 308.66796875 289.502929688 304.334960938 306.502929688 299.001953125 c 0
 323.502929688 293.668945312 341.502929688 287.668945312 360.502929688 281.001953125 c 0
 379.502929688 274.334960938 398.169921875 267.501953125 416.502929688 260.501953125 c 0
 434.8359375 253.501953125 450.668945312 246.334960938 464.001953125 239.001953125 c 0
 473.334960938 235.001953125 481.66796875 229.334960938 489.000976562 222.001953125 c 0
 490.333984375 221.334960938 491.166992188 220.66796875 491.5 220.000976562 c 0
 491.833007812 219.333984375 492.333007812 218.666992188 493 218 c 0
 509 200.666992188 517 180.666992188 517 158 c 2
 517 148 l 2
EndSplineSet
Validated: 524289
EndChar

StartChar: percent
Encoding: 37 37 8
GlifName: percent
Width: 700
GlyphClass: 1
Flags: W
LayerCount: 2
Fore
SplineSet
243 528 m 0
 243.666992188 515.333007812 242 503.166992188 238 491.5 c 0
 234 479.833007812 228.166992188 469.666015625 220.5 460.999023438 c 0
 212.833007812 452.33203125 203.5 445.165039062 192.5 439.498046875 c 0
 181.5 433.831054688 169.666992188 430.6640625 157 429.997070312 c 0
 144.333007812 429.330078125 132.166015625 430.997070312 120.499023438 434.997070312 c 0
 108.83203125 438.997070312 98.6650390625 444.830078125 89.998046875 452.497070312 c 0
 81.3310546875 460.1640625 74.1640625 469.497070312 68.4970703125 480.497070312 c 0
 62.830078125 491.497070312 59.6630859375 503.330078125 58.99609375 515.997070312 c 0
 58.3291015625 528.6640625 59.99609375 540.831054688 63.99609375 552.498046875 c 0
 67.99609375 564.165039062 73.8291015625 574.33203125 81.49609375 582.999023438 c 0
 89.1630859375 591.666015625 98.49609375 598.833007812 109.49609375 604.5 c 0
 120.49609375 610.166992188 132.329101562 613.333984375 144.99609375 614.000976562 c 0
 157.663085938 614.66796875 169.830078125 613.000976562 181.497070312 609.000976562 c 0
 193.1640625 605.000976562 203.331054688 599.000976562 211.998046875 591.000976562 c 0
 220.665039062 583.000976562 227.83203125 573.66796875 233.499023438 563.000976562 c 0
 239.166015625 552.333984375 242.333007812 540.666992188 243 528 c 0
641 205.000976562 m 0
 641.666992188 192.333984375 640.004882812 180.171875 636.004882812 168.504882812 c 0
 632.004882812 156.837890625 626.004882812 146.670898438 618.004882812 138.00390625 c 0
 610.004882812 129.336914062 600.504882812 122.169921875 589.504882812 116.502929688 c 0
 578.504882812 110.8359375 566.671875 107.668945312 554.004882812 107.001953125 c 0
 541.337890625 106.334960938 529.170898438 108.001953125 517.50390625 112.001953125 c 0
 505.836914062 116.001953125 495.669921875 122.001953125 487.002929688 130.001953125 c 0
 478.3359375 138.001953125 471.168945312 147.501953125 465.501953125 158.501953125 c 0
 459.834960938 169.501953125 456.66796875 181.334960938 456.000976562 194.001953125 c 0
 455.333984375 206.668945312 457.000976562 218.668945312 461.000976562 230.001953125 c 0
 465.000976562 241.334960938 471.000976562 251.501953125 479.000976562 260.501953125 c 0
 487.000976562 269.501953125 496.500976562 276.668945312 507.500976562 282.001953125 c 0
 518.500976562 287.334960938 530.333984375 290.66796875 543.000976562 292.000976562 c 0
 555.66796875 292.66796875 567.66796875 291.000976562 579.000976562 287.000976562 c 0
 590.333984375 283.000976562 600.500976562 277.000976562 609.500976562 269.000976562 c 0
 618.500976562 261.000976562 625.66796875 251.500976562 631.000976562 240.500976562 c 0
 636.333984375 229.500976562 639.666992188 217.66796875 641 205.000976562 c 0
258.004882812 29.005859375 m 0
 237.337890625 34.3388671875 221.671875 46.3388671875 211.004882812 65.005859375 c 0
 200.337890625 83.6728515625 197.670898438 103.33984375 203.00390625 124.006835938 c 2
 335.00390625 627.006835938 l 2
 340.336914062 648.33984375 352.336914062 664.33984375 371.00390625 675.006835938 c 0
 389.670898438 685.673828125 409.337890625 688.340820312 430.004882812 683.0078125 c 0
 451.337890625 677.674804688 467.337890625 665.674804688 478.004882812 647.0078125 c 0
 488.671875 628.340820312 491.338867188 608.673828125 486.005859375 588.006835938 c 2
 353.005859375 85.0068359375 l 2
 347.672851562 63.673828125 335.672851562 47.673828125 317.005859375 37.0068359375 c 0
 298.338867188 26.33984375 278.671875 23.6728515625 258.004882812 29.005859375 c 0
EndSplineSet
Validated: 524321
EndChar

StartChar: parenleft
Encoding: 40 40 9
GlifName: parenleft
Width: 300
GlyphClass: 1
Flags: W
LayerCount: 2
Fore
SplineSet
243 62 m 0
 248.333007812 60.6669921875 252.833984375 57.4970703125 256.500976562 52.4970703125 c 0
 260.16796875 47.4970703125 262.000976562 41.9970703125 262.000976562 35.9970703125 c 0
 262.000976562 29.330078125 259.833984375 23.6630859375 255.500976562 18.99609375 c 0
 251.16796875 14.3291015625 245.66796875 11.3291015625 239.000976562 9.99609375 c 2
 236.000976562 9.99609375 l 1
 230.000976562 9.99609375 l 2
 186.000976562 11.99609375 151.333984375 18.8291015625 126.000976562 30.49609375 c 0
 100.66796875 42.1630859375 81.5009765625 54.830078125 68.5009765625 68.4970703125 c 0
 55.5009765625 82.1640625 47.333984375 95.3310546875 44.0009765625 107.998046875 c 0
 40.66796875 120.665039062 38.66796875 129.33203125 38.0009765625 133.999023438 c 0
 38.0009765625 135.999023438 37.833984375 137.999023438 37.5009765625 139.999023438 c 0
 37.16796875 141.999023438 37.0009765625 144.33203125 37.0009765625 146.999023438 c 0
 37.0009765625 148.33203125 37.333984375 149.665039062 38.0009765625 150.998046875 c 1
 37.0009765625 150.998046875 l 1
 37.0009765625 523.998046875 l 1
 38.0009765625 523.998046875 l 1
 37.333984375 524.665039062 37.0009765625 525.998046875 37.0009765625 527.998046875 c 0
 37.0009765625 530.665039062 37.16796875 532.998046875 37.5009765625 534.998046875 c 0
 37.833984375 536.998046875 38.0009765625 538.998046875 38.0009765625 540.998046875 c 0
 38.66796875 545.665039062 40.66796875 554.33203125 44.0009765625 566.999023438 c 0
 47.333984375 579.666015625 55.5009765625 592.833007812 68.5009765625 606.5 c 0
 81.5009765625 620.166992188 100.66796875 632.833984375 126.000976562 644.500976562 c 0
 151.333984375 656.16796875 186.000976562 663.000976562 230.000976562 665.000976562 c 2
 236.000976562 665.000976562 l 1
 239.000976562 665.000976562 l 2
 245.66796875 663.66796875 251.16796875 660.66796875 255.500976562 656.000976562 c 0
 259.833984375 651.333984375 262.000976562 645.666992188 262.000976562 639 c 0
 262.000976562 633 260.16796875 627.5 256.500976562 622.5 c 0
 252.833984375 617.5 248.333984375 614.333007812 243.000976562 613 c 0
 241.66796875 613 240.66796875 612.833007812 240.000976562 612.5 c 0
 239.333984375 612.166992188 238.333984375 612 237.000976562 612 c 0
 220.333984375 608 209.666992188 601.333007812 205 592 c 0
 202.333007812 587.333007812 201 582.333007812 201 577 c 2
 201 98 l 2
 201 92.6669921875 202.333007812 87.6669921875 205 83 c 0
 207 79 210.5 75 215.5 71 c 0
 220.5 67 227.666992188 64.3330078125 237 63 c 0
 238.333007812 63 239.333007812 62.8330078125 240 62.5 c 0
 240.666992188 62.1669921875 241.666992188 62 243 62 c 0
EndSplineSet
Validated: 524289
EndChar

StartChar: parenright
Encoding: 41 41 10
GlifName: parenright
Width: 300
GlyphClass: 1
Flags: W
LayerCount: 2
Fore
SplineSet
56 608 m 0
 43.3330078125 611.333007812 37 619.668945312 37 633.001953125 c 0
 37 640.334960938 39.1669921875 646.334960938 43.5 651.001953125 c 0
 47.8330078125 655.668945312 53.3330078125 658.668945312 60 660.001953125 c 2
 63 660.001953125 l 2
 65.6669921875 660.001953125 67.6669921875 659.668945312 69 659.001953125 c 0
 113 657.001953125 147.666992188 650.334960938 173 639.001953125 c 0
 198.333007812 627.668945312 217.5 615.168945312 230.5 601.501953125 c 0
 243.5 587.834960938 251.833007812 574.501953125 255.5 561.501953125 c 0
 259.166992188 548.501953125 261 539.668945312 261 535.001953125 c 0
 261 533.001953125 261.166992188 531.001953125 261.5 529.001953125 c 0
 261.833007812 527.001953125 262 525.001953125 262 523.001953125 c 0
 262 521.001953125 261.666992188 519.668945312 261 519.001953125 c 1
 262 519.001953125 l 1
 262 146.001953125 l 1
 261 146.001953125 l 1
 261.666992188 144.668945312 262 143.001953125 262 141.001953125 c 0
 262 139.001953125 261.833007812 137.001953125 261.5 135.001953125 c 0
 261.166992188 133.001953125 261 131.001953125 261 129.001953125 c 0
 261 124.334960938 259.166992188 115.66796875 255.5 103.000976562 c 0
 251.833007812 90.333984375 243.5 77.0009765625 230.5 63.0009765625 c 0
 217.5 49.0009765625 198.333007812 36.333984375 173 25.0009765625 c 0
 147.666992188 13.66796875 113 7.0009765625 69 5.0009765625 c 0
 67.6669921875 5.0009765625 66.6669921875 4.833984375 66 4.5009765625 c 0
 65.3330078125 4.16796875 64.3330078125 4.0009765625 63 4.0009765625 c 0
 62.3330078125 4.0009765625 61.8330078125 4.16796875 61.5 4.5009765625 c 0
 61.1669921875 4.833984375 60.6669921875 5.0009765625 60 5.0009765625 c 0
 53.3330078125 5.66796875 47.8330078125 8.3349609375 43.5 13.001953125 c 0
 39.1669921875 17.6689453125 37 23.6689453125 37 31.001953125 c 0
 37 44.3349609375 43.3330078125 52.66796875 56 56.0009765625 c 0
 57.3330078125 56.66796875 59.3330078125 57.0009765625 62 57.0009765625 c 0
 71.3330078125 58.333984375 78.166015625 61.1669921875 82.4990234375 65.5 c 0
 86.83203125 69.8330078125 90.33203125 74 92.9990234375 78 c 0
 95.666015625 82.6669921875 97.3330078125 87.6669921875 98 93 c 2
 98 572 l 2
 97.3330078125 577.333007812 95.666015625 582.333007812 92.9990234375 587 c 0
 90.33203125 591 86.83203125 594.833007812 82.4990234375 598.5 c 0
 78.166015625 602.166992188 71.3330078125 605 62 607 c 0
 59.3330078125 607 57.3330078125 607.333007812 56 608 c 0
EndSplineSet
Validated: 524289
EndChar

StartChar: plus
Encoding: 43 43 11
GlifName: plus
Width: 500
GlyphClass: 1
Flags: W
LayerCount: 2
Fore
SplineSet
428 444 m 0
 442.666992188 431.333007812 450 414.000976562 450 392.000976562 c 0
 450 371.333984375 442.666992188 353.666992188 428 339 c 0
 413.333007812 324.333007812 395.666015625 317 374.999023438 317 c 2
 322.999023438 317 l 1
 322.999023438 264 l 2
 322.999023438 244.666992188 315.33203125 227.333984375 299.999023438 212.000976562 c 0
 286.666015625 196.66796875 269.333007812 189.000976562 248 189.000976562 c 0
 228 189.000976562 210.333007812 196.66796875 195 212.000976562 c 0
 180.333007812 226.66796875 173 244.000976562 173 264.000976562 c 2
 173 317.000976562 l 1
 120 317.000976562 l 2
 100 317.000976562 82.6669921875 324.333984375 68 339.000976562 c 0
 52.6669921875 354.333984375 45 372.000976562 45 392.000976562 c 0
 45 413.333984375 52.6669921875 430.666992188 68 444 c 0
 83.3330078125 459.333007812 100.666015625 467 119.999023438 467 c 2
 172.999023438 467 l 1
 172.999023438 519 l 2
 172.999023438 540.333007812 180.33203125 558 194.999023438 572 c 0
 209.666015625 586.666992188 227.333007812 594 248 594 c 0
 270 594 287.333007812 586.666992188 300 572 c 0
 315.333007812 558 323 540.333007812 323 519 c 2
 323 467 l 1
 375 467 l 2
 395 467 412.666992188 459.333007812 428 444 c 0
EndSplineSet
Validated: 524289
EndChar

StartChar: comma
Encoding: 44 44 12
GlifName: comma
Width: 200
GlyphClass: 1
Flags: W
LayerCount: 2
Fore
SplineSet
24 -69 m 0
 34 -64.3330078125 41.9970703125 -58.5009765625 47.9970703125 -51.5009765625 c 0
 53.9970703125 -44.5009765625 58.4970703125 -37.16796875 61.4970703125 -29.5009765625 c 0
 64.4970703125 -21.833984375 66.330078125 -14.5009765625 66.9970703125 -7.5009765625 c 0
 67.6640625 -0.5009765625 67.6640625 5.666015625 66.9970703125 10.9990234375 c 0
 66.330078125 12.33203125 65.330078125 14.6650390625 63.9970703125 17.998046875 c 2
 59.9970703125 27.998046875 l 1
 53.9970703125 39.998046875 l 1
 47.9970703125 51.998046875 l 2
 42.6640625 59.998046875 39.8310546875 68.498046875 39.498046875 77.498046875 c 0
 39.1650390625 86.498046875 40.498046875 95.3310546875 43.498046875 103.998046875 c 0
 46.498046875 112.665039062 50.8310546875 120.83203125 56.498046875 128.499023438 c 0
 62.1650390625 136.166015625 68.6650390625 142.333007812 75.998046875 147 c 0
 93.998046875 155.666992188 112.498046875 156.833984375 131.498046875 150.500976562 c 0
 150.498046875 144.16796875 164.665039062 131.66796875 173.998046875 113.000976562 c 0
 175.331054688 111.66796875 175.831054688 109.834960938 175.498046875 107.501953125 c 0
 175.165039062 105.168945312 175.998046875 104.001953125 177.998046875 104.001953125 c 1
 177.998046875 100.668945312 178.831054688 97.1689453125 180.498046875 93.501953125 c 0
 182.165039062 89.8349609375 182.33203125 84.001953125 180.999023438 76.001953125 c 0
 181.666015625 66.6689453125 180.666015625 56.1689453125 177.999023438 44.501953125 c 0
 175.33203125 32.8349609375 169.665039062 20.66796875 160.998046875 8.0009765625 c 0
 152.331054688 -4.666015625 139.831054688 -17.8330078125 123.498046875 -31.5 c 0
 107.165039062 -45.1669921875 85.6650390625 -59 58.998046875 -73 c 0
 33.6650390625 -87.6669921875 15.83203125 -96.833984375 5.4990234375 -100.500976562 c 0
 -4.833984375 -104.16796875 -10.1669921875 -104.66796875 -10.5 -102.000976562 c 0
 -10.8330078125 -99.333984375 -7.5 -94.6669921875 -0.5 -88 c 0
 6.5 -81.3330078125 14.6669921875 -75 24 -69 c 0
EndSplineSet
Validated: 524321
EndChar

StartChar: hyphen
Encoding: 45 45 13
GlifName: hyphen
Width: 500
GlyphClass: 1
Flags: W
LayerCount: 2
Fore
SplineSet
39 392 m 0
 39 413.333007812 46.6669921875 431.666015625 62 446.999023438 c 0
 77.3330078125 462.33203125 95.666015625 469.999023438 116.999023438 469.999023438 c 2
 381.999023438 469.999023438 l 2
 403.33203125 469.999023438 421.665039062 462.33203125 436.998046875 446.999023438 c 0
 452.331054688 431.666015625 459.998046875 413.333007812 459.998046875 392 c 0
 459.998046875 370.666992188 452.331054688 352.333984375 436.998046875 337.000976562 c 0
 421.665039062 321.66796875 403.33203125 314.000976562 381.999023438 314.000976562 c 2
 116.999023438 314.000976562 l 2
 95.666015625 314.000976562 77.3330078125 321.66796875 62 337.000976562 c 0
 46.6669921875 352.333984375 39 370.666992188 39 392 c 0
EndSplineSet
Validated: 524289
EndChar

StartChar: period
Encoding: 46 46 14
GlifName: period
Width: 160
GlyphClass: 1
Flags: W
LayerCount: 2
Fore
SplineSet
150 73 m 0
 150 53 143 36 129 22 c 0
 115 8 98 1 78 1 c 0
 58 1 41 8 27 22 c 0
 13 36 6 53 6 73 c 0
 6 92.3330078125 13 109.166015625 27 123.499023438 c 0
 41 137.83203125 58 144.999023438 78 144.999023438 c 0
 98 144.999023438 115 137.83203125 129 123.499023438 c 0
 143 109.166015625 150 92.3330078125 150 73 c 0
EndSplineSet
Validated: 524289
EndChar

StartChar: slash
Encoding: 47 47 15
GlifName: slash
Width: 400
GlyphClass: 1
Flags: W
LayerCount: 2
Fore
SplineSet
109 -3 m 0
 88.3330078125 2.3330078125 72.8330078125 14.3330078125 62.5 33 c 0
 52.1669921875 51.6669921875 49.6669921875 71.333984375 55 92.0009765625 c 2
 195 593.000976562 l 2
 200.333007812 614.333984375 212.5 630.166992188 231.5 640.5 c 0
 250.5 650.833007812 270.333007812 653.333007812 291 648 c 0
 311.666992188 642 327.166992188 629.666992188 337.5 611 c 0
 347.833007812 592.333007812 350.333007812 572.666015625 345 551.999023438 c 2
 205 50.9990234375 l 2
 199.666992188 29.666015625 187.666992188 13.8330078125 169 3.5 c 0
 150.333007812 -6.8330078125 130.333007812 -9 109 -3 c 0
EndSplineSet
Validated: 524321
EndChar

StartChar: zero
Encoding: 48 48 16
GlifName: zero
Width: 550
GlyphClass: 1
Flags: W
LayerCount: 2
Fore
SplineSet
511 140 m 2
 509.666992188 114 500.333007812 90.6669921875 483 70 c 0
 475.666992188 61.3330078125 466.333984375 52.8330078125 455.000976562 44.5 c 0
 443.66796875 36.1669921875 429.66796875 28.833984375 413.000976562 22.5009765625 c 0
 396.333984375 16.16796875 376.666992188 11.0009765625 354 7.0009765625 c 0
 331.333007812 3.0009765625 305 1.0009765625 275 1.0009765625 c 0
 223 1.0009765625 181.5 6.5009765625 150.5 17.5009765625 c 0
 119.5 28.5009765625 95.8330078125 41.5009765625 79.5 56.5009765625 c 0
 63.1669921875 71.5009765625 52.5 86.16796875 47.5 100.500976562 c 0
 42.5 114.833984375 39.6669921875 125.666992188 39 133 c 0
 39 134.333007812 38.8330078125 135.5 38.5 136.5 c 0
 38.1669921875 137.5 38 138.666992188 38 140 c 2
 38 151 l 1
 38 482 l 1
 38 483 l 1
 38 493 l 2
 38.6669921875 518.333007812 47.6669921875 541.333007812 65 562 c 0
 72.3330078125 570.666992188 81.666015625 579.166992188 92.9990234375 587.5 c 0
 104.33203125 595.833007812 118.33203125 603.333007812 134.999023438 610 c 0
 151.666015625 616.666992188 171.333007812 622 194 626 c 0
 216.666992188 630 243 632 273 632 c 0
 327.666992188 632 370.666992188 626 402 614 c 0
 433.333007812 602 456.833007812 588.166992188 472.5 572.5 c 0
 488.166992188 556.833007812 498.166992188 541.5 502.5 526.5 c 0
 506.833007812 511.5 509.333007812 501.333007812 510 496 c 0
 510 494 510.166992188 491.833007812 510.5 489.5 c 0
 510.833007812 487.166992188 511 485 511 483 c 2
 511 482 l 1
 511 140 l 2
273.999023438 57 m 0
 288.666015625 57 300.166015625 58.9990234375 308.499023438 62.9990234375 c 0
 316.83203125 66.9990234375 322.665039062 71.666015625 325.998046875 76.9990234375 c 0
 329.998046875 82.9990234375 332.331054688 89.666015625 332.998046875 96.9990234375 c 2
 332.998046875 97.9990234375 l 1
 332.998046875 530.999023438 l 1
 332.998046875 535.999023438 l 2
 332.331054688 543.33203125 329.998046875 549.999023438 325.998046875 555.999023438 c 0
 322.665039062 561.33203125 316.83203125 565.999023438 308.499023438 569.999023438 c 0
 300.166015625 573.999023438 288.666015625 575.999023438 273.999023438 575.999023438 c 0
 258.666015625 575.999023438 246.999023438 573.83203125 238.999023438 569.499023438 c 0
 230.999023438 565.166015625 225.33203125 560.333007812 221.999023438 555 c 0
 217.999023438 549 215.666015625 542.333007812 214.999023438 535 c 2
 214.999023438 529 l 1
 214.999023438 126 l 1
 215.999023438 97 l 2
 216.666015625 89.6669921875 218.999023438 83 222.999023438 77 c 0
 226.33203125 71.6669921875 231.999023438 67 239.999023438 63 c 0
 247.999023438 59 259.33203125 57 273.999023438 57 c 0
EndSplineSet
Validated: 524289
EndChar

StartChar: one
Encoding: 49 49 17
GlifName: one
Width: 450
GlyphClass: 1
Flags: W
LayerCount: 2
Fore
SplineSet
403 630 m 1
 402.998046875 502 l 1
 402.998046875 0 l 1
 359.998046875 0 l 1
 245.998046875 0 l 1
 245.998046875 428 l 1
 245.998046875 519 l 1
 215.998046875 492 l 1
 213.998046875 490 l 1
 212.998046875 489 l 2
 202.331054688 479 195.498046875 469.833007812 192.498046875 461.5 c 0
 189.498046875 453.166992188 188.331054688 446 188.998046875 440 c 0
 189.665039062 432.666992188 192.33203125 426.333984375 196.999023438 421.000976562 c 2
 201.999023438 415.000976562 l 1
 202.999023438 414.000976562 l 2
 218.999023438 396.000976562 226.166015625 374.833984375 224.499023438 350.500976562 c 0
 222.83203125 326.16796875 212.999023438 306.000976562 194.999023438 290.000976562 c 0
 178.999023438 275.333984375 160.499023438 267.666992188 139.499023438 267 c 0
 118.499023438 266.333007812 99.666015625 272.333007812 82.9990234375 285 c 0
 80.33203125 287 77.9990234375 289 75.9990234375 291 c 2
 69.9990234375 297 l 2
 53.33203125 315.666992188 45.83203125 337.166992188 47.4990234375 361.5 c 0
 49.166015625 385.833007812 58.9990234375 406 76.9990234375 422 c 2
 96.9990234375 439 l 2
 142.33203125 480.333007812 177.999023438 512.833007812 203.999023438 536.5 c 0
 229.999023438 560.166992188 250.166015625 578.166992188 264.499023438 590.5 c 0
 278.83203125 602.833007812 288.83203125 610.833007812 294.499023438 614.5 c 0
 300.166015625 618.166992188 305.333007812 621 310 623 c 0
 322.666992188 627.666992188 334.666992188 630 346 630 c 2
 375 630 l 1
 380 630 l 1
 403 630 l 1
EndSplineSet
Validated: 524321
EndChar

StartChar: two
Encoding: 50 50 18
GlifName: two
Width: 550
GlyphClass: 1
Flags: W
LayerCount: 2
Fore
SplineSet
425 174 m 0
 446.333007812 174 465.165039062 167.336914062 481.498046875 154.00390625 c 0
 497.831054688 140.670898438 507.998046875 123.670898438 511.998046875 103.00390625 c 0
 513.331054688 96.3369140625 513.998046875 90.669921875 513.998046875 86.0029296875 c 0
 513.998046875 61.3359375 505.165039062 40.3359375 487.498046875 23.0029296875 c 0
 469.831054688 5.669921875 448.6640625 -2.9970703125 423.997070312 -2.9970703125 c 2
 61.9970703125 -2.9970703125 l 2
 54.6640625 -2.9970703125 48.3310546875 0.0029296875 42.998046875 6.0029296875 c 0
 37.6650390625 12.0029296875 35.33203125 18.669921875 35.9990234375 26.0029296875 c 0
 37.33203125 36.0029296875 39.83203125 48.5029296875 43.4990234375 63.5029296875 c 0
 47.166015625 78.5029296875 52.9990234375 95.0029296875 60.9990234375 113.002929688 c 0
 68.9990234375 131.002929688 79.33203125 150.502929688 91.9990234375 171.502929688 c 0
 104.666015625 192.502929688 120.999023438 214.3359375 140.999023438 237.002929688 c 0
 150.33203125 249.002929688 161.33203125 261.669921875 173.999023438 275.002929688 c 0
 186.666015625 288.3359375 199.499023438 301.168945312 212.499023438 313.501953125 c 0
 225.499023438 325.834960938 238.33203125 337.16796875 250.999023438 347.500976562 c 0
 263.666015625 357.833984375 274.666015625 366.000976562 283.999023438 372.000976562 c 0
 292.666015625 377.333984375 299.833007812 384.000976562 305.5 392.000976562 c 0
 311.166992188 400.000976562 315.666992188 407.66796875 319 415.000976562 c 2
 327 436.000976562 l 2
 328.333007812 440.66796875 329.666015625 446.66796875 330.999023438 454.000976562 c 0
 332.33203125 460.000976562 333.499023438 467.16796875 334.499023438 475.500976562 c 0
 335.499023438 483.833984375 335.999023438 493.666992188 335.999023438 505 c 2
 335.999023438 531 l 2
 335.33203125 538.333007812 332.999023438 545 328.999023438 551 c 0
 325.666015625 556.333007812 319.833007812 561 311.5 565 c 0
 303.166992188 569 291.666992188 571 277 571 c 0
 261.666992188 571 250 568.833007812 242 564.5 c 0
 234 560.166992188 228.333007812 555.333984375 225 550.000976562 c 0
 221 544.000976562 218.666992188 537.333984375 218 530.000976562 c 2
 218 475.000976562 l 2
 216.666992188 451.66796875 207.666992188 431.66796875 191 415.000976562 c 0
 174.333007812 398.333984375 154 389.666992188 130 389 c 0
 105.333007812 389 84.3330078125 397.833007812 67 415.5 c 0
 49.6669921875 433.166992188 41 454.333984375 41 479.000976562 c 2
 41 488.000976562 l 2
 41.6669921875 513.333984375 50.6669921875 536.333984375 68 557.000976562 c 0
 75.3330078125 565.66796875 84.666015625 574.16796875 95.9990234375 582.500976562 c 0
 107.33203125 590.833984375 121.33203125 598.333984375 137.999023438 605.000976562 c 0
 154.666015625 611.66796875 174.333007812 617.000976562 197 621.000976562 c 0
 219.666992188 625.000976562 246 627.000976562 276 627.000976562 c 0
 330.666992188 627.000976562 373.666992188 621.000976562 405 609.000976562 c 0
 436.333007812 597.000976562 459.833007812 583.16796875 475.5 567.500976562 c 0
 491.166992188 551.833984375 501.166992188 536.500976562 505.5 521.500976562 c 0
 509.833007812 506.500976562 512.333007812 496.333984375 513 491.000976562 c 0
 513 489.000976562 513.166992188 486.833984375 513.5 484.500976562 c 0
 513.833007812 482.16796875 514 480.000976562 514 478.000976562 c 0
 514 464.66796875 512.666992188 451.834960938 510 439.501953125 c 0
 507.333007812 427.168945312 501 413.668945312 491 399.001953125 c 0
 481 384.334960938 466.166992188 367.66796875 446.5 349.000976562 c 0
 426.833007812 330.333984375 400.333007812 308.000976562 367 282.000976562 c 0
 339 260.000976562 313.666992188 236.000976562 291 210.000976562 c 0
 275.666992188 189.333984375 262 168.666992188 250 148 c 0
 240 130.666992188 231.333007812 112 224 92 c 0
 216.666992188 72 214.666992188 54 218 38 c 1
 280 38 l 2
 294 38 304.833007812 40 312.5 44 c 0
 320.166992188 48 325.666992188 52.6669921875 329 58 c 0
 333 64 335.666992188 70.6669921875 337 78 c 2
 337 86 l 1
 337 87 l 2
 337 111 345.666992188 131.5 363 148.5 c 0
 380.333007812 165.5 401 174 425 174 c 0
EndSplineSet
Validated: 524321
EndChar

StartChar: three
Encoding: 51 51 19
GlifName: three
Width: 550
GlyphClass: 1
Flags: W
LayerCount: 2
Fore
SplineSet
431 317 m 1
 451 309 466.331054688 297.328125 476.998046875 281.995117188 c 0
 487.665039062 266.662109375 495.665039062 250.329101562 500.998046875 232.99609375 c 0
 506.331054688 215.663085938 509.331054688 199.330078125 509.998046875 183.997070312 c 0
 510.665039062 168.6640625 510.998046875 156.997070312 510.998046875 148.997070312 c 0
 510.998046875 147.6640625 510.831054688 146.1640625 510.498046875 144.497070312 c 0
 510.165039062 142.830078125 509.998046875 141.330078125 509.998046875 139.997070312 c 1
 510.998046875 139.997070312 l 1
 509.665039062 113.997070312 500.33203125 90.6640625 482.999023438 69.9970703125 c 0
 475.666015625 61.330078125 466.333007812 52.830078125 455 44.4970703125 c 0
 443.666992188 36.1640625 429.666992188 28.8310546875 413 22.498046875 c 0
 396.333007812 16.1650390625 376.666015625 10.998046875 353.999023438 6.998046875 c 0
 331.33203125 2.998046875 304.999023438 0.998046875 274.999023438 0.998046875 c 0
 222.999023438 0.998046875 181.499023438 6.498046875 150.499023438 17.498046875 c 0
 119.499023438 28.498046875 95.83203125 41.498046875 79.4990234375 56.498046875 c 0
 63.166015625 71.498046875 52.4990234375 86.1650390625 47.4990234375 100.498046875 c 0
 42.4990234375 114.831054688 39.666015625 125.6640625 38.9990234375 132.997070312 c 0
 38.9990234375 134.330078125 38.83203125 135.497070312 38.4990234375 136.497070312 c 0
 38.166015625 137.497070312 37.9990234375 138.6640625 37.9990234375 139.997070312 c 2
 37.9990234375 150.997070312 l 2
 37.9990234375 174.997070312 46.4990234375 195.497070312 63.4990234375 212.497070312 c 0
 80.4990234375 229.497070312 100.999023438 237.997070312 124.999023438 237.997070312 c 0
 136.999023438 237.997070312 148.499023438 235.830078125 159.499023438 231.497070312 c 0
 170.499023438 227.1640625 180.166015625 220.997070312 188.499023438 212.997070312 c 0
 196.83203125 204.997070312 203.33203125 195.497070312 207.999023438 184.497070312 c 0
 212.666015625 173.497070312 214.999023438 161.997070312 214.999023438 149.997070312 c 2
 215.999023438 96.9970703125 l 2
 216.666015625 89.6640625 218.999023438 82.9970703125 222.999023438 76.9970703125 c 0
 226.33203125 71.6640625 231.999023438 66.9970703125 239.999023438 62.9970703125 c 0
 247.999023438 58.9970703125 259.33203125 56.9970703125 273.999023438 56.9970703125 c 0
 288.666015625 56.9970703125 300.166015625 58.9970703125 308.499023438 62.9970703125 c 0
 316.83203125 66.9970703125 322.665039062 71.6640625 325.998046875 76.9970703125 c 0
 329.998046875 82.9970703125 332.331054688 89.6640625 332.998046875 96.9970703125 c 2
 333.998046875 151.997070312 l 1
 333.998046875 159.997070312 l 2
 335.998046875 183.330078125 335.665039062 203.997070312 332.998046875 221.997070312 c 0
 330.998046875 237.330078125 326.998046875 250.997070312 320.998046875 262.997070312 c 0
 314.998046875 274.997070312 304.998046875 279.997070312 290.998046875 277.997070312 c 0
 284.998046875 276.6640625 278.165039062 274.497070312 270.498046875 271.497070312 c 0
 262.831054688 268.497070312 255.331054688 266.830078125 247.998046875 266.497070312 c 0
 240.665039062 266.1640625 234.33203125 268.6640625 228.999023438 273.997070312 c 0
 223.666015625 279.330078125 220.666015625 289.997070312 219.999023438 305.997070312 c 0
 219.33203125 321.997070312 220.999023438 335.330078125 224.999023438 345.997070312 c 0
 228.999023438 356.6640625 234.499023438 364.497070312 241.499023438 369.497070312 c 0
 248.499023438 374.497070312 256.499023438 376.497070312 265.499023438 375.497070312 c 0
 274.499023438 374.497070312 283.666015625 370.330078125 292.999023438 362.997070312 c 0
 302.33203125 355.6640625 309.499023438 352.831054688 314.499023438 354.498046875 c 0
 319.499023438 356.165039062 323.166015625 359.998046875 325.499023438 365.998046875 c 0
 327.83203125 371.998046875 329.33203125 379.165039062 329.999023438 387.498046875 c 0
 330.666015625 395.831054688 331.666015625 402.998046875 332.999023438 408.998046875 c 2
 333.999023438 486.998046875 l 1
 332.999023438 535.998046875 l 2
 332.33203125 543.331054688 329.999023438 549.998046875 325.999023438 555.998046875 c 0
 322.666015625 561.331054688 316.833007812 565.998046875 308.5 569.998046875 c 0
 300.166992188 573.998046875 288.666992188 575.998046875 274 575.998046875 c 0
 258.666992188 575.998046875 247 573.831054688 239 569.498046875 c 0
 231 565.165039062 225.333007812 560.33203125 222 554.999023438 c 0
 218 548.999023438 215.666992188 542.33203125 215 534.999023438 c 2
 215 479.999023438 l 2
 213.666992188 456.666015625 204.5 436.499023438 187.5 419.499023438 c 0
 170.5 402.499023438 150 393.999023438 126 393.999023438 c 0
 101.333007812 393.999023438 80.5 402.666015625 63.5 419.999023438 c 0
 46.5 437.33203125 38 458.33203125 38 482.999023438 c 2
 38 492.999023438 l 2
 38.6669921875 518.33203125 47.6669921875 541.33203125 65 561.999023438 c 0
 72.3330078125 570.666015625 81.666015625 579.166015625 92.9990234375 587.499023438 c 0
 104.33203125 595.83203125 118.33203125 603.33203125 134.999023438 609.999023438 c 0
 151.666015625 616.666015625 171.333007812 621.999023438 194 625.999023438 c 0
 216.666992188 629.999023438 243 631.999023438 273 631.999023438 c 0
 327.666992188 631.999023438 370.666992188 625.999023438 402 613.999023438 c 0
 433.333007812 601.999023438 456.833007812 588.166015625 472.5 572.499023438 c 0
 488.166992188 556.83203125 498.166992188 541.499023438 502.5 526.499023438 c 0
 506.833007812 511.499023438 509.333007812 501.33203125 510 495.999023438 c 0
 510 493.999023438 510.166992188 491.83203125 510.5 489.499023438 c 0
 510.833007812 487.166015625 511 484.999023438 511 482.999023438 c 2
 511 478.999023438 l 1
 511 473.999023438 l 2
 511 438.666015625 506.833007812 410.833007812 498.5 390.5 c 0
 490.166992188 370.166992188 481 354.333984375 471 343.000976562 c 0
 459 330.333984375 445.666992188 321.666992188 431 317 c 1
EndSplineSet
Validated: 524321
EndChar

StartChar: four
Encoding: 52 52 20
GlifName: four
Width: 550
GlyphClass: 1
Flags: W
LayerCount: 2
Fore
SplineSet
521 -3 m 1
 343.999023438 -2.9990234375 l 1
 343.999023438 202.000976562 l 1
 317.33203125 192.000976562 291.499023438 185.000976562 266.499023438 181.000976562 c 0
 241.499023438 177.000976562 219.33203125 174.333984375 199.999023438 173.000976562 c 0
 177.33203125 171.66796875 155.665039062 171.66796875 134.998046875 173.000976562 c 0
 110.998046875 173.000976562 90.498046875 181.333984375 73.498046875 198.000976562 c 0
 56.498046875 214.66796875 47.6650390625 235.000976562 46.998046875 259.000976562 c 2
 46.998046875 585.000976562 l 2
 46.3310546875 592.333984375 44.1640625 597.666992188 40.4970703125 601 c 0
 36.830078125 604.333007812 34.330078125 606.333007812 32.9970703125 607 c 0
 29.6640625 609 27.9970703125 611.666992188 27.9970703125 615 c 0
 27.9970703125 621.666992188 31.330078125 625 37.9970703125 625 c 2
 46.9970703125 625 l 1
 134.997070312 625 l 2
 159.6640625 625 180.6640625 616.333007812 197.997070312 599 c 0
 215.330078125 581.666992188 223.997070312 560.666992188 223.997070312 536 c 2
 223.997070312 284 l 2
 224.6640625 266.666992188 229.831054688 254.833984375 239.498046875 248.500976562 c 0
 249.165039062 242.16796875 260.498046875 238.66796875 273.498046875 238.000976562 c 0
 286.498046875 237.333984375 299.498046875 238.666992188 312.498046875 242 c 0
 325.498046875 245.333007812 335.998046875 248.333007812 343.998046875 251 c 1
 343.998046875 625 l 1
 432.998046875 625 l 2
 455.665039062 625 475.33203125 617.5 491.999023438 602.5 c 0
 508.666015625 587.5 518.333007812 568.666992188 521 546 c 2
 521 526 l 1
 521 519 l 1
 521 -3 l 1
EndSplineSet
Validated: 524321
EndChar

StartChar: five
Encoding: 53 53 21
GlifName: five
Width: 550
GlyphClass: 1
Flags: W
LayerCount: 2
Fore
SplineSet
342 545 m 1
 341.997070312 552.000976562 l 2
 340.6640625 559.333984375 337.997070312 566.000976562 333.997070312 572.000976562 c 0
 330.6640625 577.333984375 325.1640625 582.000976562 317.497070312 586.000976562 c 0
 309.830078125 590.000976562 298.997070312 592.333984375 284.997070312 593.000976562 c 2
 282.997070312 593.000976562 l 1
 279.997070312 593.000976562 l 1
 207.997070312 593.000976562 l 1
 207.997070312 403.000976562 l 2
 209.330078125 394.333984375 212.163085938 388.666992188 216.49609375 386 c 0
 220.829101562 383.333007812 224.662109375 381.666015625 227.995117188 380.999023438 c 0
 229.995117188 381.666015625 232.662109375 381.999023438 235.995117188 381.999023438 c 0
 241.328125 381.999023438 246.328125 382.166015625 250.995117188 382.499023438 c 0
 255.662109375 382.83203125 260.662109375 382.999023438 265.995117188 382.999023438 c 0
 320.662109375 382.999023438 363.662109375 376.999023438 394.995117188 364.999023438 c 0
 426.328125 352.999023438 449.828125 339.166015625 465.495117188 323.499023438 c 0
 481.162109375 307.83203125 491.162109375 292.499023438 495.495117188 277.499023438 c 0
 499.828125 262.499023438 502.328125 252.33203125 502.995117188 246.999023438 c 2
 502.995117188 241.999023438 l 2
 502.995117188 239.999023438 503.162109375 235.499023438 503.495117188 228.499023438 c 0
 503.828125 221.499023438 503.995117188 210.83203125 503.995117188 196.499023438 c 2
 503.995117188 137.999023438 l 2
 503.328125 132.666015625 500.828125 122.499023438 496.495117188 107.499023438 c 0
 492.162109375 92.4990234375 482.162109375 77.33203125 466.495117188 61.9990234375 c 0
 450.828125 46.666015625 427.328125 32.9990234375 395.995117188 20.9990234375 c 0
 364.662109375 8.9990234375 321.995117188 2.9990234375 267.995117188 2.9990234375 c 0
 213.328125 2.9990234375 170.328125 8.9990234375 138.995117188 20.9990234375 c 0
 107.662109375 32.9990234375 84.162109375 46.666015625 68.4951171875 61.9990234375 c 0
 52.828125 77.33203125 42.828125 92.4990234375 38.4951171875 107.499023438 c 0
 34.162109375 122.499023438 31.9951171875 132.666015625 31.9951171875 137.999023438 c 0
 31.328125 141.33203125 30.9951171875 145.999023438 30.9951171875 151.999023438 c 0
 30.9951171875 167.999023438 34.328125 181.666015625 40.9951171875 192.999023438 c 0
 48.328125 206.999023438 58.828125 218.33203125 72.4951171875 226.999023438 c 0
 86.162109375 235.666015625 101.662109375 239.999023438 118.995117188 239.999023438 c 0
 136.328125 239.999023438 151.995117188 235.666015625 165.995117188 226.999023438 c 0
 179.995117188 218.33203125 190.662109375 206.999023438 197.995117188 192.999023438 c 0
 204.662109375 179.666015625 207.995117188 165.999023438 207.995117188 151.999023438 c 2
 208.995117188 98.9990234375 l 2
 209.662109375 91.666015625 211.995117188 84.9990234375 215.995117188 78.9990234375 c 0
 219.328125 73.666015625 224.995117188 68.9990234375 232.995117188 64.9990234375 c 0
 240.995117188 60.9990234375 252.328125 58.9990234375 266.995117188 58.9990234375 c 0
 281.662109375 58.9990234375 293.162109375 60.9990234375 301.495117188 64.9990234375 c 0
 309.828125 68.9990234375 315.661132812 73.666015625 318.994140625 78.9990234375 c 0
 322.994140625 84.9990234375 325.327148438 91.666015625 325.994140625 98.9990234375 c 2
 325.994140625 285.999023438 l 2
 325.327148438 293.33203125 322.994140625 299.999023438 318.994140625 305.999023438 c 0
 315.661132812 311.33203125 309.828125 316.165039062 301.495117188 320.498046875 c 0
 293.162109375 324.831054688 281.662109375 326.998046875 266.995117188 326.998046875 c 0
 259.662109375 326.998046875 252.829101562 325.831054688 246.49609375 323.498046875 c 0
 240.163085938 321.165039062 234.663085938 318.665039062 229.99609375 315.998046875 c 0
 223.99609375 313.331054688 218.99609375 309.998046875 214.99609375 305.998046875 c 2
 212.99609375 303.998046875 l 1
 207.99609375 298.998046875 l 2
 204.663085938 295.665039062 200.663085938 291.83203125 195.99609375 287.499023438 c 0
 191.329101562 283.166015625 186.329101562 279.333007812 180.99609375 276 c 0
 179.663085938 274.666992188 178.49609375 273.666992188 177.49609375 273 c 0
 176.49609375 272.333007812 175.329101562 271.333007812 173.99609375 270 c 0
 166.663085938 265.333007812 156.830078125 262 144.497070312 260 c 0
 132.1640625 258 119.331054688 257.333007812 105.998046875 258 c 0
 92.6650390625 258.666992188 79.998046875 261.166992188 67.998046875 265.5 c 0
 55.998046875 269.833007812 46.6650390625 276 39.998046875 284 c 0
 38.6650390625 286 37.33203125 288.333007812 35.9990234375 291 c 0
 33.33203125 296.333007812 31.9990234375 300.333007812 31.9990234375 303 c 0
 31.33203125 305 30.9990234375 308 30.9990234375 312 c 2
 30.9990234375 633 l 1
 429.999023438 633 l 2
 441.999023438 633 453.499023438 630.666992188 464.499023438 626 c 0
 475.499023438 621.333007812 484.999023438 615 492.999023438 607 c 0
 500.999023438 599 507.33203125 589.666992188 511.999023438 579 c 0
 516.666015625 568.333007812 518.999023438 557 518.999023438 545 c 0
 518.999023438 541.666992188 518.83203125 538.666992188 518.499023438 536 c 0
 518.166015625 533.333007812 517.666015625 530.333007812 516.999023438 527 c 0
 512.999023438 507 502.83203125 490.166992188 486.499023438 476.5 c 0
 470.166015625 462.833007812 451.333007812 456 430 456 c 0
 405.333007812 456 384.5 464.5 367.5 481.5 c 0
 350.5 498.5 342 519.333007812 342 544 c 2
 342 545 l 1
EndSplineSet
Validated: 524321
EndChar

StartChar: six
Encoding: 54 54 22
GlifName: six
Width: 550
GlyphClass: 1
Flags: W
LayerCount: 2
Fore
SplineSet
38 496 m 2
 38.6669921875 521.333007812 47.6650390625 544.331054688 64.998046875 564.998046875 c 0
 72.3310546875 573.665039062 81.6640625 582.165039062 92.9970703125 590.498046875 c 0
 104.330078125 598.831054688 118.330078125 606.331054688 134.997070312 612.998046875 c 0
 151.6640625 619.665039062 171.331054688 624.998046875 193.998046875 628.998046875 c 0
 216.665039062 632.998046875 242.998046875 634.998046875 272.998046875 634.998046875 c 0
 327.665039062 634.998046875 370.665039062 628.998046875 401.998046875 616.998046875 c 0
 433.331054688 604.998046875 456.831054688 591.165039062 472.498046875 575.498046875 c 0
 488.165039062 559.831054688 498.165039062 544.498046875 502.498046875 529.498046875 c 0
 506.831054688 514.498046875 509.331054688 504.331054688 509.998046875 498.998046875 c 0
 509.998046875 496.998046875 510.165039062 494.831054688 510.498046875 492.498046875 c 0
 510.831054688 490.165039062 510.998046875 487.998046875 510.998046875 485.998046875 c 0
 510.998046875 461.331054688 502.331054688 440.331054688 484.998046875 422.998046875 c 0
 467.665039062 405.665039062 446.665039062 396.998046875 421.998046875 396.998046875 c 0
 397.331054688 396.998046875 376.498046875 405.665039062 359.498046875 422.998046875 c 0
 342.498046875 440.331054688 333.998046875 461.331054688 333.998046875 485.998046875 c 2
 332.998046875 538.998046875 l 2
 332.331054688 546.331054688 329.998046875 552.998046875 325.998046875 558.998046875 c 0
 322.665039062 564.331054688 316.83203125 568.998046875 308.499023438 572.998046875 c 0
 300.166015625 576.998046875 288.666015625 578.998046875 273.999023438 578.998046875 c 0
 258.666015625 578.998046875 246.999023438 576.831054688 238.999023438 572.498046875 c 0
 230.999023438 568.165039062 225.33203125 563.33203125 221.999023438 557.999023438 c 0
 217.999023438 551.999023438 215.666015625 545.33203125 214.999023438 537.999023438 c 2
 214.999023438 393.999023438 l 1
 232.999023438 395.999023438 252.33203125 396.999023438 272.999023438 396.999023438 c 0
 307.666015625 396.999023438 337.666015625 394.33203125 362.999023438 388.999023438 c 0
 388.33203125 383.666015625 409.665039062 376.999023438 426.998046875 368.999023438 c 0
 444.331054688 360.999023438 458.331054688 351.83203125 468.998046875 341.499023438 c 0
 479.665039062 331.166015625 487.83203125 321.166015625 493.499023438 311.499023438 c 0
 499.166015625 301.83203125 502.999023438 292.83203125 504.999023438 284.499023438 c 0
 506.999023438 276.166015625 508.33203125 269.666015625 508.999023438 264.999023438 c 0
 509.666015625 263.666015625 509.999023438 261.666015625 509.999023438 258.999023438 c 0
 509.999023438 257.666015625 510.166015625 256.166015625 510.499023438 254.499023438 c 0
 510.83203125 252.83203125 510.999023438 251.33203125 510.999023438 249.999023438 c 2
 510.999023438 248.999023438 l 1
 510.999023438 246.999023438 l 1
 510.999023438 152.999023438 l 1
 510.999023438 151.999023438 l 1
 510.999023438 142.999023438 l 2
 509.666015625 116.999023438 500.333007812 93.666015625 483 72.9990234375 c 0
 475.666992188 64.33203125 466.333984375 55.83203125 455.000976562 47.4990234375 c 0
 443.66796875 39.166015625 429.66796875 31.8330078125 413.000976562 25.5 c 0
 396.333984375 19.1669921875 376.666992188 14 354 10 c 0
 331.333007812 6 305 4 275 4 c 0
 220.333007812 4 177.333007812 10 146 22 c 0
 114.666992188 34 91.1669921875 47.6669921875 75.5 63 c 0
 59.8330078125 78.3330078125 49.8330078125 93.5 45.5 108.5 c 0
 41.1669921875 123.5 39 133.666992188 39 139 c 2
 38 496 l 2
273.998046875 341.998046875 m 0
 261.331054688 341.998046875 251.329101562 340.33203125 243.99609375 336.999023438 c 0
 236.663085938 333.666015625 230.830078125 329.999023438 226.497070312 325.999023438 c 0
 222.1640625 321.999023438 219.331054688 317.83203125 217.998046875 313.499023438 c 0
 216.665039062 309.166015625 215.665039062 305.999023438 214.998046875 303.999023438 c 2
 215.998046875 104.999023438 l 1
 215.998046875 99.9990234375 l 2
 216.665039062 92.666015625 218.998046875 85.9990234375 222.998046875 79.9990234375 c 0
 226.331054688 74.666015625 231.998046875 69.9990234375 239.998046875 65.9990234375 c 0
 247.998046875 61.9990234375 259.331054688 59.9990234375 273.998046875 59.9990234375 c 0
 288.665039062 59.9990234375 300.165039062 61.9990234375 308.498046875 65.9990234375 c 0
 316.831054688 69.9990234375 322.6640625 74.666015625 325.997070312 79.9990234375 c 0
 329.997070312 85.9990234375 332.330078125 92.666015625 332.997070312 99.9990234375 c 2
 332.997070312 300.999023438 l 2
 332.330078125 308.33203125 329.997070312 314.999023438 325.997070312 320.999023438 c 0
 322.6640625 326.33203125 316.831054688 331.165039062 308.498046875 335.498046875 c 0
 300.165039062 339.831054688 288.665039062 341.998046875 273.998046875 341.998046875 c 0
EndSplineSet
Validated: 524289
EndChar

StartChar: seven
Encoding: 55 55 23
GlifName: seven
Width: 550
GlyphClass: 1
Flags: W
LayerCount: 2
Fore
SplineSet
513 625 m 0
 517 622.333007812 518.001953125 619.334960938 516.001953125 616.001953125 c 0
 515.334960938 614.668945312 513.66796875 613.3359375 511.000976562 612.002929688 c 0
 511.000976562 611.3359375 510.333984375 610.668945312 509.000976562 610.001953125 c 0
 507.000976562 608.668945312 503.66796875 606.3359375 499.000976562 603.002929688 c 0
 497.66796875 603.002929688 497.000976562 602.3359375 497.000976562 601.002929688 c 2
 357.000976562 38.0029296875 l 2
 353.66796875 25.3359375 347.000976562 15.1689453125 337.000976562 7.501953125 c 0
 327.000976562 -0.1650390625 315.333984375 -3.998046875 302.000976562 -3.998046875 c 2
 152.000976562 -3.998046875 l 1
 156.66796875 -3.998046875 162.500976562 0.001953125 169.500976562 8.001953125 c 0
 176.500976562 16.001953125 181.333984375 22.6689453125 184.000976562 28.001953125 c 0
 191.333984375 44.001953125 199.166992188 64.3349609375 207.5 89.001953125 c 0
 215.833007812 113.668945312 224.333007812 140.501953125 233 169.501953125 c 0
 241.666992188 198.501953125 250.166992188 229.001953125 258.5 261.001953125 c 0
 266.833007812 293.001953125 274.666015625 324.334960938 281.999023438 355.001953125 c 0
 299.33203125 427.001953125 316.999023438 503.668945312 334.999023438 585.001953125 c 1
 269.999023438 585.001953125 l 1
 267.999023438 585.001953125 l 1
 265.999023438 585.001953125 l 2
 251.999023438 584.334960938 240.999023438 582.001953125 232.999023438 578.001953125 c 0
 224.999023438 574.001953125 219.33203125 569.334960938 215.999023438 564.001953125 c 0
 211.999023438 558.001953125 209.666015625 551.334960938 208.999023438 544.001953125 c 2
 208.999023438 537.001953125 l 1
 208.999023438 536.001953125 l 2
 208.999023438 511.334960938 200.33203125 490.501953125 182.999023438 473.501953125 c 0
 165.666015625 456.501953125 144.999023438 448.001953125 120.999023438 448.001953125 c 0
 99.666015625 448.001953125 80.8330078125 454.834960938 64.5 468.501953125 c 0
 48.1669921875 482.168945312 38 499.001953125 34 519.001953125 c 0
 33.3330078125 522.334960938 32.8330078125 525.16796875 32.5 527.500976562 c 0
 32.1669921875 529.833984375 32 532.666992188 32 536 c 0
 32 560.666992188 40.8330078125 581.666992188 58.5 599 c 0
 76.1669921875 616.333007812 97.333984375 625 122.000976562 625 c 2
 509.000976562 626 l 2
 509.66796875 626 510.16796875 625.833007812 510.500976562 625.5 c 0
 510.833984375 625.166992188 511.666992188 625 513 625 c 0
EndSplineSet
Validated: 524289
EndChar

StartChar: eight
Encoding: 56 56 24
GlifName: eight
Width: 550
GlyphClass: 1
Flags: W
LayerCount: 2
Fore
SplineSet
511 421 m 2
 510.333007812 407.666992188 506.99609375 394.33203125 500.99609375 380.999023438 c 0
 495.663085938 369.666015625 487.49609375 357.499023438 476.49609375 344.499023438 c 0
 465.49609375 331.499023438 449.329101562 319.999023438 427.99609375 309.999023438 c 1
 444.663085938 301.999023438 458.330078125 292.83203125 468.997070312 282.499023438 c 0
 479.6640625 272.166015625 487.831054688 262.166015625 493.498046875 252.499023438 c 0
 499.165039062 242.83203125 503.165039062 233.999023438 505.498046875 225.999023438 c 0
 507.831054688 217.999023438 508.998046875 211.666015625 508.998046875 206.999023438 c 0
 509.665039062 205.666015625 509.998046875 203.333007812 509.998046875 200 c 0
 510.665039062 198 510.998046875 194.333007812 510.998046875 189 c 2
 510.998046875 185 l 1
 510.998046875 150 l 1
 510.998046875 148 l 1
 510.998046875 146 l 1
 510.998046875 138 l 2
 509.665039062 112 500.33203125 88.6669921875 482.999023438 68 c 0
 475.666015625 59.3330078125 466.333007812 50.8330078125 455 42.5 c 0
 443.666992188 34.1669921875 429.666992188 26.833984375 413 20.5009765625 c 0
 396.333007812 14.16796875 376.666015625 9.0009765625 353.999023438 5.0009765625 c 0
 331.33203125 1.0009765625 304.999023438 -0.9990234375 274.999023438 -0.9990234375 c 0
 222.999023438 -0.9990234375 181.499023438 4.5009765625 150.499023438 15.5009765625 c 0
 119.499023438 26.5009765625 95.83203125 39.5009765625 79.4990234375 54.5009765625 c 0
 63.166015625 69.5009765625 52.4990234375 84.16796875 47.4990234375 98.5009765625 c 0
 42.4990234375 112.833984375 39.666015625 123.666992188 38.9990234375 131 c 0
 38.9990234375 132.333007812 38.83203125 133.5 38.4990234375 134.5 c 0
 38.166015625 135.5 37.9990234375 136.666992188 37.9990234375 138 c 2
 37.9990234375 147 l 1
 37.9990234375 185 l 1
 37.9990234375 190 l 1
 37.9990234375 200 l 2
 37.9990234375 213.333007812 40.9990234375 226.666015625 46.9990234375 239.999023438 c 0
 52.33203125 251.33203125 60.4990234375 263.33203125 71.4990234375 275.999023438 c 0
 82.4990234375 288.666015625 98.666015625 300.333007812 119.999023438 311 c 1
 102.666015625 319 88.8330078125 328.166992188 78.5 338.5 c 0
 68.1669921875 348.833007812 60.1669921875 358.833007812 54.5 368.5 c 0
 48.8330078125 378.166992188 45 387 43 395 c 0
 41 403 39.6669921875 409.333007812 39 414 c 0
 39 415.333007812 38.8330078125 416.5 38.5 417.5 c 0
 38.1669921875 418.5 38 419.666992188 38 421 c 2
 38 431 l 1
 38 482 l 1
 38 491 l 2
 38.6669921875 516.333007812 47.6669921875 539.333007812 65 560 c 0
 72.3330078125 568.666992188 81.666015625 577.166992188 92.9990234375 585.5 c 0
 104.33203125 593.833007812 118.33203125 601.333007812 134.999023438 608 c 0
 151.666015625 614.666992188 171.333007812 620 194 624 c 0
 216.666992188 628 243 630 273 630 c 0
 327.666992188 630 370.666992188 624 402 612 c 0
 433.333007812 600 456.833007812 586.166992188 472.5 570.5 c 0
 488.166992188 554.833007812 498.166992188 539.5 502.5 524.5 c 0
 506.833007812 509.5 509.333007812 499.333007812 510 494 c 0
 510 492 510.166992188 489.833007812 510.5 487.5 c 0
 510.833007812 485.166992188 511 483 511 481 c 2
 511 478 l 1
 511 433 l 1
 511 431 l 1
 511 421 l 2
332.99609375 242.998046875 m 2
 332.329101562 249.665039062 330.330078125 255.665039062 326.997070312 260.998046875 c 0
 323.6640625 265.665039062 319.1640625 269.998046875 313.497070312 273.998046875 c 0
 307.830078125 277.998046875 299.330078125 280.665039062 287.997070312 281.998046875 c 2
 274.997070312 281.998046875 l 1
 259.997070312 281.998046875 l 2
 248.6640625 280.665039062 240.1640625 277.998046875 234.497070312 273.998046875 c 0
 228.830078125 269.998046875 224.330078125 265.665039062 220.997070312 260.998046875 c 0
 217.6640625 255.665039062 215.6640625 249.665039062 214.997070312 242.998046875 c 2
 215.997070312 94.998046875 l 2
 216.6640625 87.6650390625 218.997070312 80.998046875 222.997070312 74.998046875 c 0
 226.330078125 69.6650390625 231.997070312 64.998046875 239.997070312 60.998046875 c 0
 247.997070312 56.998046875 259.330078125 54.998046875 273.997070312 54.998046875 c 0
 288.6640625 54.998046875 300.1640625 56.998046875 308.497070312 60.998046875 c 0
 316.830078125 64.998046875 322.663085938 69.6650390625 325.99609375 74.998046875 c 0
 329.99609375 80.998046875 332.329101562 87.6650390625 332.99609375 94.998046875 c 2
 332.99609375 242.998046875 l 2
287.997070312 338.998046875 m 2
 297.997070312 340.331054688 305.829101562 342.663085938 311.49609375 345.99609375 c 0
 317.163085938 349.329101562 321.49609375 352.99609375 324.49609375 356.99609375 c 0
 327.49609375 360.99609375 329.663085938 364.829101562 330.99609375 368.49609375 c 0
 332.329101562 372.163085938 332.99609375 374.99609375 332.99609375 376.99609375 c 2
 332.99609375 533.99609375 l 2
 332.329101562 541.329101562 329.99609375 547.99609375 325.99609375 553.99609375 c 0
 322.663085938 559.329101562 316.830078125 563.99609375 308.497070312 567.99609375 c 0
 300.1640625 571.99609375 288.6640625 573.99609375 273.997070312 573.99609375 c 0
 258.6640625 573.99609375 246.997070312 571.829101562 238.997070312 567.49609375 c 0
 230.997070312 563.163085938 225.330078125 558.330078125 221.997070312 552.997070312 c 0
 217.997070312 546.997070312 215.6640625 540.330078125 214.997070312 532.997070312 c 2
 215.997070312 377.997070312 l 2
 215.997070312 371.997070312 217.6640625 366.330078125 220.997070312 360.997070312 c 0
 223.6640625 356.330078125 227.997070312 351.830078125 233.997070312 347.497070312 c 0
 239.997070312 343.1640625 248.6640625 340.331054688 259.997070312 338.998046875 c 2
 272.997070312 338.998046875 l 1
 287.997070312 338.998046875 l 2
EndSplineSet
Validated: 524289
EndChar

StartChar: nine
Encoding: 57 57 25
GlifName: nine
Width: 550
GlyphClass: 1
Flags: W
LayerCount: 2
Fore
SplineSet
511 136 m 2
 509.666992188 110 500.333984375 86.6669921875 483.000976562 66 c 0
 475.66796875 57.3330078125 466.334960938 48.8330078125 455.001953125 40.5 c 0
 443.668945312 32.1669921875 429.668945312 24.833984375 413.001953125 18.5009765625 c 0
 396.334960938 12.16796875 376.66796875 7.0009765625 354.000976562 3.0009765625 c 0
 331.333984375 -0.9990234375 305.000976562 -2.9990234375 275.000976562 -2.9990234375 c 0
 220.333984375 -2.9990234375 177.333984375 3.0009765625 146.000976562 15.0009765625 c 0
 114.66796875 27.0009765625 91.16796875 40.66796875 75.5009765625 56.0009765625 c 0
 59.833984375 71.333984375 49.833984375 86.5009765625 45.5009765625 101.500976562 c 0
 41.16796875 116.500976562 39.0009765625 126.66796875 39.0009765625 132.000976562 c 0
 38.333984375 135.333984375 38.0009765625 140.000976562 38.0009765625 146.000976562 c 0
 38.0009765625 170.66796875 46.5009765625 191.500976562 63.5009765625 208.500976562 c 0
 80.5009765625 225.500976562 101.333984375 234.000976562 126.000976562 234.000976562 c 0
 150.66796875 234.000976562 171.66796875 225.500976562 189.000976562 208.500976562 c 0
 206.333984375 191.500976562 215.000976562 170.66796875 215.000976562 146.000976562 c 2
 216.000976562 93.0009765625 l 2
 216.66796875 85.66796875 219.000976562 79.0009765625 223.000976562 73.0009765625 c 0
 226.333984375 67.66796875 232.000976562 63.0009765625 240.000976562 59.0009765625 c 0
 248.000976562 55.0009765625 259.333984375 53.0009765625 274.000976562 53.0009765625 c 0
 288.66796875 53.0009765625 300.16796875 55.0009765625 308.500976562 59.0009765625 c 0
 316.833984375 63.0009765625 322.666992188 67.66796875 326 73.0009765625 c 0
 330 79.0009765625 332.333007812 85.66796875 333 93.0009765625 c 2
 333 94.0009765625 l 1
 333 237.000976562 l 1
 315 235.000976562 295.666992188 234.000976562 275 234.000976562 c 0
 240.333007812 234.000976562 210.5 236.66796875 185.5 242.000976562 c 0
 160.5 247.333984375 139.333007812 254.166992188 122 262.5 c 0
 104.666992188 270.833007812 90.6669921875 280 80 290 c 0
 69.3330078125 300 61 310 55 320 c 0
 49 330 45 339.166992188 43 347.5 c 0
 41 355.833007812 39.6669921875 362.333007812 39 367 c 0
 39 368.333007812 38.8330078125 369.333007812 38.5 370 c 0
 38.1669921875 370.666992188 38 371.666992188 38 373 c 2
 38 382 l 1
 38 489 l 2
 38.6669921875 514.333007812 47.6669921875 537.333007812 65 558 c 0
 72.3330078125 566.666992188 81.666015625 575.166992188 92.9990234375 583.5 c 0
 104.33203125 591.833007812 118.33203125 599.333007812 134.999023438 606 c 0
 151.666015625 612.666992188 171.333007812 618 194 622 c 0
 216.666992188 626 243 628 273 628 c 0
 327.666992188 628 370.666992188 622 402 610 c 0
 433.333007812 598 456.833007812 584.166992188 472.5 568.5 c 0
 488.166992188 552.833007812 498.166992188 537.5 502.5 522.5 c 0
 506.833007812 507.5 509.333007812 497.333007812 510 492 c 2
 511 136 l 2
274 290 m 0
 286.666992188 290 296.83203125 291.5 304.499023438 294.5 c 0
 312.166015625 297.5 317.999023438 301.166992188 321.999023438 305.5 c 0
 325.999023438 309.833007812 328.83203125 314.166015625 330.499023438 318.499023438 c 0
 332.166015625 322.83203125 332.999023438 325.999023438 332.999023438 327.999023438 c 2
 332.999023438 526.999023438 l 1
 332.999023438 531.999023438 l 2
 332.33203125 539.33203125 329.999023438 545.999023438 325.999023438 551.999023438 c 0
 322.666015625 557.33203125 316.833007812 561.999023438 308.5 565.999023438 c 0
 300.166992188 569.999023438 288.666992188 571.999023438 274 571.999023438 c 0
 258.666992188 571.999023438 247 569.83203125 239 565.499023438 c 0
 231 561.166015625 225.333007812 556.333007812 222 551 c 0
 218 545 215.666992188 538.333007812 215 531 c 2
 216 331 l 2
 216.666992188 323 219 316 223 310 c 0
 226.333007812 304.666992188 232 300 240 296 c 0
 248 292 259.333007812 290 274 290 c 0
EndSplineSet
Validated: 524289
EndChar

StartChar: colon
Encoding: 58 58 26
GlifName: colon
Width: 205
GlyphClass: 1
Flags: W
LayerCount: 2
Fore
SplineSet
172 106 m 0
 172 86 165 69 151 55 c 0
 137 41 120 34 100 34 c 0
 80 34 63 41 49 55 c 0
 35 69 28 86 28 106 c 0
 28 125.333007812 35 142.166015625 49 156.499023438 c 0
 63 170.83203125 80 177.999023438 100 177.999023438 c 0
 120 177.999023438 137 170.83203125 151 156.499023438 c 0
 165 142.166015625 172 125.333007812 172 106 c 0
172 408 m 0
 172 388.666992188 165 371.833984375 151 357.500976562 c 0
 137 343.16796875 120 336.000976562 100 336.000976562 c 0
 80 336.000976562 63 343.16796875 49 357.500976562 c 0
 35 371.833984375 28 388.666992188 28 408 c 0
 28 428 35 445 49 459 c 0
 63 473 80 480 100 480 c 0
 120 480 137 473 151 459 c 0
 165 445 172 428 172 408 c 0
EndSplineSet
Validated: 524289
EndChar

StartChar: semicolon
Encoding: 59 59 27
GlifName: semicolon
Width: 150
GlyphClass: 1
Flags: W
LayerCount: 2
Fore
SplineSet
-6 -59 m 0
 -15.3330078125 -65 -23.4970703125 -71.33203125 -30.4970703125 -77.9990234375 c 0
 -37.4970703125 -84.666015625 -40.830078125 -89.3330078125 -40.4970703125 -92 c 0
 -40.1640625 -94.6669921875 -34.8310546875 -94.1669921875 -24.498046875 -90.5 c 0
 -14.1650390625 -86.8330078125 3.66796875 -77.666015625 29.0009765625 -62.9990234375 c 0
 55.66796875 -48.9990234375 77.16796875 -35.166015625 93.5009765625 -21.4990234375 c 0
 109.833984375 -7.83203125 122.333984375 5.3349609375 131.000976562 18.001953125 c 0
 139.66796875 30.6689453125 145.334960938 42.8359375 148.001953125 54.5029296875 c 0
 150.668945312 66.169921875 151.668945312 76.669921875 151.001953125 86.0029296875 c 0
 152.334960938 94.0029296875 152.16796875 99.8359375 150.500976562 103.502929688 c 0
 148.833984375 107.169921875 148.000976562 110.669921875 148.000976562 114.002929688 c 1
 146.000976562 114.002929688 145.16796875 115.169921875 145.500976562 117.502929688 c 0
 145.833984375 119.8359375 145.333984375 121.668945312 144.000976562 123.001953125 c 0
 134.66796875 141.668945312 120.500976562 154.168945312 101.500976562 160.501953125 c 0
 82.5009765625 166.834960938 64.0009765625 165.66796875 46.0009765625 157.000976562 c 0
 38.66796875 152.333984375 32.16796875 146.166992188 26.5009765625 138.5 c 0
 20.833984375 130.833007812 16.5009765625 122.666015625 13.5009765625 113.999023438 c 0
 10.5009765625 105.33203125 9.16796875 96.4990234375 9.5009765625 87.4990234375 c 0
 9.833984375 78.4990234375 12.6669921875 69.9990234375 18 61.9990234375 c 2
 24 49.9990234375 l 1
 30 37.9990234375 l 1
 34 27.9990234375 l 2
 35.3330078125 24.666015625 36.3330078125 22.3330078125 37 21 c 0
 37.6669921875 15.6669921875 37.6669921875 9.5 37 2.5 c 0
 36.3330078125 -4.5 34.5 -11.8330078125 31.5 -19.5 c 0
 28.5 -27.1669921875 24 -34.5 18 -41.5 c 0
 12 -48.5 4 -54.3330078125 -6 -59 c 0
157.002929688 367.000976562 m 0
 157.002929688 347.000976562 150.002929688 330.000976562 136.002929688 316.000976562 c 0
 122.002929688 302.000976562 105.002929688 295.000976562 85.0029296875 295.000976562 c 0
 65.0029296875 295.000976562 48.0029296875 302.000976562 34.0029296875 316.000976562 c 0
 20.0029296875 330.000976562 13.0029296875 347.000976562 13.0029296875 367.000976562 c 0
 13.0029296875 386.333984375 20.0029296875 403.166992188 34.0029296875 417.5 c 0
 48.0029296875 431.833007812 65.0029296875 439 85.0029296875 439 c 0
 105.002929688 439 122.002929688 431.833007812 136.002929688 417.5 c 0
 150.002929688 403.166992188 157.002929688 386.333984375 157.002929688 367.000976562 c 0
EndSplineSet
Validated: 524329
EndChar

StartChar: equal
Encoding: 61 61 28
GlifName: equal
Width: 833
GlyphClass: 1
Flags: W
LayerCount: 2
Fore
SplineSet
201 204 m 0
 201 225.333007812 208.666992188 243.666015625 224 258.999023438 c 0
 239.333007812 274.33203125 257.666015625 281.999023438 278.999023438 281.999023438 c 2
 543.999023438 281.999023438 l 2
 565.33203125 281.999023438 583.665039062 274.33203125 598.998046875 258.999023438 c 0
 614.331054688 243.666015625 621.998046875 225.333007812 621.998046875 204 c 0
 621.998046875 182.666992188 614.331054688 164.333984375 598.998046875 149.000976562 c 0
 583.665039062 133.66796875 565.33203125 126.000976562 543.999023438 126.000976562 c 2
 278.999023438 126.000976562 l 2
 257.666015625 126.000976562 239.333007812 133.66796875 224 149.000976562 c 0
 208.666992188 164.333984375 201 182.666992188 201 204 c 0
201 502 m 0
 201 523.333007812 208.666992188 541.666015625 224 556.999023438 c 0
 239.333007812 572.33203125 257.666015625 579.999023438 278.999023438 579.999023438 c 2
 543.999023438 579.999023438 l 2
 565.33203125 579.999023438 583.665039062 572.33203125 598.998046875 556.999023438 c 0
 614.331054688 541.666015625 621.998046875 523.333007812 621.998046875 502 c 0
 621.998046875 480.666992188 614.331054688 462.333984375 598.998046875 447.000976562 c 0
 583.665039062 431.66796875 565.33203125 424.000976562 543.999023438 424.000976562 c 2
 278.999023438 424.000976562 l 2
 257.666015625 424.000976562 239.333007812 431.66796875 224 447.000976562 c 0
 208.666992188 462.333984375 201 480.666992188 201 502 c 0
EndSplineSet
Validated: 524289
EndChar

StartChar: question
Encoding: 63 63 29
GlifName: question
Width: 550
GlyphClass: 1
Flags: W
LayerCount: 2
Fore
SplineSet
532 622 m 2
 533.333007812 618 534.004882812 614.668945312 534.004882812 612.001953125 c 2
 534.004882812 606.001953125 l 1
 534.004882812 362.001953125 l 1
 534.004882812 351.001953125 l 1
 533.004882812 352.001953125 l 1
 531.004882812 343.334960938 527.671875 336.66796875 523.004882812 332.000976562 c 0
 515.671875 322.66796875 505.504882812 315.66796875 492.504882812 311.000976562 c 0
 479.504882812 306.333984375 466.004882812 303.666992188 452.004882812 303 c 0
 438.004882812 302.333007812 424.337890625 303.166015625 411.004882812 305.499023438 c 0
 397.671875 307.83203125 387.004882812 311.665039062 379.004882812 316.998046875 c 0
 375.671875 317.665039062 373.004882812 319.33203125 371.004882812 321.999023438 c 0
 365.671875 325.999023438 360.171875 330.499023438 354.504882812 335.499023438 c 0
 348.837890625 340.499023438 344.337890625 344.666015625 341.004882812 347.999023438 c 0
 339.004882812 349.33203125 337.004882812 350.999023438 335.004882812 352.999023438 c 2
 333.004882812 354.999023438 l 2
 327.671875 358.999023438 322.004882812 362.666015625 316.004882812 365.999023438 c 0
 310.671875 369.33203125 304.671875 372.165039062 298.004882812 374.498046875 c 0
 291.337890625 376.831054688 284.337890625 377.998046875 277.004882812 377.998046875 c 0
 261.004882812 377.998046875 248.837890625 375.665039062 240.504882812 370.998046875 c 0
 232.171875 366.331054688 226.004882812 361.331054688 222.004882812 355.998046875 c 0
 217.337890625 349.331054688 214.670898438 341.998046875 214.00390625 333.998046875 c 2
 213.00390625 289.998046875 l 1
 213.00390625 276.998046875 l 2
 213.00390625 261.665039062 209.336914062 246.665039062 202.00390625 231.998046875 c 0
 194.00390625 216.665039062 182.50390625 204.33203125 167.50390625 194.999023438 c 0
 152.50390625 185.666015625 135.670898438 180.999023438 117.00390625 180.999023438 c 0
 98.3369140625 180.999023438 81.50390625 185.666015625 66.50390625 194.999023438 c 0
 51.50390625 204.33203125 40.00390625 216.665039062 32.00390625 231.998046875 c 0
 24.6708984375 246.665039062 21.00390625 261.665039062 21.00390625 276.998046875 c 0
 21.00390625 283.665039062 21.3369140625 288.33203125 22.00390625 290.999023438 c 0
 22.00390625 296.999023438 24.3369140625 307.999023438 29.00390625 323.999023438 c 0
 33.6708984375 339.999023438 44.6708984375 356.499023438 62.00390625 373.499023438 c 0
 79.3369140625 390.499023438 104.836914062 405.499023438 138.50390625 418.499023438 c 0
 172.170898438 431.499023438 218.670898438 437.999023438 278.00390625 437.999023438 c 2
 311.00390625 437.999023438 l 2
 313.00390625 437.33203125 315.670898438 436.999023438 319.00390625 436.999023438 c 0
 323.00390625 437.666015625 327.336914062 439.499023438 332.00390625 442.499023438 c 0
 336.670898438 445.499023438 339.670898438 451.666015625 341.00390625 460.999023438 c 2
 337.00390625 652.999023438 l 2
 336.336914062 660.999023438 333.669921875 668.33203125 329.002929688 674.999023438 c 0
 325.002929688 680.33203125 318.502929688 685.33203125 309.502929688 689.999023438 c 0
 300.502929688 694.666015625 288.002929688 696.999023438 272.002929688 696.999023438 c 0
 255.3359375 696.999023438 242.668945312 694.666015625 234.001953125 689.999023438 c 0
 225.334960938 685.33203125 219.001953125 680.33203125 215.001953125 674.999023438 c 0
 210.334960938 668.33203125 207.66796875 660.999023438 207.000976562 652.999023438 c 2
 206.000976562 594.999023438 l 2
 206.000976562 566.999023438 196.500976562 543.666015625 177.500976562 524.999023438 c 0
 158.500976562 506.33203125 135.333984375 496.999023438 108.000976562 496.999023438 c 0
 80.66796875 496.999023438 57.5009765625 506.33203125 38.5009765625 524.999023438 c 0
 19.5009765625 543.666015625 10.0009765625 566.999023438 10.0009765625 594.999023438 c 0
 10.0009765625 597.666015625 10.16796875 600.166015625 10.5009765625 602.499023438 c 0
 10.833984375 604.83203125 11.0009765625 606.999023438 11.0009765625 608.999023438 c 0
 11.0009765625 612.999023438 12.0009765625 619.499023438 14.0009765625 628.499023438 c 0
 16.0009765625 637.499023438 20.0009765625 647.666015625 26.0009765625 658.999023438 c 0
 32.0009765625 670.33203125 40.66796875 681.83203125 52.0009765625 693.499023438 c 0
 63.333984375 705.166015625 78.6669921875 715.833007812 98 725.5 c 0
 117.333007812 735.166992188 141.333007812 743.166992188 170 749.5 c 0
 198.666992188 755.833007812 233 759 273 759 c 0
 285.666992188 759 297.5 758.666992188 308.5 758 c 0
 319.5 757.333007812 330.333007812 756.333007812 341 755 c 0
 378.333007812 751 408.833007812 743.5 432.5 732.5 c 0
 456.166992188 721.5 475 709.5 489 696.5 c 0
 503 683.5 513.166992188 670.5 519.5 657.5 c 0
 525.833007812 644.5 530 633.333007812 532 624 c 2
 532 622 l 2
117.004882812 165.001953125 m 0
 140.337890625 165.001953125 160.004882812 157.001953125 176.004882812 141.001953125 c 0
 192.004882812 125.001953125 200.004882812 105.334960938 200.004882812 82.001953125 c 0
 200.004882812 58.6689453125 192.004882812 38.8359375 176.004882812 22.5029296875 c 0
 160.004882812 6.169921875 140.337890625 -1.9970703125 117.004882812 -1.9970703125 c 0
 93.671875 -1.9970703125 73.8388671875 6.169921875 57.505859375 22.5029296875 c 0
 41.1728515625 38.8359375 33.005859375 58.6689453125 33.005859375 82.001953125 c 0
 33.005859375 105.334960938 41.1728515625 125.001953125 57.505859375 141.001953125 c 0
 73.8388671875 157.001953125 93.671875 165.001953125 117.004882812 165.001953125 c 0
EndSplineSet
Validated: 524321
EndChar

StartChar: A
Encoding: 65 65 31
GlifName: A_
Width: 550
GlyphClass: 1
Flags: W
LayerCount: 2
Fore
SplineSet
525 16 m 0
 528.333007812 14 530.006835938 11.0029296875 530.006835938 7.0029296875 c 0
 530.006835938 1.0029296875 526.673828125 -1.9970703125 520.006835938 -1.9970703125 c 2
 511.006835938 -1.9970703125 l 1
 334.006835938 -1.9970703125 l 1
 334.006835938 278.002929688 l 2
 330.673828125 282.002929688 327.506835938 285.502929688 324.506835938 288.502929688 c 0
 321.506835938 291.502929688 318.006835938 293.669921875 314.006835938 295.002929688 c 2
 235.006835938 295.002929688 l 2
 228.33984375 292.3359375 221.672851562 286.668945312 215.005859375 278.001953125 c 1
 215.005859375 -1.998046875 l 1
 38.005859375 -1.998046875 l 1
 29.005859375 -1.998046875 l 2
 22.3388671875 -1.998046875 19.005859375 1.001953125 19.005859375 7.001953125 c 0
 19.005859375 11.001953125 20.6728515625 14.001953125 24.005859375 16.001953125 c 0
 25.3388671875 16.6689453125 27.671875 18.501953125 31.0048828125 21.501953125 c 0
 34.337890625 24.501953125 36.6708984375 29.3349609375 38.00390625 36.001953125 c 2
 38.00390625 490.001953125 l 2
 38.00390625 491.334960938 38.1708984375 494.16796875 38.50390625 498.500976562 c 0
 38.8369140625 502.833984375 40.00390625 508.333984375 42.00390625 515.000976562 c 0
 44.6708984375 525.000976562 50.1708984375 536.66796875 58.50390625 550.000976562 c 0
 66.8369140625 563.333984375 79.669921875 575.833984375 97.0029296875 587.500976562 c 0
 114.3359375 599.16796875 137.168945312 609.000976562 165.501953125 617.000976562 c 0
 193.834960938 625.000976562 230.001953125 629.000976562 274.001953125 629.000976562 c 0
 296.001953125 629.000976562 316.001953125 628.000976562 334.001953125 626.000976562 c 0
 374.001953125 621.333984375 405.668945312 612.666992188 429.001953125 600 c 0
 452.334960938 587.333007812 470.001953125 574 482.001953125 560 c 0
 494.001953125 546 501.668945312 532.5 505.001953125 519.5 c 0
 508.334960938 506.5 510.001953125 497.666992188 510.001953125 493 c 0
 510.668945312 491 511.001953125 488.833007812 511.001953125 486.5 c 2
 511.001953125 480 l 1
 511.001953125 36 l 2
 512.334960938 29.3330078125 514.66796875 24.5 518.000976562 21.5 c 0
 521.333984375 18.5 523.666992188 16.6669921875 525 16 c 0
274.006835938 573.002929688 m 0
 259.33984375 573.002929688 248.006835938 570.834960938 240.006835938 566.501953125 c 0
 232.006835938 562.168945312 226.33984375 557.3359375 223.006835938 552.002929688 c 0
 218.33984375 546.002929688 215.672851562 539.3359375 215.005859375 532.002929688 c 2
 215.005859375 345.002929688 l 1
 334.005859375 345.002929688 l 1
 333.005859375 533.002929688 l 2
 332.338867188 540.3359375 330.005859375 547.002929688 326.005859375 553.002929688 c 0
 322.672851562 558.3359375 316.83984375 563.002929688 308.506835938 567.002929688 c 0
 300.173828125 571.002929688 288.673828125 573.002929688 274.006835938 573.002929688 c 0
EndSplineSet
Validated: 524289
EndChar

StartChar: B
Encoding: 66 66 32
GlifName: B_
Width: 550
GlyphClass: 1
Flags: W
LayerCount: 2
Fore
SplineSet
514 258 m 0
 515.333007812 252.666992188 516.333007812 247.831054688 517 243.498046875 c 0
 517.666992188 239.165039062 518.333984375 235.665039062 519.000976562 232.998046875 c 0
 519.000976562 230.998046875 519.16796875 228.831054688 519.500976562 226.498046875 c 0
 519.833984375 224.165039062 520.000976562 221.998046875 520.000976562 219.998046875 c 2
 520.000976562 136.998046875 l 2
 520.000976562 135.665039062 519.500976562 131.498046875 518.500976562 124.498046875 c 0
 517.500976562 117.498046875 515.000976562 108.998046875 511.000976562 98.998046875 c 0
 507.000976562 88.998046875 500.16796875 78.1650390625 490.500976562 66.498046875 c 0
 480.833984375 54.8310546875 467.333984375 43.998046875 450.000976562 33.998046875 c 0
 432.66796875 23.998046875 410.500976562 15.6650390625 383.500976562 8.998046875 c 0
 356.500976562 2.3310546875 323.333984375 -1.001953125 284.000976562 -1.001953125 c 2
 270.500976562 -1.001953125 l 1
 239.000976562 -1.001953125 l 2
 223.66796875 -1.001953125 201.000976562 -0.8349609375 171.000976562 -0.501953125 c 0
 141.000976562 -0.1689453125 99.66796875 -0.001953125 47.0009765625 -0.001953125 c 1
 47.0009765625 588.998046875 l 2
 46.333984375 596.331054688 44.1669921875 601.831054688 40.5 605.498046875 c 0
 36.8330078125 609.165039062 34.3330078125 611.33203125 33 611.999023438 c 0
 29.6669921875 613.999023438 28 616.666015625 28 619.999023438 c 0
 28 626.666015625 31 629.999023438 37 629.999023438 c 2
 47 629.999023438 l 1
 290 629.999023438 l 2
 342.666992188 629.33203125 384 622.83203125 414 610.499023438 c 0
 444 598.166015625 466.833007812 584.333007812 482.5 569 c 0
 498.166992188 553.666992188 508 538.666992188 512 524 c 0
 516 509.333007812 518.333007812 499.333007812 519 494 c 0
 519 492 519.166992188 489.833007812 519.5 487.5 c 0
 519.833007812 485.166992188 520 483 520 481 c 2
 520 463 l 1
 520 453 l 2
 519.333007812 439 516 425.333007812 510 412 c 0
 504.666992188 400.666992188 496.166992188 388.5 484.5 375.5 c 0
 472.833007812 362.5 456 351 434 341 c 1
 460 329 478.833007812 315.333007812 490.5 300 c 0
 502.166992188 284.666992188 510 270.666992188 514 258 c 0
342 533.997070312 m 2
 341.333007812 541.330078125 339 547.997070312 335 553.997070312 c 0
 331.666992188 559.330078125 325.833984375 563.997070312 317.500976562 567.997070312 c 0
 309.16796875 571.997070312 297.66796875 573.997070312 283.000976562 573.997070312 c 2
 224.000976562 573.997070312 l 1
 225.000976562 369.997070312 l 1
 283.000976562 369.997070312 l 2
 297.66796875 369.997070312 309.16796875 371.997070312 317.500976562 375.997070312 c 0
 325.833984375 379.997070312 331.666992188 384.6640625 335 389.997070312 c 0
 339 395.997070312 341.333007812 402.997070312 342 410.997070312 c 2
 342 533.997070312 l 2
342 98.9970703125 m 1
 342 240.997070312 l 1
 342 272.997070312 l 2
 341.333007812 280.330078125 339 286.997070312 335 292.997070312 c 0
 331.666992188 298.330078125 325.833984375 302.997070312 317.500976562 306.997070312 c 0
 309.16796875 310.997070312 297.66796875 312.997070312 283.000976562 312.997070312 c 2
 224.000976562 312.997070312 l 1
 224.000976562 222.997070312 l 1
 224.000976562 147.997070312 l 1
 225.000976562 54.9970703125 l 1
 283.000976562 54.9970703125 l 2
 297.66796875 54.9970703125 309.16796875 56.9970703125 317.500976562 60.9970703125 c 0
 325.833984375 64.9970703125 331.666992188 69.6640625 335 74.9970703125 c 0
 339 80.9970703125 341.333007812 87.6640625 342 94.9970703125 c 2
 342 98.9970703125 l 1
EndSplineSet
Validated: 524289
EndChar

StartChar: C
Encoding: 67 67 33
GlifName: C_
Width: 550
GlyphClass: 1
Flags: W
LayerCount: 2
Fore
SplineSet
511 138 m 2
 509.666992188 112 500.331054688 88.6630859375 482.998046875 67.99609375 c 0
 475.665039062 59.3291015625 466.33203125 50.8291015625 454.999023438 42.49609375 c 0
 443.666015625 34.1630859375 429.666015625 26.830078125 412.999023438 20.4970703125 c 0
 396.33203125 14.1640625 376.665039062 8.9970703125 353.998046875 4.9970703125 c 0
 331.331054688 0.9970703125 304.998046875 -1.0029296875 274.998046875 -1.0029296875 c 0
 252.998046875 -1.0029296875 232.998046875 -0.0029296875 214.998046875 1.9970703125 c 0
 174.998046875 6.6640625 143.331054688 15.3310546875 119.998046875 27.998046875 c 0
 96.6650390625 40.6650390625 78.998046875 53.998046875 66.998046875 67.998046875 c 0
 54.998046875 81.998046875 47.3310546875 95.3310546875 43.998046875 107.998046875 c 0
 40.6650390625 120.665039062 38.998046875 129.33203125 38.998046875 133.999023438 c 0
 38.3310546875 137.33203125 37.998046875 141.999023438 37.998046875 147.999023438 c 2
 37.998046875 491.999023438 l 2
 37.998046875 493.999023438 38.3310546875 498.83203125 38.998046875 506.499023438 c 0
 39.6650390625 514.166015625 42.6650390625 523.333007812 47.998046875 534 c 0
 52.6650390625 544 59.83203125 554.833007812 69.4990234375 566.5 c 0
 79.166015625 578.166992188 92.8330078125 588.666992188 110.5 598 c 0
 128.166992188 607.333007812 150.166992188 615.166015625 176.5 621.499023438 c 0
 202.833007812 627.83203125 235 630.999023438 273 630.999023438 c 0
 327.666992188 630.999023438 370.666992188 624.999023438 402 612.999023438 c 0
 433.333007812 600.999023438 456.833007812 587.166015625 472.5 571.499023438 c 0
 488.166992188 555.83203125 498.166992188 540.499023438 502.5 525.499023438 c 0
 506.833007812 510.499023438 509.333007812 500.33203125 510 494.999023438 c 0
 510 492.999023438 510.166992188 490.83203125 510.5 488.499023438 c 0
 510.833007812 486.166015625 511 483.999023438 511 481.999023438 c 0
 511 457.33203125 502.333007812 436.33203125 485 418.999023438 c 0
 467.666992188 401.666015625 446.666992188 392.999023438 422 392.999023438 c 0
 397.333007812 392.999023438 376.5 401.666015625 359.5 418.999023438 c 0
 342.5 436.33203125 334 457.33203125 334 481.999023438 c 2
 333 534.999023438 l 2
 332.333007812 542.33203125 330 548.999023438 326 554.999023438 c 0
 322.666992188 560.33203125 316.833984375 564.999023438 308.500976562 568.999023438 c 0
 300.16796875 572.999023438 288.66796875 574.999023438 274.000976562 574.999023438 c 0
 258.66796875 574.999023438 247.000976562 572.83203125 239.000976562 568.499023438 c 0
 231.000976562 564.166015625 225.333984375 559.333007812 222.000976562 554 c 0
 218.000976562 548 215.66796875 541.333007812 215.000976562 534 c 2
 215.000976562 125 l 1
 216.000976562 95 l 2
 216.66796875 87.6669921875 219.000976562 81 223.000976562 75 c 0
 226.333984375 69.6669921875 232.000976562 65 240.000976562 61 c 0
 248.000976562 57 259.333984375 55 274.000976562 55 c 0
 288.66796875 55 300.16796875 57 308.500976562 61 c 0
 316.833984375 65 322.666992188 69.6669921875 326 75 c 0
 330 81 332.333007812 87.6669921875 333 95 c 2
 334 150 l 2
 334.666992188 174 343.5 194.333007812 360.5 211 c 0
 377.5 227.666992188 398 236 422 236 c 0
 446.666992188 236 467.666992188 227.5 485 210.5 c 0
 502.333007812 193.5 511 172.666992188 511 148 c 2
 511 138 l 2
EndSplineSet
Validated: 524289
EndChar

StartChar: D
Encoding: 68 68 34
GlifName: D_
Width: 550
GlyphClass: 1
Flags: W
LayerCount: 2
Fore
SplineSet
510 535 m 0
 515.333007812 524.333007812 518.499023438 515.166992188 519.499023438 507.5 c 0
 520.499023438 499.833007812 520.999023438 495 520.999023438 493 c 2
 520.999023438 149 l 2
 520.999023438 146.333007812 520.83203125 144 520.499023438 142 c 0
 520.166015625 140 519.999023438 137.666992188 519.999023438 135 c 0
 519.33203125 130.333007812 517.33203125 121.666015625 513.999023438 108.999023438 c 0
 510.666015625 96.33203125 502.999023438 82.9990234375 490.999023438 68.9990234375 c 0
 478.999023438 54.9990234375 461.33203125 41.666015625 437.999023438 28.9990234375 c 0
 414.666015625 16.33203125 382.999023438 7.6650390625 342.999023438 2.998046875 c 0
 324.999023438 0.998046875 304.999023438 -0.001953125 282.999023438 -0.001953125 c 2
 277.499023438 -0.001953125 l 1
 250.499023438 -0.001953125 l 2
 235.499023438 -0.001953125 212.166015625 0.1650390625 180.499023438 0.498046875 c 0
 148.83203125 0.8310546875 104.33203125 0.998046875 46.9990234375 0.998046875 c 1
 46.9990234375 589.998046875 l 2
 46.33203125 597.331054688 44.1650390625 602.831054688 40.498046875 606.498046875 c 0
 36.8310546875 610.165039062 34.3310546875 612.33203125 32.998046875 612.999023438 c 0
 29.6650390625 614.999023438 27.998046875 617.666015625 27.998046875 620.999023438 c 0
 27.998046875 627.666015625 31.3310546875 630.999023438 37.998046875 630.999023438 c 2
 46.998046875 630.999023438 l 1
 284.998046875 631.999023438 l 2
 322.998046875 631.999023438 355.165039062 628.83203125 381.498046875 622.499023438 c 0
 407.831054688 616.166015625 429.831054688 608.333007812 447.498046875 599 c 0
 465.165039062 589.666992188 478.83203125 579.166992188 488.499023438 567.5 c 0
 498.166015625 555.833007812 505.333007812 545 510 535 c 0
342.999023438 126.000976562 m 1
 342.999023438 535.001953125 l 2
 342.33203125 542.334960938 339.999023438 549.001953125 335.999023438 555.001953125 c 0
 332.666015625 560.334960938 326.833007812 565.16796875 318.5 569.500976562 c 0
 310.166992188 573.833984375 298.666992188 576.000976562 284 576.000976562 c 2
 226 576.000976562 l 1
 225 56.0009765625 l 1
 284 56.0009765625 l 2
 298.666992188 56.0009765625 310.166992188 58.0009765625 318.5 62.0009765625 c 0
 326.833007812 66.0009765625 332.666015625 70.66796875 335.999023438 76.0009765625 c 0
 339.999023438 82.0009765625 342.33203125 88.66796875 342.999023438 96.0009765625 c 2
 342.999023438 126.000976562 l 1
EndSplineSet
Validated: 524289
EndChar

StartChar: E
Encoding: 69 69 35
GlifName: E_
Width: 550
GlyphClass: 1
Flags: W
LayerCount: 2
Fore
SplineSet
432 237 m 0
 456.666992188 237 477.666015625 228.502929688 494.999023438 211.502929688 c 0
 512.33203125 194.502929688 520.999023438 173.669921875 520.999023438 149.002929688 c 0
 520.999023438 146.3359375 520.83203125 144.002929688 520.499023438 142.002929688 c 0
 520.166015625 140.002929688 519.999023438 137.669921875 519.999023438 135.002929688 c 0
 519.33203125 130.3359375 517.33203125 121.668945312 513.999023438 109.001953125 c 0
 510.666015625 96.3349609375 502.999023438 83.001953125 490.999023438 69.001953125 c 0
 478.999023438 55.001953125 461.33203125 41.6689453125 437.999023438 29.001953125 c 0
 414.666015625 16.3349609375 382.999023438 7.66796875 342.999023438 3.0009765625 c 0
 324.999023438 1.0009765625 304.999023438 0.0009765625 282.999023438 0.0009765625 c 2
 161.999023438 0.0009765625 l 2
 127.999023438 0.0009765625 89.666015625 0.333984375 46.9990234375 1.0009765625 c 1
 46.9990234375 590.000976562 l 2
 46.33203125 597.333984375 44.1650390625 602.833984375 40.498046875 606.500976562 c 0
 36.8310546875 610.16796875 34.3310546875 612.334960938 32.998046875 613.001953125 c 0
 29.6650390625 615.001953125 27.998046875 617.668945312 27.998046875 621.001953125 c 0
 27.998046875 627.668945312 31.3310546875 631.001953125 37.998046875 631.001953125 c 2
 46.998046875 631.001953125 l 1
 284.998046875 632.001953125 l 2
 322.998046875 632.001953125 355.165039062 628.834960938 381.498046875 622.501953125 c 0
 407.831054688 616.168945312 429.831054688 608.3359375 447.498046875 599.002929688 c 0
 465.165039062 589.669921875 478.83203125 579.169921875 488.499023438 567.502929688 c 0
 498.166015625 555.8359375 505.333007812 545.002929688 510 535.002929688 c 0
 515.333007812 524.3359375 518.5 515.168945312 519.5 507.501953125 c 0
 520.5 499.834960938 521 495.001953125 521 493.001953125 c 2
 521 483.001953125 l 2
 521 458.334960938 512.333007812 437.334960938 495 420.001953125 c 0
 477.666992188 402.668945312 456.666992188 394.001953125 432 394.001953125 c 0
 408 394.001953125 387.5 402.501953125 370.5 419.501953125 c 0
 353.5 436.501953125 344.666992188 456.668945312 344 480.001953125 c 2
 343 535.001953125 l 2
 342.333007812 542.334960938 340 549.001953125 336 555.001953125 c 0
 332.666992188 560.334960938 326.833984375 565.16796875 318.500976562 569.500976562 c 0
 310.16796875 573.833984375 298.66796875 576.000976562 284.000976562 576.000976562 c 2
 226.000976562 576.000976562 l 1
 224.000976562 326.000976562 l 1
 259.000976562 326.000976562 l 2
 264.333984375 326.000976562 268.500976562 327.500976562 271.500976562 330.500976562 c 0
 274.500976562 333.500976562 277.333984375 337.333984375 280.000976562 342.000976562 c 0
 281.333984375 347.333984375 283.000976562 351.000976562 285.000976562 353.000976562 c 0
 289.66796875 357.66796875 294.66796875 360.000976562 300.000976562 360.000976562 c 2
 312.000976562 360.000976562 l 2
 317.333984375 360.000976562 322.333984375 357.66796875 327.000976562 353.000976562 c 0
 331.000976562 349.66796875 333.000976562 345.000976562 333.000976562 339.000976562 c 2
 333.000976562 241.000976562 l 2
 333.000976562 237.000976562 331.333984375 232.66796875 328.000976562 228.000976562 c 0
 323.333984375 223.333984375 318.000976562 221.000976562 312.000976562 221.000976562 c 2
 300.000976562 221.000976562 l 2
 293.333984375 221.000976562 287.666992188 224.333984375 283 231.000976562 c 0
 281.666992188 232.333984375 281 233.666992188 281 235 c 0
 278.333007812 240.333007812 275.333007812 244.5 272 247.5 c 0
 268.666992188 250.5 264.333984375 252 259.000976562 252 c 2
 224.000976562 252 l 1
 225.000976562 56 l 1
 284.000976562 56 l 2
 298.66796875 56 310.16796875 58 318.500976562 62 c 0
 326.833984375 66 332.666992188 70.6669921875 336 76 c 0
 340 82 342.333007812 88.6669921875 343 96 c 2
 343 126 l 1
 344 149 l 2
 344 173.666992188 352.5 194.5 369.5 211.5 c 0
 386.5 228.5 407.333007812 237 432 237 c 0
EndSplineSet
Validated: 524289
EndChar

StartChar: F
Encoding: 70 70 36
GlifName: F_
Width: 550
GlyphClass: 1
Flags: W
LayerCount: 2
Fore
SplineSet
510 535 m 0
 515.333007812 524.333007812 518.499023438 515.166015625 519.499023438 507.499023438 c 0
 520.499023438 499.83203125 520.999023438 494.999023438 520.999023438 492.999023438 c 2
 520.999023438 482.999023438 l 2
 520.999023438 458.33203125 512.33203125 437.33203125 494.999023438 419.999023438 c 0
 477.666015625 402.666015625 456.666015625 393.999023438 431.999023438 393.999023438 c 0
 407.999023438 393.999023438 387.499023438 402.499023438 370.499023438 419.499023438 c 0
 353.499023438 436.499023438 344.666015625 456.666015625 343.999023438 479.999023438 c 2
 342.999023438 534.999023438 l 2
 342.33203125 542.33203125 339.999023438 548.999023438 335.999023438 554.999023438 c 0
 332.666015625 560.33203125 326.833007812 565.165039062 318.5 569.498046875 c 0
 310.166992188 573.831054688 298.666992188 575.998046875 284 575.998046875 c 2
 226 575.998046875 l 1
 224 317.998046875 l 1
 273 317.998046875 l 2
 289.666992188 317.998046875 300 325.331054688 304 339.998046875 c 0
 305.333007812 343.331054688 306.5 346.331054688 307.5 348.998046875 c 0
 308.5 351.665039062 310 354.33203125 312 356.999023438 c 0
 318.666992188 363.666015625 326 366.999023438 334 366.999023438 c 2
 351 366.999023438 l 2
 360.333007812 366.999023438 367.666015625 363.666015625 372.999023438 356.999023438 c 0
 378.33203125 351.666015625 380.999023438 344.999023438 380.999023438 336.999023438 c 2
 380.999023438 193.999023438 l 2
 380.999023438 187.33203125 378.666015625 180.665039062 373.999023438 173.998046875 c 0
 367.33203125 167.331054688 359.665039062 163.998046875 350.998046875 163.998046875 c 2
 333.998046875 163.998046875 l 2
 323.331054688 163.998046875 314.998046875 168.665039062 308.998046875 177.998046875 c 2
 305.998046875 183.998046875 l 2
 301.998046875 191.331054688 297.498046875 197.331054688 292.498046875 201.998046875 c 0
 287.498046875 206.665039062 280.998046875 208.998046875 272.998046875 208.998046875 c 2
 223.998046875 208.998046875 l 1
 223.998046875 0.998046875 l 1
 46.998046875 0.998046875 l 1
 46.998046875 589.998046875 l 2
 46.3310546875 597.331054688 44.1640625 602.831054688 40.4970703125 606.498046875 c 0
 36.830078125 610.165039062 34.330078125 612.33203125 32.9970703125 612.999023438 c 0
 29.6640625 614.999023438 27.9970703125 617.666015625 27.9970703125 620.999023438 c 0
 27.9970703125 627.666015625 31.330078125 630.999023438 37.9970703125 630.999023438 c 2
 46.9970703125 630.999023438 l 1
 160.997070312 630.999023438 l 1
 203.997070312 630.999023438 l 2
 217.997070312 630.999023438 230.830078125 631.166015625 242.497070312 631.499023438 c 0
 254.1640625 631.83203125 263.831054688 631.999023438 271.498046875 631.999023438 c 2
 284.998046875 631.999023438 l 2
 322.998046875 631.999023438 355.165039062 628.83203125 381.498046875 622.499023438 c 0
 407.831054688 616.166015625 429.831054688 608.333007812 447.498046875 599 c 0
 465.165039062 589.666992188 478.83203125 579.166992188 488.499023438 567.5 c 0
 498.166015625 555.833007812 505.333007812 545 510 535 c 0
EndSplineSet
Validated: 524289
EndChar

StartChar: G
Encoding: 71 71 37
GlifName: G_
Width: 550
GlyphClass: 1
Flags: W
LayerCount: 2
Fore
SplineSet
511 138 m 2
 509.666992188 112 500.331054688 88.6630859375 482.998046875 67.99609375 c 0
 475.665039062 59.3291015625 466.33203125 50.8291015625 454.999023438 42.49609375 c 0
 443.666015625 34.1630859375 429.666015625 26.830078125 412.999023438 20.4970703125 c 0
 396.33203125 14.1640625 376.665039062 8.9970703125 353.998046875 4.9970703125 c 0
 331.331054688 0.9970703125 304.998046875 -1.0029296875 274.998046875 -1.0029296875 c 0
 252.998046875 -1.0029296875 232.998046875 -0.0029296875 214.998046875 1.9970703125 c 0
 174.998046875 6.6640625 143.331054688 15.3310546875 119.998046875 27.998046875 c 0
 96.6650390625 40.6650390625 78.998046875 53.998046875 66.998046875 67.998046875 c 0
 54.998046875 81.998046875 47.3310546875 95.3310546875 43.998046875 107.998046875 c 0
 40.6650390625 120.665039062 38.998046875 129.33203125 38.998046875 133.999023438 c 0
 38.998046875 134.666015625 38.8310546875 135.999023438 38.498046875 137.999023438 c 0
 38.1650390625 139.999023438 37.998046875 144.499023438 37.998046875 151.499023438 c 2
 37.998046875 183.999023438 l 1
 37.998046875 245.499023438 l 1
 37.998046875 344.999023438 l 1
 37.998046875 491.999023438 l 2
 37.998046875 493.999023438 38.3310546875 498.83203125 38.998046875 506.499023438 c 0
 39.6650390625 514.166015625 42.6650390625 523.333007812 47.998046875 534 c 0
 52.6650390625 544 59.83203125 554.833007812 69.4990234375 566.5 c 0
 79.166015625 578.166992188 92.8330078125 588.666992188 110.5 598 c 0
 128.166992188 607.333007812 150.166992188 615.166015625 176.5 621.499023438 c 0
 202.833007812 627.83203125 235 630.999023438 273 630.999023438 c 0
 327.666992188 630.999023438 370.666992188 624.999023438 402 612.999023438 c 0
 433.333007812 600.999023438 456.833007812 587.166015625 472.5 571.499023438 c 0
 488.166992188 555.83203125 498.166992188 540.499023438 502.5 525.499023438 c 0
 506.833007812 510.499023438 509.333007812 500.33203125 510 494.999023438 c 0
 510 492.999023438 510.166992188 490.83203125 510.5 488.499023438 c 0
 510.833007812 486.166015625 511 483.666015625 511 480.999023438 c 0
 510.333007812 456.999023438 501.5 436.499023438 484.5 419.499023438 c 0
 467.5 402.499023438 447 393.666015625 423 392.999023438 c 0
 398.333007812 392.999023438 377.333007812 401.666015625 360 418.999023438 c 0
 342.666992188 436.33203125 334 457.33203125 334 481.999023438 c 2
 333 534.999023438 l 2
 332.333007812 542.33203125 330 548.999023438 326 554.999023438 c 0
 322.666992188 560.33203125 316.833984375 564.999023438 308.500976562 568.999023438 c 0
 300.16796875 572.999023438 288.66796875 574.999023438 274.000976562 574.999023438 c 0
 258.66796875 574.999023438 247.000976562 572.83203125 239.000976562 568.499023438 c 0
 231.000976562 564.166015625 225.333984375 559.333007812 222.000976562 554 c 0
 218.000976562 548 215.66796875 541.333007812 215.000976562 534 c 2
 216.000976562 95 l 2
 216.66796875 87.6669921875 219.000976562 81 223.000976562 75 c 0
 226.333984375 69.6669921875 232.000976562 65 240.000976562 61 c 0
 248.000976562 57 259.333984375 55 274.000976562 55 c 0
 288.66796875 55 300.16796875 57 308.500976562 61 c 0
 316.833984375 65 322.666992188 69.6669921875 326 75 c 0
 330 81 332.333007812 87.6669921875 333 95 c 2
 334 132 l 1
 334 276 l 1
 271 276 l 1
 271 315 l 1
 490 315 l 2
 495.333007812 315 500 313 504 309 c 0
 508 305 510 300.333007812 510 295 c 2
 511 148 l 1
 511 138 l 2
EndSplineSet
Validated: 524289
EndChar

StartChar: H
Encoding: 72 72 38
GlifName: H_
Width: 550
GlyphClass: 1
Flags: W
LayerCount: 2
Fore
SplineSet
525 14 m 1
 528.333007812 12.6669921875 530 9.9990234375 530 5.9990234375 c 0
 530 -0.66796875 526.666992188 -4.0009765625 520 -4.0009765625 c 2
 511 -4.0009765625 l 1
 422 -4.0009765625 l 1
 334 -4.0009765625 l 1
 334 -3.0009765625 l 1
 334 -4.0009765625 l 1
 325 -4.0009765625 l 1
 324 -4.0009765625 l 2
 318 -4.0009765625 315 -0.66796875 315 5.9990234375 c 0
 315 9.9990234375 316.666992188 12.666015625 320 13.9990234375 c 2
 320 14.9990234375 l 2
 321.333007812 15.666015625 324 17.666015625 328 20.9990234375 c 0
 332 24.33203125 334 30.33203125 334 38.9990234375 c 2
 334 279.999023438 l 1
 328 287.999023438 321.666992188 292.999023438 315 294.999023438 c 2
 237 294.999023438 l 2
 231.666992188 293.666015625 227.5 291.333007812 224.5 288 c 0
 221.5 284.666992188 218.333007812 280.666992188 215 276 c 2
 215 39 l 2
 215 30.3330078125 217 24.3330078125 221 21 c 0
 225 17.6669921875 227.666992188 15.6669921875 229 15 c 2
 229 14 l 2
 232.333007812 12.6669921875 234 10 234 6 c 0
 234 -0.6669921875 231 -4 225 -4 c 2
 215 -4 l 1
 127 -4 l 1
 39 -4 l 1
 39 -3 l 1
 38 -4 l 1
 29 -4 l 2
 22.3330078125 -4 19 -0.6669921875 19 6 c 0
 19 10 20.6669921875 12.6669921875 24 14 c 2
 25 15 l 2
 25.6669921875 15.6669921875 28 17.6669921875 32 21 c 0
 36 24.3330078125 38 30.3330078125 38 39 c 2
 38 42 l 1
 38 60 l 1
 38 108 l 1
 38 201.5 l 1
 38 355 l 1
 38 584 l 2
 38 592.666992188 36 598.833984375 32 602.500976562 c 0
 28 606.16796875 25.6669921875 608.334960938 25 609.001953125 c 2
 24 609.001953125 l 2
 20.6669921875 611.001953125 19 613.668945312 19 617.001953125 c 0
 19 623.668945312 22.3330078125 627.001953125 29 627.001953125 c 2
 38 627.001953125 l 1
 215 627.001953125 l 1
 225 627.001953125 l 2
 231 627.001953125 234 623.668945312 234 617.001953125 c 0
 234 613.668945312 232.333007812 611.001953125 229 609.001953125 c 0
 227.666992188 608.334960938 225 606.16796875 221 602.500976562 c 0
 217 598.833984375 215 592.666992188 215 584 c 2
 215 345 l 1
 244 345 l 1
 307 345 l 1
 334 345 l 1
 334 584 l 2
 334 592.666992188 332 598.833984375 328 602.500976562 c 0
 324 606.16796875 321.333007812 608.334960938 320 609.001953125 c 0
 316.666992188 611.001953125 315 613.668945312 315 617.001953125 c 0
 315 623.668945312 318 627.001953125 324 627.001953125 c 2
 325 627.001953125 l 1
 334 627.001953125 l 1
 511 627.001953125 l 1
 520 627.001953125 l 2
 526.666992188 627.001953125 530 623.668945312 530 617.001953125 c 0
 530 613.668945312 528.333007812 611.001953125 525 609.001953125 c 0
 523.666992188 608.334960938 521 606.16796875 517 602.500976562 c 0
 513 598.833984375 511 592.666992188 511 584 c 2
 511 39 l 2
 511 30.3330078125 513 24.3330078125 517 21 c 0
 521 17.6669921875 523.666992188 15.6669921875 525 15 c 2
 525 14 l 1
 525 14 l 1
EndSplineSet
Validated: 524293
EndChar

StartChar: I
Encoding: 73 73 39
GlifName: I_
Width: 330
GlyphClass: 1
Flags: W
LayerCount: 2
Fore
SplineSet
267 18 m 1
 270.333007812 16.6669921875 272 14 272 10 c 0
 272 3.3330078125 269 0 263 0 c 2
 67 0 l 2
 60.3330078125 -0 57 3.3330078125 57 10 c 0
 57 14 58.6669921875 16.6669921875 62 18 c 2
 63 19 l 2
 63.6669921875 19.6669921875 66 21.6669921875 70 25 c 0
 74 28.3330078125 76 34.3330078125 76 43 c 2
 76 46 l 1
 76 64 l 1
 76 112 l 1
 76 205.5 l 1
 76 359 l 1
 76 588 l 2
 76 596.666992188 74 602.833984375 70 606.500976562 c 0
 66 610.16796875 63.6669921875 612.334960938 63 613.001953125 c 2
 62 613.001953125 l 2
 58.6669921875 615.001953125 57 617.668945312 57 621.001953125 c 0
 57 627.668945312 60.3330078125 631.001953125 67 631.001953125 c 2
 263 631.001953125 l 2
 269 631.001953125 272 627.668945312 272 621.001953125 c 0
 272 617.668945312 270.333007812 615.001953125 267 613.001953125 c 0
 265.666992188 612.334960938 263 610.16796875 259 606.500976562 c 0
 255 602.833984375 253 596.666992188 253 588 c 2
 253 43 l 2
 253 34.3330078125 255 28.3330078125 259 25 c 0
 263 21.6669921875 265.666992188 19.6669921875 267 19 c 2
 267 18 l 1
 267 18 l 1
EndSplineSet
Validated: 524293
EndChar

StartChar: J
Encoding: 74 74 40
GlifName: J_
Width: 550
GlyphClass: 1
Flags: W
LayerCount: 2
Fore
SplineSet
521 621 m 0
 521 618.333007812 519.665039062 615.671875 516.998046875 613.004882812 c 2
 515.998046875 613.004882812 l 2
 514.665039062 612.337890625 511.998046875 610.170898438 507.998046875 606.50390625 c 0
 503.998046875 602.836914062 501.998046875 596.669921875 501.998046875 588.002929688 c 2
 501.998046875 159.002929688 l 2
 501.998046875 136.3359375 497.831054688 116.8359375 489.498046875 100.502929688 c 0
 481.165039062 84.169921875 470.498046875 70.3369140625 457.498046875 59.00390625 c 0
 444.498046875 47.6708984375 430.498046875 38.50390625 415.498046875 31.50390625 c 0
 400.498046875 24.50390625 386.498046875 19.00390625 373.498046875 15.00390625 c 0
 360.498046875 11.00390625 349.498046875 8.3369140625 340.498046875 7.00390625 c 0
 331.498046875 5.6708984375 326.665039062 5.00390625 325.998046875 5.00390625 c 0
 307.998046875 3.00390625 287.998046875 2.00390625 265.998046875 2.00390625 c 0
 235.998046875 2.00390625 209.498046875 4.00390625 186.498046875 8.00390625 c 0
 163.498046875 12.00390625 143.831054688 17.1708984375 127.498046875 23.50390625 c 0
 111.165039062 29.8369140625 97.33203125 37.169921875 85.9990234375 45.5029296875 c 0
 74.666015625 53.8359375 65.3330078125 62.3359375 58 71.0029296875 c 0
 40.6669921875 91.669921875 31.333984375 115.002929688 30.0009765625 141.002929688 c 2
 30.0009765625 151.002929688 l 2
 30.0009765625 175.669921875 38.66796875 196.502929688 56.0009765625 213.502929688 c 0
 73.333984375 230.502929688 94.333984375 239.002929688 119.000976562 239.002929688 c 0
 143.000976562 239.002929688 163.500976562 230.669921875 180.500976562 214.002929688 c 0
 197.500976562 197.3359375 206.333984375 177.002929688 207.000976562 153.002929688 c 2
 208.000976562 98.0029296875 l 2
 208.66796875 90.669921875 211.000976562 84.0029296875 215.000976562 78.0029296875 c 0
 218.333984375 72.669921875 224.000976562 68.0029296875 232.000976562 64.0029296875 c 0
 240.000976562 60.0029296875 251.66796875 58.0029296875 267.000976562 58.0029296875 c 0
 281.66796875 58.0029296875 293.000976562 60.0029296875 301.000976562 64.0029296875 c 0
 309.000976562 68.0029296875 314.66796875 72.669921875 318.000976562 78.0029296875 c 0
 322.000976562 84.0029296875 324.333984375 90.669921875 325.000976562 98.0029296875 c 2
 325.000976562 542.002929688 l 2
 325.000976562 545.3359375 325.16796875 548.668945312 325.500976562 552.001953125 c 0
 325.833984375 555.334960938 326.333984375 558.66796875 327.000976562 562.000976562 c 0
 331.66796875 581.333984375 341.66796875 597.666992188 357.000976562 611 c 0
 372.333984375 624.333007812 390.666992188 631 412 631 c 2
 414 631 l 1
 502 631 l 1
 512 631 l 2
 518 631 521 627.666992188 521 621 c 0
EndSplineSet
Validated: 524289
EndChar

StartChar: K
Encoding: 75 75 41
GlifName: K_
Width: 550
GlyphClass: 1
Flags: W
LayerCount: 2
Fore
SplineSet
512 157 m 1
 511.333007812 127 511.997070312 102.166015625 513.997070312 82.4990234375 c 0
 515.997070312 62.83203125 518.330078125 46.6650390625 520.997070312 33.998046875 c 0
 523.6640625 19.3310546875 526.997070312 7.6640625 530.997070312 -1.0029296875 c 1
 412.997070312 -0.0029296875 l 2
 391.6640625 2.6640625 373.831054688 11.3310546875 359.498046875 25.998046875 c 0
 345.165039062 40.6650390625 336.998046875 58.6650390625 334.998046875 79.998046875 c 1
 334.331054688 79.3310546875 333.998046875 80.998046875 333.998046875 84.998046875 c 2
 333.998046875 98.998046875 l 1
 332.998046875 272.998046875 l 2
 332.331054688 280.331054688 329.998046875 286.998046875 325.998046875 292.998046875 c 0
 322.665039062 298.331054688 316.83203125 302.998046875 308.499023438 306.998046875 c 0
 300.166015625 310.998046875 288.666015625 312.998046875 273.999023438 312.998046875 c 2
 214.999023438 312.998046875 l 1
 214.999023438 222.998046875 l 1
 214.999023438 -0.001953125 l 1
 37.9990234375 -0.001953125 l 1
 37.9990234375 588.998046875 l 2
 37.33203125 596.331054688 35.1650390625 601.831054688 31.498046875 605.498046875 c 0
 27.8310546875 609.165039062 25.3310546875 611.33203125 23.998046875 611.999023438 c 0
 20.6650390625 613.999023438 18.998046875 616.666015625 18.998046875 619.999023438 c 0
 18.998046875 626.666015625 22.3310546875 629.999023438 28.998046875 629.999023438 c 2
 37.998046875 629.999023438 l 1
 214.998046875 629.999023438 l 1
 214.998046875 462.999023438 l 1
 215.998046875 369.999023438 l 1
 274.998046875 369.999023438 l 2
 289.665039062 369.999023438 300.83203125 371.999023438 308.499023438 375.999023438 c 0
 316.166015625 379.999023438 321.999023438 384.666015625 325.999023438 389.999023438 c 0
 329.999023438 395.999023438 332.666015625 402.999023438 333.999023438 410.999023438 c 2
 333.999023438 464.999023438 l 1
 333.999023438 629.999023438 l 1
 510.999023438 629.999023438 l 1
 510.999023438 452.999023438 l 2
 510.33203125 438.999023438 506.999023438 425.33203125 500.999023438 411.999023438 c 0
 495.666015625 400.666015625 487.333007812 388.499023438 476 375.499023438 c 0
 464.666992188 362.499023438 448 350.999023438 426 340.999023438 c 1
 451.333007812 328.999023438 469.833007812 315.33203125 481.5 299.999023438 c 0
 493.166992188 284.666015625 501 270.666015625 505 257.999023438 c 0
 507 252.666015625 508.333007812 247.833007812 509 243.5 c 0
 509.666992188 239.166992188 510 235.666992188 510 233 c 0
 510.666992188 231 511 228.833007812 511 226.5 c 2
 511 220 l 1
 511 157 l 1
 512 157 l 1
 512 157 l 1
EndSplineSet
Validated: 524325
EndChar

StartChar: L
Encoding: 76 76 42
GlifName: L_
Width: 550
GlyphClass: 1
Flags: W
LayerCount: 2
Fore
SplineSet
520 137 m 1
 518.666992188 111 509.33203125 87.662109375 491.999023438 66.9951171875 c 0
 484.666015625 58.328125 475.333007812 49.828125 464 41.4951171875 c 0
 452.666992188 33.162109375 438.666992188 25.8291015625 422 19.49609375 c 0
 405.333007812 13.1630859375 385.666015625 7.99609375 362.999023438 3.99609375 c 0
 340.33203125 -0.00390625 313.999023438 -2.00390625 283.999023438 -2.00390625 c 2
 266.499023438 -2.00390625 l 2
 258.83203125 -2.00390625 246.33203125 -1.8369140625 228.999023438 -1.50390625 c 0
 211.666015625 -1.1708984375 187.999023438 -1.00390625 157.999023438 -1.00390625 c 2
 38.9990234375 -1.00390625 l 1
 37.9990234375 -1.00390625 l 2
 31.9990234375 -1.00390625 28.9990234375 1.99609375 28.9990234375 7.99609375 c 0
 28.9990234375 11.99609375 30.666015625 14.99609375 33.9990234375 16.99609375 c 0
 35.33203125 17.6630859375 37.9990234375 19.830078125 41.9990234375 23.4970703125 c 0
 45.9990234375 27.1640625 47.9990234375 32.9970703125 47.9990234375 40.9970703125 c 2
 47.9990234375 42.9970703125 l 1
 47.9990234375 583.997070312 l 2
 47.9990234375 592.6640625 45.9990234375 598.831054688 41.9990234375 602.498046875 c 0
 37.9990234375 606.165039062 35.33203125 608.33203125 33.9990234375 608.999023438 c 0
 30.666015625 610.999023438 28.9990234375 613.666015625 28.9990234375 616.999023438 c 0
 28.9990234375 623.666015625 31.9990234375 626.999023438 37.9990234375 626.999023438 c 2
 38.9990234375 626.999023438 l 1
 135.999023438 626.999023438 l 1
 137.999023438 626.999023438 l 2
 159.33203125 626.999023438 177.83203125 620.33203125 193.499023438 606.999023438 c 0
 209.166015625 593.666015625 218.999023438 577.333007812 222.999023438 558 c 0
 222.999023438 556.666992188 223.166015625 554.5 223.499023438 551.5 c 0
 223.83203125 548.5 223.999023438 542.166992188 223.999023438 532.5 c 0
 223.999023438 522.833007812 224.166015625 508.5 224.499023438 489.5 c 0
 224.83203125 470.5 224.999023438 444.166992188 224.999023438 410.5 c 2
 224.999023438 282.5 l 1
 224.999023438 94 l 2
 225.666015625 86.6669921875 227.999023438 80 231.999023438 74 c 0
 235.33203125 68.6669921875 240.999023438 64 248.999023438 60 c 0
 256.999023438 56 268.666015625 54 283.999023438 54 c 0
 298.666015625 54 309.833007812 56 317.5 60 c 0
 325.166992188 64 331 68.6669921875 335 74 c 0
 339 80 341.666992188 86.6669921875 343 94 c 2
 343 149 l 2
 343.666992188 173 352.5 193.333007812 369.5 210 c 0
 386.5 226.666992188 407 235 431 235 c 0
 455.666992188 235 476.666992188 226.5 494 209.5 c 0
 511.333007812 192.5 520 171.666992188 520 147 c 2
 520 137 l 1
 520 137 l 1
EndSplineSet
Validated: 524293
EndChar

StartChar: M
Encoding: 77 77 43
GlifName: M_
Width: 830
GlyphClass: 1
Flags: W
LayerCount: 2
Fore
SplineSet
796 163 m 1
 796 133 796.833984375 107.831054688 798.500976562 87.498046875 c 0
 800.16796875 67.1650390625 802.334960938 50.33203125 805.001953125 36.9990234375 c 0
 807.668945312 21.666015625 811.001953125 8.9990234375 815.001953125 -1.0009765625 c 1
 697.001953125 -0.0009765625 l 2
 676.334960938 2.666015625 658.66796875 11.3330078125 644.000976562 26 c 0
 629.333984375 40.6669921875 621.000976562 58.333984375 619.000976562 79.0009765625 c 2
 619.000976562 496.000976562 l 2
 617.000976562 507.333984375 613.66796875 514.833984375 609.000976562 518.500976562 c 0
 604.333984375 522.16796875 599.666992188 523.66796875 595 523.000976562 c 0
 589.666992188 522.333984375 584 520.000976562 578 516.000976562 c 1
 577 517.000976562 l 1
 564.333007812 506.333984375 550.5 493.833984375 535.5 479.500976562 c 0
 520.5 465.16796875 509.333007812 454.66796875 502 448.000976562 c 1
 502 0.0009765625 l 1
 325 0.0009765625 l 1
 325 499.000976562 l 2
 322.333007812 509.66796875 318.833007812 516.500976562 314.5 519.500976562 c 0
 310.166992188 522.500976562 305.666992188 523.66796875 301 523.000976562 c 0
 295.666992188 522.333984375 290 520.000976562 284 516.000976562 c 1
 284 517.000976562 l 1
 272 507.000976562 258.666992188 495.16796875 244 481.500976562 c 0
 229.333007812 467.833984375 218.333007812 457.333984375 211 450.000976562 c 1
 211 1.0009765625 l 1
 34 1.0009765625 l 1
 34 590.000976562 l 2
 32.6669921875 597.333984375 30.333984375 602.500976562 27.0009765625 605.500976562 c 0
 23.66796875 608.500976562 21.3349609375 610.333984375 20.001953125 611.000976562 c 0
 16.6689453125 613.000976562 15.001953125 615.66796875 15.001953125 619.000976562 c 0
 15.001953125 625.66796875 18.3349609375 629.000976562 25.001953125 629.000976562 c 2
 34.001953125 629.000976562 l 1
 138.001953125 629.000976562 l 2
 158.001953125 629.000976562 175.168945312 621.833984375 189.501953125 607.500976562 c 0
 203.834960938 593.16796875 211.001953125 576.000976562 211.001953125 556.000976562 c 2
 211.001953125 494.000976562 l 1
 231.668945312 520.66796875 249.501953125 543.66796875 264.501953125 563.000976562 c 0
 279.501953125 582.333984375 293.334960938 597.333984375 306.001953125 608.000976562 c 0
 314.668945312 615.333984375 323.668945312 620.333984375 333.001953125 623.000976562 c 0
 342.334960938 625.66796875 350.66796875 627.66796875 358.000976562 629.000976562 c 0
 366.66796875 630.333984375 375.334960938 630.666992188 384.001953125 630 c 0
 402.001953125 630 417.334960938 627.666992188 430.001953125 623 c 0
 442.668945312 618.333007812 453.3359375 612.5 462.002929688 605.5 c 0
 470.669921875 598.5 477.669921875 590.666992188 483.002929688 582 c 0
 488.3359375 573.333007812 492.3359375 565 495.002929688 557 c 0
 497.669921875 551.666992188 499.502929688 546 500.502929688 540 c 0
 501.502929688 534 502.002929688 528.333007812 502.002929688 523 c 2
 502.002929688 491 l 1
 523.3359375 519 541.668945312 542.833007812 557.001953125 562.5 c 0
 572.334960938 582.166992188 586.334960938 597.333984375 599.001953125 608.000976562 c 0
 608.334960938 615.333984375 617.66796875 620.333984375 627.000976562 623.000976562 c 0
 636.333984375 625.66796875 644.666992188 627.66796875 652 629.000976562 c 0
 660.666992188 630.333984375 669.333984375 630.666992188 678.000976562 630 c 0
 696.000976562 630 711.333984375 627.666992188 724.000976562 623 c 0
 736.66796875 618.333007812 747.16796875 612.5 755.500976562 605.5 c 0
 763.833984375 598.5 770.666992188 590.666992188 776 582 c 0
 781.333007812 573.333007812 785.333007812 565 788 557 c 0
 793.333007812 546.333007812 796 535 796 523 c 2
 796 163 l 1
 796 163 l 1
EndSplineSet
Validated: 524293
EndChar

StartChar: N
Encoding: 78 78 44
GlifName: N_
Width: 550
GlyphClass: 1
Flags: W
LayerCount: 2
Fore
SplineSet
519 77 m 1
 519 67 519.331054688 57.333984375 519.998046875 48.0009765625 c 0
 520.665039062 40.0009765625 521.498046875 31.66796875 522.498046875 23.0009765625 c 0
 523.498046875 14.333984375 524.998046875 7.0009765625 526.998046875 1.0009765625 c 1
 421.998046875 1.0009765625 l 2
 399.998046875 1.0009765625 381.165039062 8.833984375 365.498046875 24.5009765625 c 0
 349.831054688 40.16796875 341.998046875 59.0009765625 341.998046875 81.0009765625 c 2
 341.998046875 500.000976562 l 2
 339.331054688 510.66796875 335.831054688 517.500976562 331.498046875 520.500976562 c 0
 327.165039062 523.500976562 322.665039062 524.66796875 317.998046875 524.000976562 c 0
 312.665039062 523.333984375 306.998046875 521.000976562 300.998046875 517.000976562 c 0
 294.998046875 512.333984375 288.498046875 506.833984375 281.498046875 500.500976562 c 0
 274.498046875 494.16796875 267.498046875 488.000976562 260.498046875 482.000976562 c 0
 253.498046875 476.000976562 247.165039062 470.16796875 241.498046875 464.500976562 c 0
 235.831054688 458.833984375 230.998046875 454.333984375 226.998046875 451.000976562 c 1
 226.998046875 2.0009765625 l 1
 49.998046875 2.0009765625 l 1
 49.998046875 591.000976562 l 2
 48.6650390625 598.333984375 46.33203125 603.500976562 42.9990234375 606.500976562 c 0
 39.666015625 609.500976562 37.3330078125 611.333984375 36 612.000976562 c 0
 32.6669921875 614.000976562 31 616.66796875 31 620.000976562 c 0
 31 626.66796875 34.3330078125 630.000976562 41 630.000976562 c 2
 50 630.000976562 l 1
 154 630.000976562 l 2
 174.666992188 630.000976562 192 622.833984375 206 608.500976562 c 0
 220 594.16796875 227 577.000976562 227 557.000976562 c 2
 227 534.000976562 l 1
 227 495.000976562 l 1
 247.666992188 521.66796875 265.5 544.66796875 280.5 564.000976562 c 0
 295.5 583.333984375 309.333007812 598.333984375 322 609.000976562 c 0
 331.333007812 616.333984375 340.666015625 621.333984375 349.999023438 624.000976562 c 0
 359.33203125 626.66796875 367.665039062 628.66796875 374.998046875 630.000976562 c 0
 383.665039062 631.333984375 392.33203125 631.666992188 400.999023438 631 c 0
 418.33203125 631 433.33203125 628.666992188 445.999023438 624 c 0
 458.666015625 619.333007812 469.333007812 613.5 478 606.5 c 0
 486.666992188 599.5 493.666992188 591.666992188 499 583 c 0
 504.333007812 574.333007812 508.333007812 566 511 558 c 0
 513.666992188 552.666992188 515.5 547.166992188 516.5 541.5 c 0
 517.5 535.833007812 518.333007812 530 519 524 c 2
 519 77 l 1
 519 77 l 1
EndSplineSet
Validated: 524293
EndChar

StartChar: O
Encoding: 79 79 45
GlifName: O_
Width: 550
GlyphClass: 1
Flags: W
LayerCount: 2
Fore
SplineSet
510 491 m 0
 510 489 510.1640625 486.829101562 510.497070312 484.49609375 c 0
 510.830078125 482.163085938 510.997070312 479.99609375 510.997070312 477.99609375 c 2
 510.997070312 132.99609375 l 2
 510.997070312 131.663085938 510.6640625 128.830078125 509.997070312 124.497070312 c 0
 509.330078125 120.1640625 508.330078125 114.6640625 506.997070312 107.997070312 c 0
 503.6640625 97.9970703125 497.997070312 86.4970703125 489.997070312 73.4970703125 c 0
 481.997070312 60.4970703125 469.330078125 48.1640625 451.997070312 36.4970703125 c 0
 434.6640625 24.830078125 411.831054688 14.9970703125 383.498046875 6.9970703125 c 0
 355.165039062 -1.0029296875 318.998046875 -5.0029296875 274.998046875 -5.0029296875 c 0
 252.998046875 -5.0029296875 232.998046875 -4.0029296875 214.998046875 -2.0029296875 c 0
 174.998046875 2.6640625 143.331054688 11.3310546875 119.998046875 23.998046875 c 0
 96.6650390625 36.6650390625 78.998046875 49.998046875 66.998046875 63.998046875 c 0
 54.998046875 77.998046875 47.3310546875 91.3310546875 43.998046875 103.998046875 c 0
 40.6650390625 116.665039062 38.998046875 125.33203125 38.998046875 129.999023438 c 0
 38.3310546875 133.33203125 37.998046875 137.999023438 37.998046875 143.999023438 c 2
 37.998046875 487.999023438 l 2
 37.998046875 489.999023438 38.3310546875 494.83203125 38.998046875 502.499023438 c 0
 39.6650390625 510.166015625 42.6650390625 519.333007812 47.998046875 530 c 0
 52.6650390625 540 59.83203125 550.833007812 69.4990234375 562.5 c 0
 79.166015625 574.166992188 92.8330078125 584.666992188 110.5 594 c 0
 128.166992188 603.333007812 150.166992188 611.166015625 176.5 617.499023438 c 0
 202.833007812 623.83203125 235 626.999023438 273 626.999023438 c 0
 311 626.999023438 343.333007812 623.83203125 370 617.499023438 c 0
 396.666992188 611.166015625 418.666992188 603.333007812 436 594 c 0
 453.333007812 584.666992188 467 574.166992188 477 562.5 c 0
 487 550.833007812 494.333007812 540 499 530 c 0
 503 521.333007812 505.666992188 513.5 507 506.5 c 0
 508.333007812 499.5 509.333007812 494.333007812 510 491 c 0
273.997070312 50.99609375 m 0
 288.6640625 50.99609375 300.1640625 52.9951171875 308.497070312 56.9951171875 c 0
 316.830078125 60.9951171875 322.663085938 65.662109375 325.99609375 70.9951171875 c 0
 329.99609375 76.9951171875 332.329101562 83.662109375 332.99609375 90.9951171875 c 2
 332.99609375 530.995117188 l 2
 332.329101562 538.328125 329.99609375 544.995117188 325.99609375 550.995117188 c 0
 322.663085938 556.328125 316.830078125 560.995117188 308.497070312 564.995117188 c 0
 300.1640625 568.995117188 288.6640625 570.995117188 273.997070312 570.995117188 c 0
 258.6640625 570.995117188 246.997070312 568.828125 238.997070312 564.495117188 c 0
 230.997070312 560.162109375 225.330078125 555.329101562 221.997070312 549.99609375 c 0
 217.997070312 543.99609375 215.6640625 537.329101562 214.997070312 529.99609375 c 2
 215.997070312 90.99609375 l 2
 216.6640625 83.6630859375 218.997070312 76.99609375 222.997070312 70.99609375 c 0
 226.330078125 65.6630859375 231.997070312 60.99609375 239.997070312 56.99609375 c 0
 247.997070312 52.99609375 259.330078125 50.99609375 273.997070312 50.99609375 c 0
EndSplineSet
Validated: 524289
EndChar

StartChar: P
Encoding: 80 80 46
GlifName: P_
Width: 550
GlyphClass: 1
Flags: W
LayerCount: 2
Fore
SplineSet
521 361 m 2
 520.333007812 355 517.833984375 345.665039062 513.500976562 332.998046875 c 0
 509.16796875 320.331054688 501.000976562 307.331054688 489.000976562 293.998046875 c 0
 477.000976562 280.665039062 459.66796875 268.33203125 437.000976562 256.999023438 c 0
 414.333984375 245.666015625 384.000976562 237.666015625 346.000976562 232.999023438 c 0
 328.000976562 230.999023438 307.66796875 229.999023438 285.000976562 229.999023438 c 0
 263.000976562 229.999023438 243.000976562 230.999023438 225.000976562 232.999023438 c 1
 225.000976562 -0.0009765625 l 1
 48.0009765625 -0.0009765625 l 1
 48.0009765625 588.999023438 l 2
 47.333984375 596.33203125 45.1669921875 601.83203125 41.5 605.499023438 c 0
 37.8330078125 609.166015625 35.3330078125 611.333007812 34 612 c 0
 30.6669921875 614 29 616.666992188 29 620 c 0
 29 626.666992188 32.3330078125 630 39 630 c 2
 48 630 l 1
 291 630 l 2
 300.333007812 630 309.5 629.666992188 318.5 629 c 0
 327.5 628.333007812 336 627.333007812 344 626 c 0
 384 621.333007812 415.666992188 612.833007812 439 600.5 c 0
 462.333007812 588.166992188 480 575 492 561 c 0
 504 547 511.666992188 533.5 515 520.5 c 0
 518.333007812 507.5 520 498.666992188 520 494 c 0
 520 492 520.333007812 490.333007812 521 489 c 2
 521 361 l 2
343.000976562 533.998046875 m 2
 342.333984375 541.331054688 339.998046875 547.997070312 335.998046875 553.997070312 c 0
 332.665039062 559.330078125 326.83203125 563.997070312 318.499023438 567.997070312 c 0
 310.166015625 571.997070312 298.666015625 573.997070312 283.999023438 573.997070312 c 2
 278.999023438 573.997070312 l 2
 263.666015625 573.997070312 250.833007812 568.830078125 240.5 558.497070312 c 0
 230.166992188 548.1640625 225 535.331054688 225 519.998046875 c 2
 226 285.998046875 l 1
 285 285.998046875 l 2
 299.666992188 285.998046875 310.833984375 287.998046875 318.500976562 291.998046875 c 0
 326.16796875 295.998046875 332.000976562 300.665039062 336.000976562 305.998046875 c 0
 340.000976562 311.998046875 342.66796875 318.665039062 344.000976562 325.998046875 c 2
 343.000976562 533.998046875 l 2
EndSplineSet
Validated: 524289
EndChar

StartChar: Q
Encoding: 81 81 47
GlifName: Q_
Width: 550
GlyphClass: 1
Flags: W
LayerCount: 2
Fore
SplineSet
508 -40 m 0
 517.333007812 -57.3330078125 519.493164062 -75.1650390625 514.493164062 -93.498046875 c 0
 509.493164062 -111.831054688 498.66015625 -125.6640625 481.993164062 -134.997070312 c 0
 480.66015625 -135.6640625 479.16015625 -136.331054688 477.493164062 -136.998046875 c 0
 475.826171875 -137.665039062 473.993164062 -138.33203125 471.993164062 -138.999023438 c 0
 469.993164062 -140.33203125 466.326171875 -141.83203125 460.993164062 -143.499023438 c 0
 455.66015625 -145.166015625 449.327148438 -146.333007812 441.994140625 -147 c 0
 432.661132812 -147.666992188 422.328125 -146.833984375 410.995117188 -144.500976562 c 0
 399.662109375 -142.16796875 387.329101562 -136.834960938 373.99609375 -128.501953125 c 0
 360.663085938 -120.168945312 346.830078125 -108.168945312 332.497070312 -92.501953125 c 0
 318.1640625 -76.8349609375 303.6640625 -56.001953125 288.997070312 -30.001953125 c 0
 285.6640625 -24.6689453125 282.831054688 -19.8359375 280.498046875 -15.5029296875 c 0
 278.165039062 -11.169921875 275.998046875 -7.0029296875 273.998046875 -3.0029296875 c 1
 267.998046875 -3.0029296875 l 2
 245.998046875 -3.0029296875 225.998046875 -2.0029296875 207.998046875 -0.0029296875 c 0
 167.998046875 4.6640625 136.331054688 13.3310546875 112.998046875 25.998046875 c 0
 89.6650390625 38.6650390625 71.998046875 51.998046875 59.998046875 65.998046875 c 0
 47.998046875 79.998046875 40.3310546875 93.3310546875 36.998046875 105.998046875 c 0
 33.6650390625 118.665039062 31.998046875 127.33203125 31.998046875 131.999023438 c 0
 31.998046875 132.666015625 31.8310546875 133.999023438 31.498046875 135.999023438 c 0
 31.1650390625 137.999023438 30.998046875 142.499023438 30.998046875 149.499023438 c 2
 30.998046875 181.999023438 l 1
 30.998046875 243.499023438 l 1
 30.998046875 342.999023438 l 1
 30.998046875 489.999023438 l 2
 30.998046875 491.999023438 31.3310546875 496.83203125 31.998046875 504.499023438 c 0
 32.6650390625 512.166015625 35.6650390625 521.333007812 40.998046875 532 c 0
 45.6650390625 542 52.83203125 552.833007812 62.4990234375 564.5 c 0
 72.166015625 576.166992188 85.8330078125 586.666992188 103.5 596 c 0
 121.166992188 605.333007812 143.166992188 613.166015625 169.5 619.499023438 c 0
 195.833007812 625.83203125 228 628.999023438 266 628.999023438 c 0
 304 628.999023438 336.333007812 625.83203125 363 619.499023438 c 0
 389.666992188 613.166015625 411.666992188 605.333007812 429 596 c 0
 446.333007812 586.666992188 460 576.166992188 470 564.5 c 0
 480 552.833007812 487.333007812 542 492 532 c 0
 496 523.333007812 498.666992188 515.5 500 508.5 c 0
 501.333007812 501.5 502.333007812 496.333007812 503 493 c 2
 503 489.5 l 1
 503 476 l 2
 503 468.666992188 503.166992188 457.666992188 503.5 443 c 0
 503.833007812 428.333007812 504 408 504 382 c 2
 504 282.5 l 1
 504 135 l 2
 504 133.666992188 503.666992188 130.833984375 503 126.500976562 c 0
 502.333007812 122.16796875 501.333007812 116.66796875 500 110.000976562 c 0
 497.333007812 101.333984375 492.666015625 91.333984375 485.999023438 80.0009765625 c 0
 479.33203125 68.66796875 469.33203125 57.66796875 455.999023438 47.0009765625 c 0
 442.666015625 36.333984375 425.333007812 26.6669921875 404 18 c 0
 382.666992188 9.3330078125 355.666992188 3.3330078125 323 0 c 1
 323.666992188 -2 325.333984375 -5 328.000976562 -9 c 0
 333.333984375 -19 338.833984375 -26 344.500976562 -30 c 0
 350.16796875 -34 355.66796875 -36.3330078125 361.000976562 -37 c 0
 367.000976562 -37.6669921875 372.66796875 -36.6669921875 378.000976562 -34 c 2
 403.000976562 -20 l 1
 414.000976562 -14 l 2
 430.66796875 -4.6669921875 448.16796875 -2.5 466.500976562 -7.5 c 0
 484.833984375 -12.5 498.666992188 -23.3330078125 508 -40 c 0
208.993164062 93.0009765625 m 2
 209.66015625 85.66796875 211.993164062 79 215.993164062 73 c 0
 219.326171875 67.6669921875 224.993164062 63 232.993164062 59 c 0
 240.993164062 55 252.326171875 53 266.993164062 53 c 0
 281.66015625 53 293.16015625 55 301.493164062 59 c 0
 309.826171875 63 315.659179688 67.6669921875 318.9921875 73 c 0
 322.9921875 79 325.325195312 85.6669921875 325.9921875 93 c 2
 325.9921875 533 l 2
 325.325195312 540.333007812 322.9921875 547 318.9921875 553 c 0
 315.659179688 558.333007812 309.826171875 563 301.493164062 567 c 0
 293.16015625 571 281.66015625 573 266.993164062 573 c 0
 251.66015625 573 239.993164062 570.833007812 231.993164062 566.5 c 0
 223.993164062 562.166992188 218.326171875 557.333984375 214.993164062 552.000976562 c 0
 210.993164062 546.000976562 208.66015625 539.333984375 207.993164062 532.000976562 c 2
 208.993164062 93.0009765625 l 2
EndSplineSet
Validated: 524321
EndChar

StartChar: R
Encoding: 82 82 48
GlifName: R_
Width: 550
GlyphClass: 1
Flags: W
LayerCount: 2
Fore
SplineSet
511 157 m 2
 510.333007812 127 511.166992188 102.166015625 513.5 82.4990234375 c 0
 515.833007812 62.83203125 518.333007812 46.6650390625 521 33.998046875 c 0
 523.666992188 19.3310546875 527 7.6640625 531 -1.0029296875 c 1
 413 -0.0029296875 l 2
 391.666992188 2.6640625 373.833984375 11.3310546875 359.500976562 25.998046875 c 0
 345.16796875 40.6650390625 337.000976562 58.6650390625 335.000976562 79.998046875 c 2
 334.500976562 84.998046875 l 2
 334.16796875 88.3310546875 334.000976562 95.6640625 334.000976562 106.997070312 c 2
 334.000976562 155.997070312 l 1
 334.000976562 240.997070312 l 1
 333.000976562 272.997070312 l 2
 332.333984375 280.330078125 330.000976562 286.997070312 326.000976562 292.997070312 c 0
 322.66796875 298.330078125 316.834960938 302.997070312 308.501953125 306.997070312 c 0
 300.168945312 310.997070312 288.668945312 312.997070312 274.001953125 312.997070312 c 2
 215.001953125 312.997070312 l 1
 215.001953125 -0.0029296875 l 1
 38.001953125 -0.0029296875 l 1
 38.001953125 588.997070312 l 2
 37.3349609375 596.330078125 35.16796875 601.830078125 31.5009765625 605.497070312 c 0
 27.833984375 609.1640625 25.333984375 611.331054688 24.0009765625 611.998046875 c 0
 20.66796875 613.998046875 19.0009765625 616.665039062 19.0009765625 619.998046875 c 0
 19.0009765625 626.665039062 22.333984375 629.998046875 29.0009765625 629.998046875 c 2
 38.0009765625 629.998046875 l 1
 281.000976562 629.998046875 l 2
 333.66796875 629.331054688 375.16796875 622.831054688 405.500976562 610.498046875 c 0
 435.833984375 598.165039062 458.666992188 584.33203125 474 568.999023438 c 0
 489.333007812 553.666015625 499.166015625 538.666015625 503.499023438 523.999023438 c 0
 507.83203125 509.33203125 509.999023438 499.33203125 509.999023438 493.999023438 c 0
 510.666015625 491.999023438 510.999023438 489.83203125 510.999023438 487.499023438 c 2
 510.999023438 480.999023438 l 1
 510.999023438 462.999023438 l 1
 510.999023438 452.999023438 l 2
 510.33203125 438.999023438 506.999023438 425.33203125 500.999023438 411.999023438 c 0
 495.666015625 400.666015625 487.333007812 388.499023438 476 375.499023438 c 0
 464.666992188 362.499023438 448 350.999023438 426 340.999023438 c 1
 451.333007812 328.999023438 469.833007812 315.33203125 481.5 299.999023438 c 0
 493.166992188 284.666015625 501 270.666015625 505 257.999023438 c 0
 507 252.666015625 508.333007812 247.833007812 509 243.5 c 0
 509.666992188 239.166992188 510 235.666992188 510 233 c 0
 510.666992188 231 511 228.833007812 511 226.5 c 2
 511 220 l 1
 511 157 l 2
333.000976562 533.999023438 m 2
 332.333984375 541.33203125 329.999023438 547.999023438 325.999023438 553.999023438 c 0
 322.666015625 559.33203125 316.833007812 563.999023438 308.5 567.999023438 c 0
 300.166992188 571.999023438 288.666992188 573.999023438 274 573.999023438 c 2
 215 573.999023438 l 1
 216 369.999023438 l 1
 275 369.999023438 l 2
 289.666992188 369.999023438 300.833984375 371.999023438 308.500976562 375.999023438 c 0
 316.16796875 379.999023438 322.000976562 384.666015625 326.000976562 389.999023438 c 0
 330.000976562 395.999023438 332.66796875 402.999023438 334.000976562 410.999023438 c 2
 333.000976562 533.999023438 l 2
EndSplineSet
Validated: 524321
EndChar

StartChar: S
Encoding: 83 83 49
GlifName: S_
Width: 550
GlyphClass: 1
Flags: W
LayerCount: 2
Fore
SplineSet
268 383 m 0
 322.666992188 383 365.671875 377.00390625 397.004882812 365.00390625 c 0
 428.337890625 353.00390625 451.837890625 339.170898438 467.504882812 323.50390625 c 0
 483.171875 307.836914062 493.171875 292.50390625 497.504882812 277.50390625 c 0
 501.837890625 262.50390625 504.337890625 252.336914062 505.004882812 247.00390625 c 2
 505.004882812 242.00390625 l 2
 505.004882812 240.00390625 505.171875 235.50390625 505.504882812 228.50390625 c 0
 505.837890625 221.50390625 506.004882812 210.836914062 506.004882812 196.50390625 c 2
 506.004882812 138.00390625 l 2
 505.337890625 132.670898438 502.837890625 122.50390625 498.504882812 107.50390625 c 0
 494.171875 92.50390625 484.171875 77.3369140625 468.504882812 62.00390625 c 0
 452.837890625 46.6708984375 429.337890625 33.00390625 398.004882812 21.00390625 c 0
 366.671875 9.00390625 324.004882812 3.00390625 270.004882812 3.00390625 c 0
 248.004882812 3.00390625 223.171875 5.00390625 195.504882812 9.00390625 c 0
 167.837890625 13.00390625 142.004882812 20.50390625 118.004882812 31.50390625 c 0
 94.0048828125 42.50390625 73.837890625 57.6708984375 57.5048828125 77.00390625 c 0
 41.171875 96.3369140625 33.0048828125 121.336914062 33.0048828125 152.00390625 c 0
 33.0048828125 175.336914062 41.337890625 195.836914062 58.0048828125 213.50390625 c 0
 74.671875 231.170898438 95.671875 240.00390625 121.004882812 240.00390625 c 0
 145.004882812 240.00390625 165.504882812 231.670898438 182.504882812 215.00390625 c 0
 199.504882812 198.336914062 208.671875 177.336914062 210.004882812 152.00390625 c 2
 211.004882812 99.00390625 l 2
 211.671875 91.6708984375 214.004882812 85.00390625 218.004882812 79.00390625 c 0
 221.337890625 73.6708984375 227.004882812 69.00390625 235.004882812 65.00390625 c 0
 243.004882812 61.00390625 254.337890625 59.00390625 269.004882812 59.00390625 c 0
 283.671875 59.00390625 295.171875 61.00390625 303.504882812 65.00390625 c 0
 311.837890625 69.00390625 317.670898438 73.6708984375 321.00390625 79.00390625 c 0
 325.00390625 85.00390625 327.336914062 91.6708984375 328.00390625 99.00390625 c 2
 328.00390625 286.00390625 l 2
 327.336914062 293.336914062 325.00390625 300.00390625 321.00390625 306.00390625 c 0
 317.670898438 311.336914062 311.837890625 316.169921875 303.504882812 320.502929688 c 0
 295.171875 324.8359375 283.671875 327.002929688 269.004882812 327.002929688 c 0
 265.004882812 327.002929688 261.004882812 326.669921875 257.004882812 326.002929688 c 0
 253.004882812 325.3359375 249.337890625 324.3359375 246.004882812 323.002929688 c 0
 217.337890625 315.669921875 190.004882812 312.336914062 164.004882812 313.00390625 c 0
 141.337890625 313.670898438 118.504882812 318.50390625 95.5048828125 327.50390625 c 0
 72.5048828125 336.50390625 54.0048828125 354.00390625 40.0048828125 380.00390625 c 0
 35.337890625 389.336914062 33.0048828125 399.669921875 33.0048828125 411.002929688 c 2
 33.0048828125 424.002929688 l 1
 33.0048828125 477.002929688 l 1
 35.0048828125 500.002929688 l 2
 37.0048828125 508.669921875 40.671875 519.002929688 46.0048828125 531.002929688 c 0
 51.337890625 543.002929688 60.5048828125 555.002929688 73.5048828125 567.002929688 c 0
 86.5048828125 579.002929688 104.004882812 590.002929688 126.004882812 600.002929688 c 0
 148.004882812 610.002929688 176.337890625 617.002929688 211.004882812 621.002929688 c 0
 220.337890625 622.3359375 230.170898438 623.3359375 240.50390625 624.002929688 c 0
 250.836914062 624.669921875 261.669921875 625.002929688 273.002929688 625.002929688 c 0
 330.3359375 625.002929688 375.168945312 618.669921875 407.501953125 606.002929688 c 0
 439.834960938 593.3359375 464.001953125 578.502929688 480.001953125 561.502929688 c 0
 496.001953125 544.502929688 505.834960938 527.669921875 509.501953125 511.002929688 c 0
 513.168945312 494.3359375 515.001953125 482.002929688 515.001953125 474.002929688 c 0
 515.001953125 461.3359375 512.834960938 449.502929688 508.501953125 438.502929688 c 0
 504.168945312 427.502929688 498.001953125 417.8359375 490.001953125 409.502929688 c 0
 482.001953125 401.169921875 472.501953125 394.502929688 461.501953125 389.502929688 c 0
 450.501953125 384.502929688 438.668945312 382.002929688 426.001953125 382.002929688 c 0
 413.334960938 382.002929688 401.501953125 384.3359375 390.501953125 389.002929688 c 0
 379.501953125 393.669921875 369.834960938 400.169921875 361.501953125 408.502929688 c 0
 353.168945312 416.8359375 346.668945312 426.502929688 342.001953125 437.502929688 c 0
 337.334960938 448.502929688 335.001953125 460.3359375 335.001953125 473.002929688 c 2
 334.001953125 527.002929688 l 2
 332.668945312 534.3359375 330.001953125 541.002929688 326.001953125 547.002929688 c 0
 322.001953125 552.3359375 316.168945312 557.168945312 308.501953125 561.501953125 c 0
 300.834960938 565.834960938 289.334960938 568.001953125 274.001953125 568.001953125 c 0
 258.668945312 568.001953125 246.668945312 565.501953125 238.001953125 560.501953125 c 0
 229.334960938 555.501953125 223.001953125 550.334960938 219.001953125 545.001953125 c 0
 213.668945312 537.668945312 210.668945312 530.001953125 210.001953125 522.001953125 c 2
 210.001953125 403.001953125 l 2
 211.334960938 394.334960938 214.16796875 388.66796875 218.500976562 386.000976562 c 0
 222.833984375 383.333984375 226.666992188 381.666992188 230 381 c 0
 232 381.666992188 234.666992188 382 238 382 c 0
 243.333007812 382 248.333007812 382.166992188 253 382.5 c 0
 257.666992188 382.833007812 262.666992188 383 268 383 c 0
EndSplineSet
Validated: 524321
EndChar

StartChar: T
Encoding: 84 84 50
GlifName: T_
Width: 600
GlyphClass: 1
Flags: W
LayerCount: 2
Fore
SplineSet
467 658 m 0
 491.666992188 658 512.666992188 649.502929688 530 632.502929688 c 0
 547.333007812 615.502929688 556 594.669921875 556 570.002929688 c 0
 556 564.002929688 555.666992188 559.3359375 555 556.002929688 c 0
 555 552.669921875 554.166992188 547.169921875 552.5 539.502929688 c 0
 550.833007812 531.8359375 547.666015625 523.168945312 542.999023438 513.501953125 c 0
 538.33203125 503.834960938 531.33203125 494.001953125 521.999023438 484.001953125 c 0
 512.666015625 474.001953125 500.166015625 464.501953125 484.499023438 455.501953125 c 0
 468.83203125 446.501953125 449.499023438 438.834960938 426.499023438 432.501953125 c 0
 403.499023438 426.168945312 375.999023438 422.3359375 343.999023438 421.002929688 c 1
 343.999023438 44.0029296875 l 2
 343.999023438 35.3359375 345.999023438 29.3359375 349.999023438 26.0029296875 c 0
 353.999023438 22.669921875 356.666015625 20.669921875 357.999023438 20.0029296875 c 0
 357.999023438 19.3359375 358.33203125 19.0029296875 358.999023438 19.0029296875 c 0
 361.666015625 17.669921875 362.999023438 15.0029296875 362.999023438 11.0029296875 c 0
 362.999023438 4.3359375 359.999023438 1.0029296875 353.999023438 1.0029296875 c 2
 157.999023438 1.0029296875 l 2
 151.33203125 1.0029296875 147.999023438 4.3359375 147.999023438 11.0029296875 c 0
 147.999023438 15.0029296875 149.666015625 17.669921875 152.999023438 19.0029296875 c 2
 153.999023438 20.0029296875 l 2
 155.33203125 20.669921875 157.999023438 22.669921875 161.999023438 26.0029296875 c 0
 165.999023438 29.3359375 167.999023438 35.3359375 167.999023438 44.0029296875 c 2
 167.999023438 46.0029296875 l 1
 167.999023438 400.002929688 l 2
 164.666015625 404.669921875 160.333007812 407.502929688 155 408.502929688 c 0
 149.666992188 409.502929688 144.166992188 409.669921875 138.5 409.002929688 c 0
 132.833007812 408.3359375 127.166015625 407.002929688 121.499023438 405.002929688 c 0
 115.83203125 403.002929688 110.999023438 401.002929688 106.999023438 399.002929688 c 0
 102.999023438 397.002929688 98.9990234375 394.169921875 94.9990234375 390.502929688 c 0
 90.9990234375 386.8359375 87.166015625 383.002929688 83.4990234375 379.002929688 c 0
 79.83203125 375.002929688 75.9990234375 371.502929688 71.9990234375 368.502929688 c 0
 67.9990234375 365.502929688 63.666015625 364.3359375 58.9990234375 365.002929688 c 0
 53.666015625 365.002929688 49.666015625 367.169921875 46.9990234375 371.502929688 c 0
 44.33203125 375.8359375 43.33203125 381.3359375 43.9990234375 388.002929688 c 0
 44.666015625 394.669921875 46.666015625 401.669921875 49.9990234375 409.002929688 c 0
 53.33203125 416.3359375 57.9990234375 423.668945312 63.9990234375 431.001953125 c 0
 72.666015625 441.001953125 82.4990234375 448.834960938 93.4990234375 454.501953125 c 0
 104.499023438 460.168945312 114.999023438 464.668945312 124.999023438 468.001953125 c 0
 134.999023438 471.334960938 143.999023438 473.66796875 151.999023438 475.000976562 c 0
 159.999023438 476.333984375 165.33203125 477.000976562 167.999023438 477.000976562 c 1
 167.999023438 589.000976562 l 2
 167.999023438 597.66796875 165.999023438 603.834960938 161.999023438 607.501953125 c 0
 157.999023438 611.168945312 155.33203125 613.3359375 153.999023438 614.002929688 c 2
 152.999023438 614.002929688 l 2
 149.666015625 616.002929688 147.999023438 618.669921875 147.999023438 622.002929688 c 0
 147.999023438 628.669921875 151.33203125 632.002929688 157.999023438 632.002929688 c 2
 353.999023438 632.002929688 l 2
 359.999023438 632.002929688 362.999023438 628.669921875 362.999023438 622.002929688 c 0
 362.999023438 619.3359375 361.666015625 616.668945312 358.999023438 614.001953125 c 2
 357.999023438 614.001953125 l 2
 356.666015625 613.334960938 353.999023438 611.16796875 349.999023438 607.500976562 c 0
 345.999023438 603.833984375 343.999023438 597.666992188 343.999023438 589 c 2
 343.999023438 587 l 1
 343.999023438 480 l 1
 352.666015625 482 359.333007812 485.166992188 364 489.5 c 0
 368.666992188 493.833007812 372 498 374 502 c 0
 376.666992188 506.666992188 378 511.666992188 378 517 c 2
 379 570 l 2
 379 594.666992188 387.666992188 615.5 405 632.5 c 0
 422.333007812 649.5 443 658 467 658 c 0
EndSplineSet
Validated: 524289
EndChar

StartChar: U
Encoding: 85 85 51
GlifName: U_
Width: 550
GlyphClass: 1
Flags: W
LayerCount: 2
Fore
SplineSet
530 617 m 0
 530 613.666992188 528.330078125 610.997070312 524.997070312 608.997070312 c 0
 524.330078125 608.330078125 522.330078125 606.497070312 518.997070312 603.497070312 c 0
 515.6640625 600.497070312 513.331054688 595.6640625 511.998046875 588.997070312 c 2
 511.998046875 133.997070312 l 2
 511.998046875 132.6640625 511.665039062 129.831054688 510.998046875 125.498046875 c 0
 510.331054688 121.165039062 509.331054688 115.665039062 507.998046875 108.998046875 c 0
 504.665039062 98.998046875 498.998046875 87.498046875 490.998046875 74.498046875 c 0
 482.998046875 61.498046875 470.331054688 49.1650390625 452.998046875 37.498046875 c 0
 435.665039062 25.8310546875 412.83203125 15.998046875 384.499023438 7.998046875 c 0
 356.166015625 -0.001953125 319.999023438 -4.001953125 275.999023438 -4.001953125 c 0
 253.999023438 -4.001953125 233.999023438 -3.001953125 215.999023438 -1.001953125 c 0
 175.999023438 3.6650390625 144.33203125 12.33203125 120.999023438 24.9990234375 c 0
 97.666015625 37.666015625 79.9990234375 50.9990234375 67.9990234375 64.9990234375 c 0
 55.9990234375 78.9990234375 48.33203125 92.33203125 44.9990234375 104.999023438 c 0
 41.666015625 117.666015625 39.9990234375 126.333007812 39.9990234375 131 c 0
 39.33203125 134.333007812 38.9990234375 139 38.9990234375 145 c 2
 38.9990234375 588 l 2
 37.666015625 595.333007812 35.3330078125 600.5 32 603.5 c 0
 28.6669921875 606.5 26.333984375 608.333007812 25.0009765625 609 c 0
 21.66796875 611 20.0009765625 613.666992188 20.0009765625 617 c 0
 20.0009765625 623.666992188 23.0009765625 627 29.0009765625 627 c 2
 30.0009765625 627 l 1
 39.0009765625 627 l 1
 143.000976562 627 l 2
 163.000976562 627 180.16796875 619.833007812 194.500976562 605.5 c 0
 208.833984375 591.166992188 216.000976562 573.666992188 216.000976562 553 c 2
 217.000976562 92 l 2
 217.66796875 84.6669921875 220.000976562 78 224.000976562 72 c 0
 227.333984375 66.6669921875 233.000976562 62 241.000976562 58 c 0
 249.000976562 54 260.333984375 52 275.000976562 52 c 0
 289.66796875 52 301.16796875 54 309.500976562 58 c 0
 317.833984375 62 323.666992188 66.6669921875 327 72 c 0
 331 78 333.333007812 84.6669921875 334 92 c 2
 334 553 l 2
 334 573.666992188 341.166992188 591.166992188 355.5 605.5 c 0
 369.833007812 619.833007812 387.333007812 627 408 627 c 2
 512 627 l 1
 521 627 l 2
 527 627 530 623.666992188 530 617 c 0
EndSplineSet
Validated: 524289
EndChar

StartChar: V
Encoding: 86 86 52
GlifName: V_
Width: 550
GlyphClass: 1
Flags: W
LayerCount: 2
Fore
SplineSet
530 618 m 0
 530 614.666992188 528.328125 612.000976562 524.995117188 610.000976562 c 0
 523.662109375 609.333984375 521.495117188 607.500976562 518.495117188 604.500976562 c 0
 515.495117188 601.500976562 513.328125 596.66796875 511.995117188 590.000976562 c 2
 511.995117188 201.000976562 l 2
 511.995117188 191.000976562 511.828125 183.66796875 511.495117188 179.000976562 c 0
 511.162109375 174.333984375 510.329101562 170.333984375 508.99609375 167.000976562 c 0
 506.329101562 159.000976562 503.162109375 150.16796875 499.495117188 140.500976562 c 0
 495.828125 130.833984375 490.328125 120.666992188 482.995117188 110 c 0
 474.328125 96.6669921875 462.828125 83.5 448.495117188 70.5 c 0
 434.162109375 57.5 416.329101562 45.6669921875 394.99609375 35 c 0
 373.663085938 24.3330078125 348.330078125 15.8330078125 318.997070312 9.5 c 0
 289.6640625 3.1669921875 255.331054688 0 215.998046875 0 c 2
 38.998046875 0 l 1
 38.998046875 589 l 2
 37.6650390625 596.333007812 35.33203125 601.5 31.9990234375 604.5 c 0
 28.666015625 607.5 26.3330078125 609.333007812 25 610 c 0
 21.6669921875 612 20 614.666992188 20 618 c 0
 20 624.666992188 23 628 29 628 c 2
 30 628 l 1
 39 628 l 1
 143 628 l 2
 163 628 180.166992188 620.833007812 194.5 606.5 c 0
 208.833007812 592.166992188 216 574.666992188 216 554 c 2
 216 21 l 1
 234.666992188 25.6669921875 252 34 268 46 c 0
 281.333007812 56 294.333007812 70 307 88 c 0
 319.666992188 106 328.666992188 130 334 160 c 1
 335 628 l 1
 408 628 l 1
 511 628 l 1
 512 628 l 1
 521 628 l 2
 527 628 530 624.666992188 530 618 c 0
EndSplineSet
Validated: 524289
EndChar

StartChar: W
Encoding: 87 87 53
GlifName: W_
Width: 850
GlyphClass: 1
Flags: W
LayerCount: 2
Fore
SplineSet
828 615 m 0
 828 611 826.323242188 608.333984375 822.990234375 607.000976562 c 2
 822.990234375 606.000976562 l 1
 821.657226562 606.000976562 819.32421875 604.500976562 815.991210938 601.500976562 c 0
 812.658203125 598.500976562 810.325195312 593.66796875 808.9921875 587.000976562 c 2
 808.9921875 198.000976562 l 1
 808.9921875 175.000976562 l 2
 808.325195312 173.000976562 807.325195312 169.333984375 805.9921875 164.000976562 c 0
 803.9921875 156.000976562 800.9921875 147.16796875 796.9921875 137.500976562 c 0
 792.9921875 127.833984375 787.325195312 117.666992188 779.9921875 107 c 0
 771.325195312 93.6669921875 759.825195312 80.5 745.4921875 67.5 c 0
 731.159179688 54.5 713.326171875 42.6669921875 691.993164062 32 c 0
 670.66015625 21.3330078125 645.327148438 12.8330078125 615.994140625 6.5 c 0
 586.661132812 0.1669921875 552.328125 -3 512.995117188 -3 c 2
 486.995117188 -3 l 2
 468.995117188 -2.3330078125 452.328125 -1 436.995117188 1 c 0
 421.662109375 3 408.329101562 5.3330078125 396.99609375 8 c 0
 383.663085938 10.6669921875 371.663085938 14 360.99609375 18 c 0
 356.99609375 16.6669921875 352.99609375 15.5 348.99609375 14.5 c 0
 344.99609375 13.5 340.663085938 12.3330078125 335.99609375 11 c 0
 334.663085938 10.3330078125 332.830078125 9.8330078125 330.497070312 9.5 c 0
 328.1640625 9.1669921875 325.997070312 8.6669921875 323.997070312 8 c 0
 295.330078125 1.3330078125 259.997070312 -2 217.997070312 -2 c 2
 39.9970703125 -2 l 1
 39.9970703125 587 l 2
 39.330078125 594.333007812 37.330078125 599.333007812 33.9970703125 602 c 0
 30.6640625 604.666992188 28.3310546875 606.333984375 26.998046875 607.000976562 c 2
 26.998046875 608.000976562 l 2
 23.6650390625 609.333984375 21.998046875 612.000976562 21.998046875 616.000976562 c 0
 21.998046875 622.000976562 24.998046875 625.000976562 30.998046875 625.000976562 c 2
 39.998046875 625.000976562 l 1
 144.998046875 625.000976562 l 2
 164.998046875 625.000976562 182.165039062 618.000976562 196.498046875 604.000976562 c 0
 210.831054688 590.000976562 217.998046875 572.66796875 217.998046875 552.000976562 c 2
 217.998046875 19.0009765625 l 1
 236.665039062 23.66796875 253.998046875 32.0009765625 269.998046875 44.0009765625 c 0
 283.331054688 54.0009765625 296.331054688 68.0009765625 308.998046875 86.0009765625 c 0
 321.665039062 104.000976562 330.665039062 128.000976562 335.998046875 158.000976562 c 1
 335.998046875 160.000976562 l 1
 335.998046875 158.000976562 l 1
 335.998046875 552.000976562 l 2
 335.998046875 572.66796875 343.165039062 590.000976562 357.498046875 604.000976562 c 0
 371.831054688 618.000976562 388.998046875 625.000976562 408.998046875 625.000976562 c 2
 512.998046875 625.000976562 l 1
 521.998046875 625.000976562 l 1
 522.998046875 625.000976562 l 2
 528.998046875 625.000976562 531.998046875 622.000976562 531.998046875 616.000976562 c 0
 531.998046875 612.000976562 530.331054688 609.333984375 526.998046875 608.000976562 c 2
 526.998046875 607.000976562 l 2
 525.665039062 606.333984375 523.33203125 604.666992188 519.999023438 602 c 0
 516.666015625 599.333007812 514.333007812 594.666015625 513 587.999023438 c 2
 513 17.9990234375 l 1
 532.5 24.4990234375 l 2
 543.5 28.166015625 555.5 35.166015625 568.5 45.4990234375 c 0
 581.5 55.83203125 594.166992188 69.83203125 606.5 87.4990234375 c 0
 618.833007812 105.166015625 627.333007812 128.333007812 632 157 c 1
 632 551 l 2
 632 571.666992188 639.166992188 589 653.5 603 c 0
 667.833007812 617 685 624 705 624 c 2
 721 624 l 1
 809 624 l 1
 818 624 l 2
 824.666992188 624 828 621 828 615 c 0
EndSplineSet
Validated: 524293
EndChar

StartChar: X
Encoding: 88 88 54
GlifName: X_
Width: 550
GlyphClass: 1
Flags: W
LayerCount: 2
Fore
SplineSet
520 16 m 0
 522 8 520.666015625 2.34375 515.999023438 -0.9892578125 c 2
 511.999023438 -2.9892578125 l 1
 391.999023438 -2.9892578125 l 1
 374.999023438 -2.9892578125 l 2
 372.999023438 -2.322265625 370.83203125 -1.822265625 368.499023438 -1.4892578125 c 0
 366.166015625 -1.15625 363.999023438 -0.3232421875 361.999023438 1.009765625 c 0
 350.666015625 4.3427734375 340.333007812 10.509765625 331 19.509765625 c 0
 321.666992188 28.509765625 314.333984375 39.3427734375 309.000976562 52.009765625 c 1
 308.000976562 53.009765625 l 1
 199.000976562 285.009765625 l 1
 186.333984375 269.676757812 173.500976562 253.676757812 160.500976562 237.009765625 c 0
 147.500976562 220.342773438 139.333984375 208.67578125 136.000976562 202.008789062 c 0
 133.333984375 196.67578125 132.500976562 192.508789062 133.500976562 189.508789062 c 0
 134.500976562 186.508789062 136.333984375 184.341796875 139.000976562 183.008789062 c 0
 141.66796875 181.008789062 145.334960938 180.008789062 150.001953125 180.008789062 c 2
 152.001953125 180.008789062 l 2
 165.334960938 180.67578125 178.16796875 179.008789062 190.500976562 175.008789062 c 0
 202.833984375 171.008789062 213.833984375 164.841796875 223.500976562 156.508789062 c 0
 233.16796875 148.17578125 241.000976562 138.17578125 247.000976562 126.508789062 c 0
 253.000976562 114.841796875 256.333984375 102.008789062 257.000976562 88.0087890625 c 0
 259.000976562 60.0087890625 251.16796875 35.841796875 233.500976562 15.5087890625 c 0
 215.833984375 -4.82421875 193.000976562 -15.9912109375 165.000976562 -17.9912109375 c 0
 143.66796875 -17.9912109375 122.500976562 -11.658203125 101.500976562 1.0087890625 c 0
 80.5009765625 13.67578125 63.5009765625 30.17578125 50.5009765625 50.5087890625 c 0
 37.5009765625 70.841796875 30.333984375 93.6748046875 29.0009765625 119.0078125 c 0
 27.66796875 144.340820312 35.66796875 170.0078125 53.0009765625 196.0078125 c 0
 64.333984375 211.340820312 81.1669921875 228.840820312 103.5 248.5078125 c 0
 125.833007812 268.174804688 152.666015625 291.674804688 183.999023438 319.0078125 c 1
 76.9990234375 546.0078125 l 2
 74.33203125 550.0078125 71.6650390625 554.340820312 68.998046875 559.0078125 c 0
 66.3310546875 563.0078125 63.6640625 567.340820312 60.9970703125 572.0078125 c 0
 58.330078125 576.674804688 55.330078125 581.0078125 51.9970703125 585.0078125 c 0
 48.6640625 588.340820312 46.1640625 591.173828125 44.4970703125 593.506835938 c 0
 42.830078125 595.83984375 41.330078125 597.672851562 39.9970703125 599.005859375 c 2
 36.9970703125 602.005859375 l 2
 33.6640625 603.338867188 31.6640625 605.671875 30.9970703125 609.004882812 c 0
 29.6640625 612.337890625 29.3310546875 615.670898438 29.998046875 619.00390625 c 0
 30.6650390625 622.336914062 32.33203125 624.669921875 34.9990234375 626.002929688 c 0
 35.666015625 626.002929688 36.3330078125 626.169921875 37 626.502929688 c 0
 37.6669921875 626.8359375 38.333984375 627.002929688 39.0009765625 627.002929688 c 2
 167.000976562 627.002929688 l 2
 175.66796875 627.002929688 183.000976562 625.669921875 189.000976562 623.002929688 c 0
 212.333984375 615.002929688 229.666992188 598.3359375 241 573.002929688 c 2
 347 347.002929688 l 1
 359.666992188 362.3359375 372 377.8359375 384 393.502929688 c 0
 396 409.169921875 403.333007812 420.002929688 406 426.002929688 c 0
 408.666992188 431.3359375 409.666992188 435.502929688 409 438.502929688 c 0
 408.333007812 441.502929688 406.666015625 443.669921875 403.999023438 445.002929688 c 0
 401.33203125 447.002929688 397.665039062 448.002929688 392.998046875 448.002929688 c 2
 390.998046875 448.002929688 l 2
 377.665039062 446.669921875 364.83203125 448.169921875 352.499023438 452.502929688 c 0
 340.166015625 456.8359375 329.166015625 463.168945312 319.499023438 471.501953125 c 0
 309.83203125 479.834960938 301.999023438 489.834960938 295.999023438 501.501953125 c 0
 289.999023438 513.168945312 286.666015625 526.001953125 285.999023438 540.001953125 c 0
 283.999023438 568.001953125 291.83203125 592.168945312 309.499023438 612.501953125 c 0
 327.166015625 632.834960938 349.999023438 644.001953125 377.999023438 646.001953125 c 0
 396.666015625 646.001953125 416.833007812 640.168945312 438.5 628.501953125 c 0
 460.166992188 616.834960938 478 601.16796875 492 581.500976562 c 0
 506 561.833984375 514 539.166992188 516 513.5 c 0
 518 487.833007812 509 460.666015625 489 431.999023438 c 0
 478.333007812 416.666015625 462.333007812 399.499023438 441 380.499023438 c 0
 419.666992188 361.499023438 394 338.999023438 364 312.999023438 c 1
 474 77.9990234375 l 1
 482 63.9990234375 l 2
 488 54.666015625 493.666992188 46.3330078125 499 39 c 2
 506.5 30 l 2
 508.166992188 28 509.666992188 26.3330078125 511 25 c 2
 514 22 l 2
 516.666992188 20.6669921875 518.666992188 18.6669921875 520 16 c 0
EndSplineSet
Validated: 524321
EndChar

StartChar: Y
Encoding: 89 89 55
GlifName: Y_
Width: 550
GlyphClass: 1
Flags: W
LayerCount: 2
Fore
SplineSet
530 625 m 0
 530 621 528.331054688 618.000976562 524.998046875 616.000976562 c 0
 524.331054688 615.333984375 522.331054688 613.666992188 518.998046875 611 c 0
 515.665039062 608.333007812 513.33203125 603.666015625 511.999023438 596.999023438 c 2
 511.999023438 346.999023438 l 2
 511.999023438 345.666015625 511.666015625 342.833007812 510.999023438 338.5 c 0
 510.33203125 334.166992188 509.33203125 328.666992188 507.999023438 322 c 0
 505.33203125 314 501.165039062 304.833007812 495.498046875 294.5 c 0
 489.831054688 284.166992188 481.498046875 274 470.498046875 264 c 0
 459.498046875 254 445.498046875 244.666992188 428.498046875 236 c 0
 411.498046875 227.333007812 389.998046875 220.666015625 363.998046875 215.999023438 c 1
 363.998046875 211.499023438 l 1
 363.998046875 191.499023438 l 1
 363.998046875 140.499023438 l 1
 363.998046875 43.9990234375 l 2
 363.998046875 35.33203125 365.998046875 29.33203125 369.998046875 25.9990234375 c 0
 373.998046875 22.666015625 376.331054688 20.666015625 376.998046875 19.9990234375 c 2
 377.998046875 18.9990234375 l 2
 381.331054688 17.666015625 382.998046875 14.9990234375 382.998046875 10.9990234375 c 0
 382.998046875 4.33203125 379.665039062 0.9990234375 372.998046875 0.9990234375 c 2
 363.998046875 0.9990234375 l 1
 274.998046875 0.9990234375 l 1
 186.998046875 0.9990234375 l 1
 186.998046875 1.9990234375 l 1
 186.998046875 0.9990234375 l 1
 176.998046875 0.9990234375 l 2
 170.998046875 0.9990234375 167.998046875 4.33203125 167.998046875 10.9990234375 c 0
 167.998046875 14.9990234375 169.665039062 17.666015625 172.998046875 18.9990234375 c 2
 172.998046875 19.9990234375 l 2
 174.331054688 20.666015625 176.998046875 22.666015625 180.998046875 25.9990234375 c 0
 184.998046875 29.33203125 186.998046875 35.33203125 186.998046875 43.9990234375 c 2
 186.998046875 45.9990234375 l 1
 186.998046875 209.999023438 l 2
 186.998046875 213.33203125 186.665039062 215.33203125 185.998046875 215.999023438 c 0
 152.665039062 222.666015625 126.33203125 232.333007812 106.999023438 245 c 0
 87.666015625 257.666992188 73.166015625 270.5 63.4990234375 283.5 c 0
 53.83203125 296.5 47.4990234375 308.666992188 44.4990234375 320 c 0
 41.4990234375 331.333007812 39.9990234375 339.333007812 39.9990234375 344 c 0
 39.33203125 346 38.9990234375 348.166992188 38.9990234375 350.5 c 2
 38.9990234375 357 l 1
 38.9990234375 596 l 2
 37.666015625 602.666992188 35.3330078125 607.5 32 610.5 c 0
 28.6669921875 613.5 26.333984375 615.333007812 25.0009765625 616 c 0
 21.66796875 618 20.0009765625 621 20.0009765625 625 c 0
 20.0009765625 631 23.0009765625 634 29.0009765625 634 c 2
 30.0009765625 634 l 1
 39.0009765625 634 l 1
 143.000976562 634 l 2
 163.000976562 634 180.16796875 626.833007812 194.500976562 612.5 c 0
 208.833984375 598.166992188 216.000976562 581 216.000976562 561 c 2
 217.000976562 305 l 2
 217.66796875 297 220.000976562 290 224.000976562 284 c 0
 227.333984375 278.666992188 233.000976562 274 241.000976562 270 c 0
 249.000976562 266 260.333984375 264 275.000976562 264 c 0
 289.66796875 264 301.16796875 266 309.500976562 270 c 0
 317.833984375 274 323.666992188 278.666992188 327 284 c 0
 331 290 333.333007812 297 334 305 c 2
 334 561 l 2
 334 581 341.166992188 598.166992188 355.5 612.5 c 0
 369.833007812 626.833007812 387.333007812 634 408 634 c 2
 512 634 l 1
 521 634 l 2
 527 634 530 631 530 625 c 0
EndSplineSet
Validated: 524293
EndChar

StartChar: Z
Encoding: 90 90 56
GlifName: Z_
Width: 550
GlyphClass: 1
Flags: W
LayerCount: 2
Fore
SplineSet
533 630 m 0
 535.666992188 628.666992188 537.498046875 626.33203125 538.498046875 622.999023438 c 0
 539.498046875 619.666015625 539.331054688 616.333007812 537.998046875 613 c 0
 537.331054688 609.666992188 535.331054688 607.333984375 531.998046875 606.000976562 c 0
 530.665039062 605.333984375 529.33203125 604.333984375 527.999023438 603.000976562 c 0
 526.666015625 601.66796875 525.166015625 599.834960938 523.499023438 597.501953125 c 0
 521.83203125 595.168945312 519.33203125 592.3359375 515.999023438 589.002929688 c 0
 512.666015625 585.002929688 509.333007812 580.669921875 506 576.002929688 c 0
 502.666992188 571.3359375 499.666992188 567.002929688 497 563.002929688 c 0
 494.333007812 558.3359375 491.333007812 554.002929688 488 550.002929688 c 2
 411 396.002929688 l 1
 239 54.0029296875 l 1
 238 53.0029296875 l 2
 236 47.669921875 233 42.669921875 229 38.0029296875 c 1
 262 38.0029296875 l 1
 265 38.0029296875 l 1
 267 38.0029296875 l 2
 281 38.0029296875 291.833007812 40.169921875 299.5 44.5029296875 c 0
 307.166992188 48.8359375 312.666992188 53.6689453125 316 59.001953125 c 0
 320 65.001953125 322.666992188 71.6689453125 324 79.001953125 c 2
 324 87.001953125 l 2
 324 111.668945312 332.666992188 132.501953125 350 149.501953125 c 0
 367.333007812 166.501953125 388 175.001953125 412 175.001953125 c 0
 433.333007812 175.001953125 452.166015625 168.334960938 468.499023438 155.001953125 c 0
 484.83203125 141.668945312 494.999023438 124.668945312 498.999023438 104.001953125 c 0
 499.666015625 100.668945312 500.166015625 97.8359375 500.499023438 95.5029296875 c 0
 500.83203125 93.169921875 500.999023438 90.3369140625 500.999023438 87.00390625 c 0
 500.999023438 62.3369140625 492.33203125 41.3369140625 474.999023438 24.00390625 c 0
 457.666015625 6.6708984375 436.666015625 -1.99609375 411.999023438 -1.99609375 c 2
 18.9990234375 -1.99609375 l 1
 18.9990234375 -0.99609375 l 1
 17.666015625 -0.99609375 16.3330078125 -0.6630859375 15 0.00390625 c 0
 9.6669921875 3.3369140625 8 9.00390625 10 17.00390625 c 0
 11.3330078125 20.3369140625 13.666015625 22.669921875 16.9990234375 24.0029296875 c 0
 17.666015625 24.0029296875 18.666015625 24.669921875 19.9990234375 26.0029296875 c 0
 21.33203125 27.3359375 22.9990234375 29.1689453125 24.9990234375 31.501953125 c 0
 26.9990234375 33.8349609375 29.666015625 37.001953125 32.9990234375 41.001953125 c 0
 36.33203125 44.3349609375 39.4990234375 48.3349609375 42.4990234375 53.001953125 c 0
 45.4990234375 57.6689453125 48.33203125 62.001953125 50.9990234375 66.001953125 c 0
 53.666015625 70.6689453125 56.666015625 75.001953125 59.9990234375 79.001953125 c 2
 310.999023438 577.001953125 l 2
 312.33203125 579.668945312 313.665039062 582.001953125 314.998046875 584.001953125 c 0
 316.331054688 586.001953125 317.6640625 588.334960938 318.997070312 591.001953125 c 1
 263.997070312 591.001953125 l 1
 261.997070312 591.001953125 l 2
 247.997070312 590.334960938 236.997070312 588.001953125 228.997070312 584.001953125 c 0
 220.997070312 580.001953125 215.330078125 575.334960938 211.997070312 570.001953125 c 0
 207.997070312 564.001953125 205.6640625 557.334960938 204.997070312 550.001953125 c 2
 204.997070312 542.001953125 l 2
 204.997070312 517.334960938 196.330078125 496.501953125 178.997070312 479.501953125 c 0
 161.6640625 462.501953125 140.997070312 454.001953125 116.997070312 454.001953125 c 0
 95.6640625 454.001953125 76.8310546875 460.668945312 60.498046875 474.001953125 c 0
 44.1650390625 487.334960938 33.998046875 504.334960938 29.998046875 525.001953125 c 0
 29.3310546875 528.334960938 28.8310546875 531.16796875 28.498046875 533.500976562 c 0
 28.1650390625 535.833984375 27.998046875 538.666992188 27.998046875 542 c 0
 27.998046875 566.666992188 36.6650390625 587.666992188 53.998046875 605 c 0
 71.3310546875 622.333007812 92.3310546875 631 116.998046875 631 c 2
 528.998046875 631 l 2
 529.665039062 631 530.33203125 630.833007812 530.999023438 630.5 c 0
 531.666015625 630.166992188 532.333007812 630 533 630 c 0
EndSplineSet
Validated: 524289
EndChar

StartChar: backslash
Encoding: 92 92 57
GlifName: backslash
Width: 400
GlyphClass: 1
Flags: W
LayerCount: 2
Fore
SplineSet
291 4 m 0
 269.666992188 -2 249.666992188 0.1669921875 231 10.5 c 0
 212.333007812 20.8330078125 200.333007812 36.666015625 195 57.9990234375 c 2
 55 558.999023438 l 2
 49.6669921875 579.666015625 52.1669921875 599.333007812 62.5 618 c 0
 72.8330078125 636.666992188 88.3330078125 649 109 655 c 0
 129.666992188 660.333007812 149.5 657.833007812 168.5 647.5 c 0
 187.5 637.166992188 199.666992188 621.333984375 205 600.000976562 c 2
 345 99.0009765625 l 2
 350.333007812 78.333984375 347.833007812 58.6669921875 337.5 40 c 0
 327.166992188 21.3330078125 311.666992188 9.3330078125 291 4 c 0
EndSplineSet
Validated: 524321
EndChar

StartChar: asciicircum
Encoding: 94 94 58
GlifName: asciicircum
Width: 350
GlyphClass: 1
Flags: W
LayerCount: 2
Fore
SplineSet
290 709 m 2
 290 697 285.831054688 686.831054688 277.498046875 678.498046875 c 0
 269.165039062 670.165039062 258.998046875 665.998046875 246.998046875 665.998046875 c 0
 235.665039062 665.998046875 225.665039062 670.165039062 216.998046875 678.498046875 c 0
 208.331054688 686.831054688 203.998046875 696.998046875 203.998046875 708.998046875 c 2
 203.998046875 733.998046875 l 2
 203.331054688 737.998046875 201.998046875 741.331054688 199.998046875 743.998046875 c 0
 197.998046875 746.665039062 195.331054688 748.998046875 191.998046875 750.998046875 c 0
 188.665039062 752.998046875 183.33203125 753.998046875 175.999023438 753.998046875 c 0
 168.666015625 753.998046875 163.166015625 752.998046875 159.499023438 750.998046875 c 0
 155.83203125 748.998046875 152.999023438 746.665039062 150.999023438 743.998046875 c 0
 148.33203125 741.331054688 146.999023438 737.998046875 146.999023438 733.998046875 c 2
 146.999023438 707.998046875 l 2
 146.33203125 696.665039062 141.83203125 686.83203125 133.499023438 678.499023438 c 0
 125.166015625 670.166015625 115.333007812 665.999023438 104 665.999023438 c 0
 92 665.999023438 81.8330078125 670.166015625 73.5 678.499023438 c 0
 65.1669921875 686.83203125 61 696.999023438 61 708.999023438 c 2
 61 713.999023438 l 2
 61.6669921875 725.999023438 66 736.999023438 74 746.999023438 c 0
 81.3330078125 755.666015625 92.5 763.499023438 107.5 770.499023438 c 0
 122.5 777.499023438 145 780.999023438 175 780.999023438 c 0
 201.666992188 780.999023438 222.5 777.999023438 237.5 771.999023438 c 0
 252.5 765.999023438 263.833007812 759.33203125 271.5 751.999023438 c 0
 279.166992188 744.666015625 284.166992188 737.333007812 286.5 730 c 0
 288.833007812 722.666992188 290 717.666992188 290 715 c 2
 290 709 l 2
EndSplineSet
Validated: 524289
EndChar

StartChar: grave
Encoding: 96 96 59
GlifName: grave
Width: 350
GlyphClass: 1
Flags: W
LayerCount: 2
Fore
SplineSet
238 634 m 0
 247.333007812 632 255.830078125 629.50390625 263.497070312 626.50390625 c 0
 271.1640625 623.50390625 275.331054688 621.00390625 275.998046875 619.00390625 c 0
 276.665039062 617.00390625 272.33203125 616.00390625 262.999023438 616.00390625 c 0
 253.666015625 616.00390625 236.666015625 618.00390625 211.999023438 622.00390625 c 0
 187.33203125 626.00390625 166.83203125 631.50390625 150.499023438 638.50390625 c 0
 134.166015625 645.50390625 120.833007812 653.170898438 110.5 661.50390625 c 0
 100.166992188 669.836914062 92.5 678.169921875 87.5 686.502929688 c 0
 82.5 694.8359375 79 702.668945312 77 710.001953125 c 0
 75 716.001953125 74 721.334960938 74 726.001953125 c 2
 74 736.001953125 l 2
 74 737.334960938 74.1669921875 738.834960938 74.5 740.501953125 c 0
 74.8330078125 742.168945312 75 743.668945312 75 745.001953125 c 0
 77.6669921875 760.334960938 85.5 772.66796875 98.5 782.000976562 c 0
 111.5 791.333984375 126 794.666992188 142 792 c 0
 158 789.333007812 170.666992188 781.5 180 768.5 c 0
 189.333007812 755.5 192.333007812 741 189 725 c 2
 188 715 l 1
 186 705 l 2
 184.666992188 698.333007812 184 693.666015625 184 690.999023438 c 0
 185.333007812 680.999023438 189.833007812 669.83203125 197.5 657.499023438 c 0
 205.166992188 645.166015625 218.666992188 637.333007812 238 634 c 0
EndSplineSet
Validated: 524321
EndChar

StartChar: a
Encoding: 97 97 60
GlifName: a
Width: 550
GlyphClass: 1
Flags: W
LayerCount: 2
Fore
SplineSet
520 0 m 1
 460.998046875 0.0009765625 l 1
 420.498046875 0.0009765625 l 2
 408.165039062 0.0009765625 402.33203125 0.333984375 402.999023438 1.0009765625 c 1
 381.666015625 3.0009765625 363.666015625 11.333984375 348.999023438 26.0009765625 c 0
 334.33203125 40.66796875 325.999023438 58.66796875 323.999023438 80.0009765625 c 1
 317.33203125 64.66796875 307.665039062 51.3349609375 294.998046875 40.001953125 c 0
 282.331054688 28.6689453125 267.998046875 19.501953125 251.998046875 12.501953125 c 0
 235.998046875 5.501953125 219.165039062 0.6689453125 201.498046875 -1.998046875 c 0
 183.831054688 -4.6650390625 166.998046875 -5.33203125 150.998046875 -3.9990234375 c 0
 134.998046875 -2.666015625 119.665039062 0.5009765625 104.998046875 5.5009765625 c 0
 90.3310546875 10.5009765625 77.3310546875 18.0009765625 65.998046875 28.0009765625 c 0
 54.6650390625 38.0009765625 45.6650390625 51.0009765625 38.998046875 67.0009765625 c 0
 32.3310546875 83.0009765625 28.998046875 102.66796875 28.998046875 126.000976562 c 0
 28.998046875 150.66796875 35.3310546875 171.66796875 47.998046875 189.000976562 c 0
 60.6650390625 206.333984375 75.498046875 220.833984375 92.498046875 232.500976562 c 0
 109.498046875 244.16796875 126.998046875 253.000976562 144.998046875 259.000976562 c 0
 162.998046875 265.000976562 177.331054688 269.000976562 187.998046875 271.000976562 c 0
 203.998046875 273.66796875 219.165039062 277.500976562 233.498046875 282.500976562 c 0
 247.831054688 287.500976562 260.831054688 292.66796875 272.498046875 298.000976562 c 0
 284.165039062 303.333984375 293.998046875 308.333984375 301.998046875 313.000976562 c 0
 309.998046875 317.66796875 315.998046875 321.000976562 319.998046875 323.000976562 c 0
 321.331054688 327.000976562 322.331054688 332.500976562 322.998046875 339.500976562 c 0
 323.665039062 346.500976562 323.998046875 353.500976562 323.998046875 360.500976562 c 2
 323.998046875 380.500976562 l 1
 323.998046875 394.000976562 l 2
 323.998046875 396.000976562 323.831054688 399.000976562 323.498046875 403.000976562 c 0
 323.165039062 407.000976562 322.665039062 411.16796875 321.998046875 415.500976562 c 0
 321.331054688 419.833984375 320.498046875 424.000976562 319.498046875 428.000976562 c 0
 318.498046875 432.000976562 317.665039062 434.66796875 316.998046875 436.000976562 c 0
 312.998046875 441.333984375 307.165039062 446.000976562 299.498046875 450.000976562 c 0
 291.831054688 454.000976562 280.331054688 456.000976562 264.998046875 456.000976562 c 0
 249.665039062 456.000976562 237.998046875 454.000976562 229.998046875 450.000976562 c 0
 221.998046875 446.000976562 216.331054688 441.333984375 212.998046875 436.000976562 c 0
 208.998046875 430.000976562 206.665039062 423.333984375 205.998046875 416.000976562 c 2
 205.998046875 361.000976562 l 2
 205.331054688 339.66796875 197.998046875 321.000976562 183.998046875 305.000976562 c 0
 169.998046875 289.000976562 152.665039062 279.333984375 131.998046875 276.000976562 c 0
 128.665039062 275.333984375 123.665039062 275.000976562 116.998046875 275.000976562 c 0
 92.3310546875 275.000976562 71.498046875 283.500976562 54.498046875 300.500976562 c 0
 37.498046875 317.500976562 28.998046875 338.333984375 28.998046875 363.000976562 c 2
 28.998046875 373.000976562 l 1
 28.998046875 377.000976562 l 2
 29.6650390625 396.333984375 34.33203125 413.000976562 42.9990234375 427.000976562 c 0
 51.666015625 441.000976562 62.9990234375 452.66796875 76.9990234375 462.000976562 c 0
 94.33203125 474.66796875 113.83203125 484.334960938 135.499023438 491.001953125 c 0
 157.166015625 497.668945312 177.666015625 502.668945312 196.999023438 506.001953125 c 0
 218.999023438 509.334960938 241.666015625 511.334960938 264.999023438 512.001953125 c 0
 276.999023438 512.001953125 289.666015625 511.334960938 302.999023438 510.001953125 c 0
 314.33203125 508.668945312 327.33203125 507.001953125 341.999023438 505.001953125 c 0
 356.666015625 503.001953125 371.666015625 500.001953125 386.999023438 496.001953125 c 0
 412.33203125 488.001953125 432.499023438 478.001953125 447.499023438 466.001953125 c 0
 462.499023438 454.001953125 473.999023438 442.168945312 481.999023438 430.501953125 c 0
 489.999023438 418.834960938 495.166015625 408.001953125 497.499023438 398.001953125 c 0
 499.83203125 388.001953125 500.999023438 381.001953125 500.999023438 377.001953125 c 2
 500.999023438 158.001953125 l 2
 500.999023438 128.001953125 501.83203125 103.168945312 503.499023438 83.501953125 c 0
 505.166015625 63.8349609375 507.333007812 47.66796875 510 35.0009765625 c 0
 512.666992188 20.333984375 516 8.6669921875 520 0 c 1
321.998046875 299.000976562 m 1
 308.665039062 285.000976562 294.498046875 273.668945312 279.498046875 265.001953125 c 0
 264.498046875 256.334960938 250.165039062 248.001953125 236.498046875 240.001953125 c 0
 222.831054688 232.001953125 210.998046875 223.001953125 200.998046875 213.001953125 c 0
 190.998046875 203.001953125 183.998046875 189.668945312 179.998046875 173.001953125 c 0
 177.331054688 160.334960938 177.831054688 148.16796875 181.498046875 136.500976562 c 0
 185.165039062 124.833984375 191.165039062 114.833984375 199.498046875 106.500976562 c 0
 207.831054688 98.16796875 217.998046875 92.3349609375 229.998046875 89.001953125 c 0
 241.998046875 85.6689453125 254.998046875 85.6689453125 268.998046875 89.001953125 c 0
 280.331054688 91.6689453125 289.331054688 95.1689453125 295.998046875 99.501953125 c 0
 302.665039062 103.834960938 307.998046875 107.66796875 311.998046875 111.000976562 c 0
 316.665039062 115.000976562 319.998046875 119.333984375 321.998046875 124.000976562 c 2
 321.998046875 299.000976562 l 1
EndSplineSet
Validated: 524321
EndChar

StartChar: b
Encoding: 98 98 61
GlifName: b
Width: 550
GlyphClass: 1
Flags: W
LayerCount: 2
Fore
SplineSet
521 349 m 2
 521 333 520.83203125 307.498046875 520.499023438 272.498046875 c 0
 520.166015625 237.498046875 519.999023438 188.331054688 519.999023438 124.998046875 c 0
 518.666015625 116.998046875 514.999023438 105.831054688 508.999023438 91.498046875 c 0
 502.999023438 77.1650390625 491.666015625 62.998046875 474.999023438 48.998046875 c 0
 458.33203125 34.998046875 434.83203125 22.998046875 404.499023438 12.998046875 c 0
 374.166015625 2.998046875 334.333007812 -2.001953125 285 -2.001953125 c 2
 161 -2.001953125 l 2
 127 -2.001953125 89.3330078125 -1.6689453125 48 -1.001953125 c 1
 48 584.998046875 l 2
 48 593.665039062 46 599.83203125 42 603.499023438 c 0
 38 607.166015625 35.3330078125 609.333007812 34 610 c 0
 30.6669921875 611.333007812 29 614 29 618 c 0
 29 624.666992188 32.3330078125 628 39 628 c 2
 48 628 l 1
 137 628 l 2
 149 628 160.333007812 625.666992188 171 621 c 0
 181.666992188 616.333007812 191 610 199 602 c 0
 207 594 213.333007812 584.5 218 573.5 c 0
 222.666992188 562.5 225 551 225 539 c 2
 225 346 l 1
 246.333007812 374 264.833007812 398.166992188 280.5 418.5 c 0
 296.166992188 438.833007812 310.666992188 454.333007812 324 465 c 0
 333.333007812 472.333007812 342.666015625 477.5 351.999023438 480.5 c 0
 361.33203125 483.5 369.665039062 485.666992188 376.998046875 487 c 0
 385.665039062 488.333007812 394.33203125 488.666015625 402.999023438 487.999023438 c 0
 420.999023438 487.999023438 436.33203125 485.666015625 448.999023438 480.999023438 c 0
 461.666015625 476.33203125 472.333007812 470.33203125 481 462.999023438 c 0
 489.666992188 455.666015625 496.5 447.833007812 501.5 439.5 c 0
 506.5 431.166992188 510.666992188 423 514 415 c 0
 516 409.666992188 517.666992188 404.166992188 519 398.5 c 0
 520.333007812 392.833007812 521 387 521 381 c 2
 521 349 l 2
343.999023438 328.998046875 m 2
 343.999023438 344.998046875 342.497070312 356.661132812 339.497070312 363.994140625 c 0
 336.497070312 371.327148438 332.830078125 376.327148438 328.497070312 378.994140625 c 0
 324.1640625 381.661132812 319.831054688 382.328125 315.498046875 380.995117188 c 0
 311.165039062 379.662109375 307.665039062 378.329101562 304.998046875 376.99609375 c 0
 298.331054688 371.663085938 290.998046875 365.330078125 282.998046875 357.997070312 c 0
 274.998046875 350.6640625 267.165039062 343.331054688 259.498046875 335.998046875 c 0
 251.831054688 328.665039062 244.831054688 321.998046875 238.498046875 315.998046875 c 0
 232.165039062 309.998046875 227.665039062 305.665039062 224.998046875 302.998046875 c 2
 225.998046875 93.998046875 l 2
 226.665039062 86.6650390625 228.998046875 79.998046875 232.998046875 73.998046875 c 0
 236.331054688 68.6650390625 241.998046875 63.998046875 249.998046875 59.998046875 c 0
 257.998046875 55.998046875 269.665039062 53.998046875 284.998046875 53.998046875 c 0
 299.665039062 53.998046875 310.83203125 55.998046875 318.499023438 59.998046875 c 0
 326.166015625 63.998046875 331.999023438 68.6650390625 335.999023438 73.998046875 c 0
 339.999023438 79.998046875 342.666015625 86.6650390625 343.999023438 93.998046875 c 2
 343.999023438 328.998046875 l 2
EndSplineSet
Validated: 524289
EndChar

StartChar: c
Encoding: 99 99 62
GlifName: c
Width: 550
GlyphClass: 1
Flags: W
LayerCount: 2
Fore
SplineSet
423 237 m 0
 447.666992188 237 468.666992188 228.333984375 486 211.000976562 c 0
 503.333007812 193.66796875 512 172.66796875 512 148.000976562 c 0
 512 145.333984375 511.833007812 143.000976562 511.5 141.000976562 c 0
 511.166992188 139.000976562 511 137.000976562 511 135.000976562 c 0
 510.333007812 129.66796875 507.833007812 119.500976562 503.5 104.500976562 c 0
 499.166992188 89.5009765625 489.166992188 74.16796875 473.5 58.5009765625 c 0
 457.833007812 42.833984375 434.333007812 29.0009765625 403 17.0009765625 c 0
 371.666992188 5.0009765625 328.666992188 -0.9990234375 274 -0.9990234375 c 0
 230 -0.9990234375 193.666992188 3.16796875 165 11.5009765625 c 0
 136.333007812 19.833984375 113.333007812 30.0009765625 96 42.0009765625 c 0
 78.6669921875 54.0009765625 66 66.5009765625 58 79.5009765625 c 0
 50 92.5009765625 44.6669921875 104.000976562 42 114.000976562 c 2
 39 129.000976562 l 1
 39 138.000976562 l 1
 39 384.000976562 l 2
 39.6669921875 409.333984375 48.6669921875 432.333984375 66 453.000976562 c 0
 73.3330078125 461.66796875 82.666015625 470.16796875 93.9990234375 478.500976562 c 0
 105.33203125 486.833984375 119.33203125 494.333984375 135.999023438 501.000976562 c 0
 152.666015625 507.66796875 172.333007812 513.000976562 195 517.000976562 c 0
 217.666992188 521.000976562 244 523.000976562 274 523.000976562 c 0
 328.666992188 523.000976562 371.666992188 517.000976562 403 505.000976562 c 0
 434.333007812 493.000976562 457.833007812 479.16796875 473.5 463.500976562 c 0
 489.166992188 447.833984375 499.166992188 432.666992188 503.5 418 c 0
 507.833007812 403.333007812 510.333007812 393.333007812 511 388 c 0
 511 385.333007812 511.166992188 383 511.5 381 c 0
 511.833007812 379 512 376.666992188 512 374 c 0
 512 349.333007812 503.333007812 328.5 486 311.5 c 0
 468.666992188 294.5 447.666992188 286 423 286 c 0
 398.333007812 286 377.5 294.5 360.5 311.5 c 0
 343.5 328.5 335 349.333007812 335 374 c 2
 334 427 l 2
 333.333007812 434.333007812 331 441 327 447 c 0
 323.666992188 452.333007812 317.833984375 457 309.500976562 461 c 0
 301.16796875 465 289.66796875 467 275.000976562 467 c 0
 259.66796875 467 248.000976562 465 240.000976562 461 c 0
 232.000976562 457 226.333984375 452.333007812 223.000976562 447 c 0
 219.000976562 441 216.66796875 434.333007812 216.000976562 427 c 2
 216.000976562 96 l 2
 216.66796875 88 219.000976562 81 223.000976562 75 c 0
 226.333984375 69.6669921875 232.000976562 65 240.000976562 61 c 0
 248.000976562 57 259.66796875 55 275.000976562 55 c 0
 289.66796875 55 301.16796875 57 309.500976562 61 c 0
 317.833984375 65 323.666992188 69.6669921875 327 75 c 0
 331 81 333.333007812 87.6669921875 334 95 c 2
 335 148 l 2
 335 172.666992188 343.5 193.666992188 360.5 211 c 0
 377.5 228.333007812 398.333007812 237 423 237 c 0
EndSplineSet
Validated: 524289
EndChar

StartChar: d
Encoding: 100 100 63
GlifName: d
Width: 550
GlyphClass: 1
Flags: W
LayerCount: 2
Fore
SplineSet
501 151 m 2
 500.333007812 121 501.16796875 96.3349609375 503.500976562 77.001953125 c 0
 505.833984375 57.6689453125 508.333984375 42.3359375 511.000976562 31.0029296875 c 0
 513.66796875 17.669921875 517.000976562 7.0029296875 521.000976562 -0.9970703125 c 1
 403.000976562 0.0029296875 l 2
 381.66796875 2.669921875 363.834960938 11.3369140625 349.501953125 26.00390625 c 0
 335.168945312 40.6708984375 327.001953125 58.6708984375 325.001953125 80.00390625 c 1
 324.334960938 79.3369140625 324.001953125 84.669921875 324.001953125 96.0029296875 c 2
 324.001953125 142.002929688 l 1
 302.668945312 114.002929688 284.168945312 89.669921875 268.501953125 69.0029296875 c 0
 252.834960938 48.3359375 238.334960938 32.6689453125 225.001953125 22.001953125 c 0
 209.668945312 10.001953125 192.501953125 2.501953125 173.501953125 -0.498046875 c 0
 154.501953125 -3.498046875 136.001953125 -2.6650390625 118.001953125 2.001953125 c 0
 100.001953125 6.6689453125 83.6689453125 15.1689453125 69.001953125 27.501953125 c 0
 54.3349609375 39.8349609375 43.3349609375 55.001953125 36.001953125 73.001953125 c 0
 31.3349609375 84.3349609375 29.001953125 95.66796875 29.001953125 107.000976562 c 2
 29.001953125 319.000976562 l 2
 29.001953125 342.333984375 34.1689453125 364.666992188 44.501953125 386 c 0
 54.8349609375 407.333007812 69.66796875 425 89.0009765625 439 c 0
 106.333984375 452.333007812 129.333984375 464.166015625 158.000976562 474.499023438 c 0
 186.66796875 484.83203125 222.000976562 489.999023438 264.000976562 489.999023438 c 0
 285.333984375 489.999023438 305.000976562 488.999023438 323.000976562 486.999023438 c 1
 323.000976562 628.999023438 l 1
 500.000976562 628.999023438 l 1
 509.000976562 628.999023438 l 1
 510.000976562 628.999023438 l 2
 516.000976562 628.999023438 519.000976562 625.666015625 519.000976562 618.999023438 c 0
 519.000976562 614.999023438 517.333984375 612.33203125 514.000976562 610.999023438 c 0
 512.66796875 610.33203125 510.16796875 608.33203125 506.500976562 604.999023438 c 0
 502.833984375 601.666015625 500.666992188 596.333007812 500 589 c 2
 501 151 l 2
323.001953125 398.001953125 m 2
 322.334960938 400.668945312 321.16796875 404.000976562 319.500976562 408.000976562 c 0
 317.833984375 412.000976562 314.833984375 416.000976562 310.500976562 420.000976562 c 0
 306.16796875 424.000976562 300.334960938 427.333984375 293.001953125 430.000976562 c 0
 285.668945312 432.66796875 276.3359375 434.000976562 265.002929688 434.000976562 c 0
 249.669921875 434.000976562 238.002929688 431.833984375 230.002929688 427.500976562 c 0
 222.002929688 423.16796875 216.3359375 418.334960938 213.002929688 413.001953125 c 0
 209.002929688 407.001953125 206.669921875 400.334960938 206.002929688 393.001953125 c 2
 206.002929688 158.001953125 l 2
 206.002929688 140.001953125 208.002929688 127.501953125 212.002929688 120.501953125 c 0
 216.002929688 113.501953125 220.502929688 109.334960938 225.502929688 108.001953125 c 0
 230.502929688 106.668945312 235.169921875 107.001953125 239.502929688 109.001953125 c 0
 243.8359375 111.001953125 246.668945312 112.668945312 248.001953125 114.001953125 c 0
 254.668945312 119.334960938 261.668945312 125.334960938 269.001953125 132.001953125 c 0
 276.334960938 138.668945312 283.501953125 145.3359375 290.501953125 152.002929688 c 0
 297.501953125 158.669921875 303.834960938 164.669921875 309.501953125 170.002929688 c 0
 315.168945312 175.3359375 319.668945312 179.668945312 323.001953125 183.001953125 c 2
 323.001953125 398.001953125 l 2
EndSplineSet
Validated: 524321
EndChar

StartChar: e
Encoding: 101 101 64
GlifName: e
Width: 550
GlyphClass: 1
Flags: W
LayerCount: 2
Fore
SplineSet
422 235 m 0
 446.666992188 235 467.668945312 226.497070312 485.001953125 209.497070312 c 0
 502.334960938 192.497070312 511.001953125 171.6640625 511.001953125 146.997070312 c 0
 511.001953125 138.997070312 509.168945312 126.6640625 505.501953125 109.997070312 c 0
 501.834960938 93.330078125 492.334960938 76.830078125 477.001953125 60.4970703125 c 0
 461.668945312 44.1640625 438.168945312 29.6640625 406.501953125 16.9970703125 c 0
 374.834960938 4.330078125 330.66796875 -2.0029296875 274.000976562 -2.0029296875 c 0
 229.333984375 -2.0029296875 192.666992188 2.1640625 164 10.4970703125 c 0
 135.333007812 18.830078125 112.333007812 28.9970703125 95 40.9970703125 c 0
 77.6669921875 52.9970703125 65 65.4970703125 57 78.4970703125 c 0
 49 91.4970703125 43.6669921875 102.997070312 41 112.997070312 c 2
 38 128.997070312 l 1
 38 141.497070312 l 1
 38 170.997070312 l 1
 38 211.497070312 l 1
 38 257.997070312 l 1
 38 382.997070312 l 2
 39.3330078125 408.330078125 48.666015625 431.330078125 65.9990234375 451.997070312 c 0
 73.33203125 460.6640625 82.6650390625 469.1640625 93.998046875 477.497070312 c 0
 105.331054688 485.830078125 119.1640625 493.330078125 135.497070312 499.997070312 c 0
 151.830078125 506.6640625 171.497070312 511.997070312 194.497070312 515.997070312 c 0
 217.497070312 519.997070312 243.997070312 521.997070312 273.997070312 521.997070312 c 0
 323.997070312 521.997070312 364.1640625 516.830078125 394.497070312 506.497070312 c 0
 424.830078125 496.1640625 448.330078125 483.831054688 464.997070312 469.498046875 c 0
 481.6640625 455.165039062 492.831054688 440.83203125 498.498046875 426.499023438 c 0
 504.165039062 412.166015625 507.665039062 400.999023438 508.998046875 392.999023438 c 0
 510.998046875 382.999023438 511.665039062 373.666015625 510.998046875 364.999023438 c 0
 510.331054688 360.33203125 509.331054688 355.665039062 507.998046875 350.998046875 c 0
 506.665039062 346.331054688 505.33203125 341.998046875 503.999023438 337.998046875 c 2
 502.999023438 336.998046875 l 2
 500.999023438 332.331054688 498.33203125 327.6640625 494.999023438 322.997070312 c 0
 491.666015625 317.6640625 485.999023438 311.831054688 477.999023438 305.498046875 c 0
 469.999023438 299.165039062 459.33203125 293.33203125 445.999023438 287.999023438 c 0
 434.666015625 282.666015625 419.833007812 276.666015625 401.5 269.999023438 c 0
 383.166992188 263.33203125 363.166992188 256.33203125 341.5 248.999023438 c 0
 319.833007812 241.666015625 298 234.333007812 276 227 c 0
 254 219.666992188 233.666992188 213 215 207 c 1
 215 137 l 1
 215 94 l 2
 215.666992188 86.6669921875 218.333984375 80 223.000976562 74 c 0
 226.333984375 68.6669921875 232.000976562 64 240.000976562 60 c 0
 248.000976562 56 259.333984375 54 274.000976562 54 c 0
 288.66796875 54 300.16796875 56 308.500976562 60 c 0
 316.833984375 64 322.666992188 68.6669921875 326 74 c 0
 330 80 332.333007812 86.6669921875 333 94 c 2
 334 147 l 2
 334 171.666992188 342.666992188 192.5 360 209.5 c 0
 377.333007812 226.5 398 235 422 235 c 0
215.001953125 382.997070312 m 1
 215.001953125 242.998046875 l 1
 244.334960938 255.665039062 266.834960938 267.165039062 282.501953125 277.498046875 c 0
 298.168945312 287.831054688 309.668945312 296.6640625 317.001953125 303.997070312 c 0
 325.668945312 311.997070312 331.001953125 319.330078125 333.001953125 325.997070312 c 2
 333.001953125 425.997070312 l 2
 332.334960938 433.330078125 330.001953125 439.997070312 326.001953125 445.997070312 c 0
 322.668945312 451.330078125 316.8359375 455.997070312 308.502929688 459.997070312 c 0
 300.169921875 463.997070312 288.669921875 465.997070312 274.002929688 465.997070312 c 0
 259.3359375 465.997070312 248.002929688 463.997070312 240.002929688 459.997070312 c 0
 232.002929688 455.997070312 226.3359375 451.330078125 223.002929688 445.997070312 c 0
 218.3359375 439.997070312 215.668945312 433.330078125 215.001953125 425.997070312 c 2
 215.001953125 382.997070312 l 1
EndSplineSet
Validated: 524289
EndChar

StartChar: f
Encoding: 102 102 65
GlifName: f
Width: 550
GlyphClass: 1
Flags: W
LayerCount: 2
Fore
SplineSet
216 242 m 1
 222 238.666992188 227.662109375 237.166992188 232.995117188 237.5 c 0
 238.328125 237.833007812 242.661132812 238.666015625 245.994140625 239.999023438 c 0
 249.994140625 241.999023438 253.994140625 244.33203125 257.994140625 246.999023438 c 2
 293.994140625 281.999023438 l 2
 301.994140625 289.999023438 310.994140625 295.83203125 320.994140625 299.499023438 c 0
 330.994140625 303.166015625 341.161132812 304.999023438 351.494140625 304.999023438 c 0
 361.827148438 304.999023438 371.827148438 302.999023438 381.494140625 298.999023438 c 0
 391.161132812 294.999023438 399.994140625 288.999023438 407.994140625 280.999023438 c 0
 423.994140625 264.999023438 431.994140625 245.666015625 431.994140625 222.999023438 c 0
 431.994140625 200.33203125 423.994140625 180.999023438 407.994140625 164.999023438 c 0
 405.327148438 162.33203125 402.994140625 160.33203125 400.994140625 158.999023438 c 1
 401.994140625 158.999023438 l 1
 387.994140625 146.33203125 371.994140625 137.999023438 353.994140625 133.999023438 c 0
 337.994140625 130.666015625 318.494140625 130.833007812 295.494140625 134.5 c 0
 272.494140625 138.166992188 245.994140625 150.666992188 215.994140625 172 c 1
 215.994140625 30 l 2
 216.661132812 24 217.994140625 19 219.994140625 15 c 0
 221.327148438 11 223.327148438 7.5 225.994140625 4.5 c 0
 228.661132812 1.5 232.328125 0 236.995117188 0 c 1
 38.9951171875 0 l 1
 38.9951171875 504 l 2
 39.662109375 511.333007812 42.4951171875 521.166015625 47.4951171875 533.499023438 c 0
 52.4951171875 545.83203125 61.328125 558.33203125 73.9951171875 570.999023438 c 0
 86.662109375 583.666015625 104.329101562 595.333007812 126.99609375 606 c 0
 149.663085938 616.666992188 179.330078125 624 215.997070312 628 c 0
 232.6640625 630 251.6640625 631 272.997070312 631 c 0
 295.6640625 631 320.831054688 628.833007812 348.498046875 624.5 c 0
 376.165039062 620.166992188 401.998046875 612.5 425.998046875 601.5 c 0
 449.998046875 590.5 470.165039062 575.333007812 486.498046875 556 c 0
 502.831054688 536.666992188 510.998046875 512 510.998046875 482 c 0
 510.998046875 457.333007812 502.331054688 436.333007812 484.998046875 419 c 0
 467.665039062 401.666992188 446.665039062 393 421.998046875 393 c 0
 397.331054688 393 376.498046875 401.666992188 359.498046875 419 c 0
 342.498046875 436.333007812 333.998046875 457.333007812 333.998046875 482 c 2
 332.998046875 535 l 2
 332.331054688 542.333007812 329.998046875 549 325.998046875 555 c 0
 322.665039062 560.333007812 316.83203125 565 308.499023438 569 c 0
 300.166015625 573 288.666015625 575 273.999023438 575 c 0
 262.666015625 575 253.333007812 573.666992188 246 571 c 0
 238.666992188 568.333007812 232.833984375 565 228.500976562 561 c 0
 224.16796875 557 221.16796875 553 219.500976562 549 c 0
 217.833984375 545 216.666992188 541.666992188 216 539 c 2
 216 242 l 1
EndSplineSet
Validated: 524321
EndChar

StartChar: g
Encoding: 103 103 66
GlifName: g
Width: 550
GlyphClass: 1
Flags: W
LayerCount: 2
Fore
SplineSet
520 486 m 0
 520 482 518.325195312 478.999023438 514.9921875 476.999023438 c 0
 513.659179688 476.33203125 511.326171875 474.499023438 507.993164062 471.499023438 c 0
 504.66015625 468.499023438 502.327148438 463.33203125 500.994140625 455.999023438 c 2
 501.994140625 -104.000976562 l 2
 501.994140625 -106.66796875 501.161132812 -112.834960938 499.494140625 -122.501953125 c 0
 497.827148438 -132.168945312 493.327148438 -143.3359375 485.994140625 -156.002929688 c 0
 479.994140625 -166.002929688 471.827148438 -176.002929688 461.494140625 -186.002929688 c 0
 451.161132812 -196.002929688 437.328125 -205.169921875 419.995117188 -213.502929688 c 0
 402.662109375 -221.8359375 381.329101562 -228.668945312 355.99609375 -234.001953125 c 0
 330.663085938 -239.334960938 300.663085938 -242.001953125 265.99609375 -242.001953125 c 0
 243.329101562 -242.001953125 218.329101562 -239.834960938 190.99609375 -235.501953125 c 0
 163.663085938 -231.168945312 137.99609375 -223.501953125 113.99609375 -212.501953125 c 0
 89.99609375 -201.501953125 69.8291015625 -186.334960938 53.49609375 -167.001953125 c 0
 37.1630859375 -147.668945312 28.99609375 -122.668945312 28.99609375 -92.001953125 c 0
 28.99609375 -80.001953125 31.3291015625 -68.8349609375 35.99609375 -58.501953125 c 0
 40.6630859375 -48.1689453125 46.830078125 -39.001953125 54.4970703125 -31.001953125 c 0
 62.1640625 -23.001953125 71.3310546875 -16.6689453125 81.998046875 -12.001953125 c 0
 92.6650390625 -7.3349609375 103.998046875 -5.001953125 115.998046875 -5.001953125 c 0
 127.998046875 -5.001953125 139.498046875 -7.1689453125 150.498046875 -11.501953125 c 0
 161.498046875 -15.8349609375 171.165039062 -22.001953125 179.498046875 -30.001953125 c 0
 187.831054688 -38.001953125 194.331054688 -47.501953125 198.998046875 -58.501953125 c 0
 203.665039062 -69.501953125 205.998046875 -81.3349609375 205.998046875 -94.001953125 c 2
 206.998046875 -146.001953125 l 2
 207.665039062 -154.001953125 209.998046875 -161.001953125 213.998046875 -167.001953125 c 0
 217.331054688 -172.334960938 222.998046875 -177.001953125 230.998046875 -181.001953125 c 0
 238.998046875 -185.001953125 250.331054688 -187.001953125 264.998046875 -187.001953125 c 0
 279.665039062 -187.001953125 291.165039062 -185.001953125 299.498046875 -181.001953125 c 0
 307.831054688 -177.001953125 313.6640625 -172.334960938 316.997070312 -167.001953125 c 0
 320.997070312 -161.001953125 323.330078125 -154.001953125 323.997070312 -146.001953125 c 2
 323.997070312 142.998046875 l 1
 302.6640625 114.998046875 284.331054688 90.8310546875 268.998046875 70.498046875 c 0
 253.665039062 50.1650390625 239.33203125 34.6650390625 225.999023438 23.998046875 c 0
 216.666015625 16.6650390625 207.333007812 11.498046875 198 8.498046875 c 0
 188.666992188 5.498046875 180.333984375 3.3310546875 173.000976562 1.998046875 c 0
 164.333984375 0.6650390625 155.666992188 0.33203125 147 0.9990234375 c 0
 132.333007812 0.9990234375 118 3.666015625 104 8.9990234375 c 0
 90 14.33203125 77.5 21.4990234375 66.5 30.4990234375 c 0
 55.5 39.4990234375 46.6669921875 50.666015625 40 63.9990234375 c 0
 33.3330078125 77.33203125 29.666015625 91.9990234375 28.9990234375 107.999023438 c 2
 28.9990234375 108.999023438 l 1
 28.9990234375 361.999023438 l 2
 28.9990234375 368.666015625 29.9990234375 374.999023438 31.9990234375 380.999023438 c 0
 34.666015625 390.999023438 39.9990234375 402.666015625 47.9990234375 415.999023438 c 0
 55.9990234375 429.33203125 68.666015625 441.999023438 85.9990234375 453.999023438 c 0
 103.33203125 465.999023438 126.33203125 476.166015625 154.999023438 484.499023438 c 0
 183.666015625 492.83203125 220.333007812 496.999023438 265 496.999023438 c 2
 278.5 496.999023438 l 2
 284.166992188 496.999023438 294.666992188 496.83203125 310 496.499023438 c 0
 325.333007812 496.166015625 348 495.833007812 378 495.5 c 0
 408 495.166992188 449 495 501 495 c 2
 511 495 l 2
 517 495 520 492 520 486 c 0
240.9921875 108.999023438 m 0
 247.659179688 114.33203125 255.16015625 120.666015625 263.493164062 127.999023438 c 0
 271.826171875 135.33203125 279.993164062 142.83203125 287.993164062 150.499023438 c 0
 295.993164062 158.166015625 303.16015625 164.999023438 309.493164062 170.999023438 c 0
 315.826171875 176.999023438 320.659179688 181.666015625 323.9921875 184.999023438 c 2
 323.9921875 400.999023438 l 2
 323.325195312 408.33203125 320.9921875 414.999023438 316.9921875 420.999023438 c 0
 313.659179688 426.33203125 307.9921875 430.999023438 299.9921875 434.999023438 c 0
 291.9921875 438.999023438 280.659179688 440.999023438 265.9921875 440.999023438 c 0
 250.659179688 440.999023438 238.9921875 438.83203125 230.9921875 434.499023438 c 0
 222.9921875 430.166015625 217.325195312 425.333007812 213.9921875 420 c 0
 209.9921875 414 207.659179688 407.333007812 206.9921875 400 c 2
 205.9921875 111 l 2
 209.325195312 105.666992188 212.9921875 102.666992188 216.9921875 102 c 0
 220.9921875 101.333007812 224.659179688 101.666015625 227.9921875 102.999023438 c 0
 231.9921875 104.33203125 236.325195312 106.33203125 240.9921875 108.999023438 c 0
EndSplineSet
Validated: 524289
EndChar

